<svg xmlns="http://www.w3.org/2000/svg" xmlns:xlink="http://www.w3.org/1999/xlink" width="500" zoomAndPan="magnify" viewBox="0 0 375 374.999991" height="500" preserveAspectRatio="xMidYMid meet" version="1.0"><defs><g/><clipPath id="d96c0eb27c"><path d="M 5 34.15625 L 193.121094 34.15625 L 193.121094 340.824219 L 5 340.824219 Z M 5 34.15625 " clip-rule="nonzero"/></clipPath></defs><path stroke-linecap="round" transform="matrix(1.375188, 0, 0, 1.375188, 180.881258, 148.84247)" fill="none" stroke-linejoin="miter" d="M 8.000034 7.999834 L 129.727668 7.999834 " stroke="#ff7f11" stroke-width="16" stroke-opacity="1" stroke-miterlimit="4"/><g clip-path="url(#d96c0eb27c)"><path fill="#ff7f11" d="M 53.132812 34.191406 C 53.132812 34.191406 53.140625 34.191406 53.144531 34.191406 C 60.875 34.195312 67.132812 39.773438 68.019531 47.457031 L 86.054688 203.957031 L 103.734375 99.949219 C 104.941406 92.839844 110.820312 87.714844 118.027344 87.484375 C 125.210938 87.238281 131.429688 91.996094 133.085938 99.015625 L 156.238281 196.898438 L 175.65625 157.488281 C 178.191406 152.332031 183.34375 149.128906 189.09375 149.128906 L 331.910156 149.128906 C 337.859375 149.128906 342.683594 153.949219 342.683594 159.898438 C 342.683594 165.847656 337.859375 170.671875 331.910156 170.671875 L 193.179688 170.671875 L 167.492188 222.796875 C 164.664062 228.535156 158.71875 231.773438 152.367188 231.058594 C 146.007812 230.339844 140.945312 225.851562 139.472656 219.621094 L 119.558594 135.414062 L 99.578125 252.949219 C 98.316406 260.375 91.910156 265.621094 84.40625 265.414062 C 76.875 265.214844 70.785156 259.636719 69.921875 252.15625 L 53.085938 106.050781 L 26.8125 330.613281 C 26.121094 336.523438 20.777344 340.753906 14.863281 340.0625 C 8.953125 339.371094 4.722656 334.019531 5.414062 328.113281 L 38.25 47.433594 C 39.148438 39.757812 45.410156 34.191406 53.132812 34.191406 " fill-opacity="1" fill-rule="nonzero"/></g><g fill="#000000" fill-opacity="1"><g transform="translate(191.792584, 238.321424)"><g><path d="M 20.15625 -37.78125 C 21.445312 -37.78125 22.710938 -37.597656 23.953125 -37.234375 C 25.191406 -36.867188 26.375 -36.378906 27.5 -35.765625 C 28.226562 -35.367188 28.632812 -35.015625 28.71875 -34.703125 C 28.800781 -34.398438 28.785156 -33.769531 28.671875 -32.8125 C 28.390625 -29.769531 28.175781 -26.070312 28.03125 -21.71875 C 27.894531 -17.363281 27.828125 -12.90625 27.828125 -8.34375 L 27.828125 -4.8125 L 28.09375 -4.546875 C 28.3125 -4.328125 28.617188 -4.21875 29.015625 -4.21875 L 30.109375 -4.21875 C 30.335938 -4.332031 30.5625 -4.273438 30.78125 -4.046875 C 31.226562 -3.546875 31.398438 -3.015625 31.296875 -2.453125 C 31.117188 -2.171875 30.582031 -1.75 29.6875 -1.1875 C 28.789062 -0.625 27.863281 -0.113281 26.90625 0.34375 C 25.332031 1.007812 24.039062 1.34375 23.03125 1.34375 C 22.632812 1.34375 22.210938 1.234375 21.765625 1.015625 C 20.472656 0.171875 19.828125 -1.347656 19.828125 -3.546875 L 19.828125 -4.546875 L 19.140625 -4.046875 C 17.734375 -3.035156 16.242188 -2.09375 14.671875 -1.21875 C 13.097656 -0.351562 11.410156 0.078125 9.609375 0.078125 C 8.660156 0.078125 7.929688 -0.0625 7.421875 -0.34375 C 5.960938 -0.90625 4.867188 -2.082031 4.140625 -3.875 C 3.859375 -4.4375 3.660156 -5 3.546875 -5.5625 C 3.429688 -6.125 3.359375 -6.796875 3.328125 -7.578125 C 3.304688 -8.367188 3.304688 -9.367188 3.328125 -10.578125 C 3.359375 -11.796875 3.375 -13.332031 3.375 -15.1875 C 3.375 -20.800781 3.332031 -25.265625 3.25 -28.578125 C 3.164062 -31.898438 3.007812 -34.039062 2.78125 -35 C 2.613281 -36.070312 2.644531 -36.664062 2.875 -36.78125 C 3.320312 -37 4.273438 -37 5.734375 -36.78125 C 7.421875 -36.4375 9.023438 -35.875 10.546875 -35.09375 C 11.503906 -34.632812 11.984375 -33.984375 11.984375 -33.140625 C 11.984375 -32.972656 11.96875 -32.664062 11.9375 -32.21875 C 11.90625 -31.769531 11.863281 -31.179688 11.8125 -30.453125 C 11.695312 -28.648438 11.609375 -26.664062 11.546875 -24.5 C 11.492188 -22.332031 11.441406 -19.984375 11.390625 -17.453125 C 11.390625 -15.992188 11.390625 -14.546875 11.390625 -13.109375 C 11.390625 -11.679688 11.414062 -10.828125 11.46875 -10.546875 C 11.582031 -9.867188 11.753906 -9.25 11.984375 -8.6875 C 12.265625 -8.125 12.585938 -7.742188 12.953125 -7.546875 C 13.316406 -7.347656 13.804688 -7.25 14.421875 -7.25 C 14.867188 -7.25 15.347656 -7.332031 15.859375 -7.5 C 17.097656 -8.0625 18.332031 -8.878906 19.5625 -9.953125 L 19.90625 -10.375 L 19.90625 -19.5625 C 19.90625 -27.832031 19.820312 -33.257812 19.65625 -35.84375 C 19.59375 -36.75 19.617188 -37.285156 19.734375 -37.453125 C 19.847656 -37.617188 19.988281 -37.726562 20.15625 -37.78125 Z M 20.15625 -37.78125 "/></g></g></g><g fill="#000000" fill-opacity="1"><g transform="translate(236.408223, 238.321424)"><g><path d="M 13.40625 -37.03125 C 14.757812 -37.03125 16.097656 -36.800781 17.421875 -36.34375 C 18.742188 -35.894531 20.019531 -35.195312 21.25 -34.25 C 22.820312 -33.0625 23.835938 -32.019531 24.296875 -31.125 C 24.679688 -30.332031 24.285156 -28.953125 23.109375 -26.984375 C 22.035156 -25.296875 21.082031 -24.453125 20.25 -24.453125 C 19.851562 -24.453125 19.175781 -24.929688 18.21875 -25.890625 C 17.09375 -27.128906 16.035156 -28.03125 15.046875 -28.59375 C 14.066406 -29.15625 13.1875 -29.460938 12.40625 -29.515625 C 12.125 -29.515625 11.894531 -29.488281 11.71875 -29.4375 C 11.550781 -29.382812 11.382812 -29.300781 11.21875 -29.1875 C 10.320312 -28.625 9.875 -27.863281 9.875 -26.90625 C 9.875 -26.007812 10.238281 -25.082031 10.96875 -24.125 C 11.644531 -23.394531 12.65625 -22.660156 14 -21.921875 C 15.289062 -21.253906 16.515625 -20.539062 17.671875 -19.78125 C 18.828125 -19.019531 19.867188 -18.160156 20.796875 -17.203125 C 21.722656 -16.242188 22.453125 -15.144531 22.984375 -13.90625 C 23.515625 -12.675781 23.78125 -11.300781 23.78125 -9.78125 C 23.78125 -8.207031 23.46875 -6.785156 22.84375 -5.515625 C 22.226562 -4.253906 21.382812 -3.1875 20.3125 -2.3125 C 19.25 -1.445312 18.039062 -0.773438 16.6875 -0.296875 C 15.34375 0.179688 13.941406 0.421875 12.484375 0.421875 C 9.554688 0.421875 6.601562 -0.445312 3.625 -2.1875 C 2.664062 -2.695312 2.160156 -3.234375 2.109375 -3.796875 C 1.992188 -4.242188 2.09375 -4.957031 2.40625 -5.9375 C 2.71875 -6.925781 3.097656 -7.757812 3.546875 -8.4375 C 3.828125 -8.832031 4.0625 -9.171875 4.25 -9.453125 C 4.445312 -9.734375 4.6875 -9.925781 4.96875 -10.03125 C 5.53125 -10.207031 6.234375 -10.097656 7.078125 -9.703125 C 7.984375 -9.253906 8.867188 -8.929688 9.734375 -8.734375 C 10.609375 -8.535156 11.441406 -8.378906 12.234375 -8.265625 C 12.734375 -8.210938 13.148438 -8.210938 13.484375 -8.265625 C 13.828125 -8.316406 14.113281 -8.375 14.34375 -8.4375 C 15.351562 -8.65625 15.882812 -9.1875 15.9375 -10.03125 C 16 -10.539062 15.71875 -11.242188 15.09375 -12.140625 C 14.476562 -13.046875 13.609375 -13.890625 12.484375 -14.671875 L 9.953125 -16.359375 C 8.941406 -16.984375 7.972656 -17.601562 7.046875 -18.21875 C 6.117188 -18.832031 5.316406 -19.519531 4.640625 -20.28125 C 3.960938 -21.039062 3.410156 -21.910156 2.984375 -22.890625 C 2.566406 -23.878906 2.359375 -25.050781 2.359375 -26.40625 C 2.359375 -27.914062 2.65625 -29.316406 3.25 -30.609375 C 3.84375 -31.910156 4.644531 -33.035156 5.65625 -33.984375 C 6.664062 -34.941406 7.832031 -35.6875 9.15625 -36.21875 C 10.476562 -36.757812 11.894531 -37.03125 13.40625 -37.03125 Z M 13.40625 -37.03125 "/></g></g></g><g fill="#000000" fill-opacity="1"><g transform="translate(274.445511, 238.321424)"><g><path d="M 3.625 -49.59375 C 4.863281 -50.71875 6.15625 -51.28125 7.5 -51.28125 C 8.570312 -51.28125 9.539062 -50.941406 10.40625 -50.265625 C 11.28125 -49.585938 11.859375 -48.742188 12.140625 -47.734375 C 12.585938 -46.273438 12.445312 -44.984375 11.71875 -43.859375 C 10.988281 -42.734375 9.863281 -41.972656 8.34375 -41.578125 C 8.0625 -41.460938 7.804688 -41.40625 7.578125 -41.40625 C 7.359375 -41.40625 7.140625 -41.40625 6.921875 -41.40625 C 6.179688 -41.40625 5.421875 -41.578125 4.640625 -41.921875 C 3.566406 -42.421875 2.816406 -43.160156 2.390625 -44.140625 C 1.972656 -45.128906 1.90625 -46.1875 2.1875 -47.3125 C 2.300781 -47.757812 2.5 -48.179688 2.78125 -48.578125 C 3.0625 -48.972656 3.34375 -49.3125 3.625 -49.59375 Z M 3.125 -36.515625 C 3.457031 -36.691406 3.929688 -36.78125 4.546875 -36.78125 C 5.054688 -36.78125 5.617188 -36.722656 6.234375 -36.609375 C 6.859375 -36.492188 7.492188 -36.335938 8.140625 -36.140625 C 8.785156 -35.941406 9.398438 -35.703125 9.984375 -35.421875 C 10.578125 -35.140625 11.070312 -34.859375 11.46875 -34.578125 C 11.914062 -34.128906 12.140625 -33.625 12.140625 -33.0625 C 12.140625 -32.445312 12.054688 -29.890625 11.890625 -25.390625 C 11.722656 -21.171875 11.609375 -17.332031 11.546875 -13.875 C 11.492188 -10.414062 11.441406 -7.617188 11.390625 -5.484375 C 11.390625 -3.179688 11.359375 -1.914062 11.296875 -1.6875 C 11.128906 -1.289062 10.820312 -0.953125 10.375 -0.671875 C 9.582031 -0.222656 8.738281 0.125 7.84375 0.375 C 6.945312 0.632812 6.019531 0.789062 5.0625 0.84375 C 4.269531 0.84375 3.847656 0.703125 3.796875 0.421875 C 3.679688 0.304688 3.609375 -0.703125 3.578125 -2.609375 C 3.554688 -4.523438 3.546875 -7.085938 3.546875 -10.296875 C 3.546875 -24.460938 3.375 -32.753906 3.03125 -35.171875 C 2.976562 -36.066406 3.007812 -36.515625 3.125 -36.515625 Z M 3.125 -36.515625 "/></g></g></g><g fill="#000000" fill-opacity="1"><g transform="translate(301.434561, 238.321424)"><g><path d="M 18.21875 -37.203125 C 19.957031 -37.203125 21.640625 -36.765625 23.265625 -35.890625 C 24.898438 -35.015625 26.195312 -33.875 27.15625 -32.46875 C 27.78125 -31.570312 28.09375 -30.8125 28.09375 -30.1875 C 28.09375 -29.6875 27.976562 -29.179688 27.75 -28.671875 C 27.519531 -28.109375 27.222656 -27.546875 26.859375 -26.984375 C 26.492188 -26.421875 26.085938 -25.804688 25.640625 -25.140625 C 24.796875 -24.234375 24.117188 -23.8125 23.609375 -23.875 C 23.441406 -23.925781 23.21875 -24.019531 22.9375 -24.15625 C 22.65625 -24.300781 22.347656 -24.539062 22.015625 -24.875 C 21.390625 -25.550781 20.738281 -26.03125 20.0625 -26.3125 C 19.394531 -26.59375 18.613281 -26.734375 17.71875 -26.734375 C 16.644531 -26.734375 15.6875 -26.507812 14.84375 -26.0625 C 14 -25.613281 13.28125 -25.019531 12.6875 -24.28125 C 12.101562 -23.550781 11.628906 -22.722656 11.265625 -21.796875 C 10.898438 -20.867188 10.660156 -19.898438 10.546875 -18.890625 C 10.378906 -18.160156 10.304688 -17.382812 10.328125 -16.5625 C 10.359375 -15.75 10.457031 -14.921875 10.625 -14.078125 C 11.632812 -8.515625 14.894531 -5.734375 20.40625 -5.734375 C 21.132812 -5.734375 21.847656 -5.789062 22.546875 -5.90625 C 23.253906 -6.019531 24.003906 -6.160156 24.796875 -6.328125 C 25.691406 -6.546875 26.394531 -6.460938 26.90625 -6.078125 C 27.414062 -5.335938 27.582031 -4.632812 27.40625 -3.96875 C 27.300781 -3.625 26.570312 -2.890625 25.21875 -1.765625 C 24.144531 -0.921875 22.878906 -0.273438 21.421875 0.171875 C 19.960938 0.617188 18.554688 0.84375 17.203125 0.84375 C 16.472656 0.84375 15.769531 0.757812 15.09375 0.59375 C 11.550781 0.03125 8.640625 -1.722656 6.359375 -4.671875 C 4.085938 -7.628906 2.726562 -11.242188 2.28125 -15.515625 C 2.113281 -16.984375 2.097656 -18.414062 2.234375 -19.8125 C 2.378906 -21.21875 2.617188 -22.597656 2.953125 -23.953125 C 3.460938 -25.640625 4.179688 -27.285156 5.109375 -28.890625 C 6.035156 -30.492188 7.15625 -31.910156 8.46875 -33.140625 C 9.789062 -34.378906 11.265625 -35.363281 12.890625 -36.09375 C 14.523438 -36.832031 16.300781 -37.203125 18.21875 -37.203125 Z M 18.21875 -37.203125 "/></g></g></g></svg>