<svg xmlns="http://www.w3.org/2000/svg" xmlns:xlink="http://www.w3.org/1999/xlink" width="500" zoomAndPan="magnify" viewBox="0 0 375 374.999991" height="500" preserveAspectRatio="xMidYMid meet" version="1.0"><defs><g/><clipPath id="125b962ff3"><path d="M 27 159 L 120.65625 159 L 120.65625 218 L 27 218 Z M 27 159 " clip-rule="nonzero"/></clipPath></defs><g clip-path="url(#125b962ff3)"><path fill="#ed5b2d" d="M 103.136719 193.191406 C 102.359375 195.179688 103.351562 197.386719 105.3125 198.164062 C 107.300781 198.945312 109.511719 197.949219 110.289062 195.988281 L 119.867188 171.511719 C 120.613281 169.554688 119.648438 167.347656 117.6875 166.570312 C 115.699219 165.789062 113.492188 166.753906 112.714844 168.746094 Z M 34.808594 213.53125 C 34.03125 215.519531 31.824219 216.484375 29.863281 215.707031 C 27.871094 214.929688 26.910156 212.71875 27.6875 210.761719 L 44.449219 167.8125 C 45.660156 164.765625 47.996094 162.464844 50.792969 161.21875 C 53.59375 160.007812 56.859375 159.820312 59.90625 161.03125 L 59.96875 161.03125 C 63.015625 162.246094 65.316406 164.578125 66.53125 167.347656 C 67.742188 170.144531 67.929688 173.378906 66.746094 176.425781 L 66.714844 176.488281 L 55.707031 204.449219 L 55.675781 204.480469 L 55.644531 204.605469 C 55.273438 205.628906 55.363281 206.75 55.769531 207.714844 C 56.203125 208.644531 56.953125 209.457031 57.976562 209.890625 C 58.101562 209.953125 58.226562 210.015625 58.351562 210.046875 C 59.378906 210.386719 60.464844 210.292969 61.429688 209.890625 C 62.363281 209.488281 63.171875 208.738281 63.605469 207.746094 C 63.667969 207.589844 63.730469 207.402344 63.792969 207.246094 L 76.855469 173.722656 L 77.199219 172.851562 C 77.199219 172.789062 77.226562 172.726562 77.261719 172.664062 C 79.964844 165.636719 83.542969 156.710938 94.613281 161.003906 L 94.644531 161.003906 C 94.707031 161.03125 94.769531 161.0625 94.863281 161.09375 C 97.816406 162.308594 100.054688 164.609375 101.238281 167.347656 C 102.480469 170.144531 102.636719 173.378906 101.457031 176.457031 L 101.484375 176.457031 L 101.457031 176.457031 C 101.457031 176.519531 101.425781 176.582031 101.394531 176.644531 L 93.835938 195.988281 C 93.058594 197.949219 90.820312 198.945312 88.859375 198.164062 C 86.902344 197.386719 85.90625 195.179688 86.683594 193.191406 L 94.269531 173.84375 L 94.300781 173.722656 L 94.300781 173.691406 C 94.738281 172.601562 94.675781 171.449219 94.242188 170.425781 C 93.804688 169.460938 93.027344 168.652344 91.96875 168.21875 L 91.90625 168.183594 L 91.875 168.15625 C 87.863281 166.597656 85.90625 171.511719 84.382812 175.429688 C 84.382812 175.492188 84.351562 175.554688 84.320312 175.617188 L 84.007812 176.488281 L 70.820312 210.292969 C 69.640625 213.375 67.308594 215.675781 64.507812 216.917969 C 61.773438 218.101562 58.601562 218.289062 55.582031 217.199219 C 55.519531 217.167969 55.425781 217.136719 55.363281 217.105469 L 55.335938 217.105469 C 52.285156 215.894531 49.984375 213.5625 48.773438 210.792969 C 47.558594 208.085938 47.371094 204.914062 48.460938 201.929688 C 48.492188 201.835938 48.523438 201.773438 48.554688 201.679688 L 48.554688 201.648438 L 59.59375 173.691406 C 60.03125 172.601562 59.9375 171.449219 59.5 170.425781 C 59.066406 169.429688 58.257812 168.589844 57.167969 168.183594 L 57.136719 168.15625 C 56.050781 167.75 54.898438 167.8125 53.871094 168.246094 C 52.878906 168.683594 52.039062 169.523438 51.601562 170.609375 L 34.808594 213.53125 " fill-opacity="1" fill-rule="nonzero"/></g><g fill="#291b25" fill-opacity="1"><g transform="translate(130.818897, 201.251846)"><g><path d="M 9.796875 -26.734375 C 9.710938 -26.515625 9.644531 -26.28125 9.59375 -26.03125 C 9.539062 -25.789062 9.515625 -25.539062 9.515625 -25.28125 C 9.515625 -25.019531 9.578125 -24.769531 9.703125 -24.53125 C 9.835938 -24.289062 9.976562 -24.078125 10.125 -23.890625 C 10.425781 -23.472656 10.800781 -23.117188 11.25 -22.828125 C 11.425781 -22.671875 11.632812 -22.535156 11.875 -22.421875 C 12.125 -22.316406 12.363281 -22.207031 12.59375 -22.09375 C 12.8125 -21.976562 13.039062 -21.863281 13.28125 -21.75 C 13.53125 -21.644531 13.765625 -21.535156 13.984375 -21.421875 C 14.242188 -21.347656 14.492188 -21.273438 14.734375 -21.203125 C 14.984375 -21.128906 15.21875 -21.054688 15.4375 -20.984375 C 15.664062 -20.867188 15.890625 -20.78125 16.109375 -20.71875 C 16.335938 -20.664062 16.5625 -20.601562 16.78125 -20.53125 C 16.96875 -20.457031 17.171875 -20.390625 17.390625 -20.328125 C 17.617188 -20.273438 17.84375 -20.210938 18.0625 -20.140625 C 18.289062 -20.066406 18.503906 -19.984375 18.703125 -19.890625 C 18.910156 -19.796875 19.128906 -19.710938 19.359375 -19.640625 C 19.578125 -19.554688 19.796875 -19.488281 20.015625 -19.4375 C 20.242188 -19.382812 20.472656 -19.320312 20.703125 -19.25 C 20.921875 -19.164062 21.140625 -19.085938 21.359375 -19.015625 C 21.585938 -18.941406 21.816406 -18.847656 22.046875 -18.734375 C 22.410156 -18.546875 22.835938 -18.304688 23.328125 -18.015625 C 23.515625 -17.859375 23.691406 -17.6875 23.859375 -17.5 C 24.023438 -17.320312 24.203125 -17.15625 24.390625 -17 C 24.578125 -16.851562 24.765625 -16.695312 24.953125 -16.53125 C 25.140625 -16.363281 25.304688 -16.1875 25.453125 -16 C 25.597656 -15.8125 25.753906 -15.625 25.921875 -15.4375 C 26.085938 -15.25 26.226562 -15.046875 26.34375 -14.828125 C 26.457031 -14.640625 26.5625 -14.429688 26.65625 -14.203125 C 26.75 -13.984375 26.832031 -13.742188 26.90625 -13.484375 C 26.976562 -13.253906 27.0625 -13.023438 27.15625 -12.796875 C 27.25 -12.578125 27.316406 -12.359375 27.359375 -12.140625 C 27.429688 -11.878906 27.492188 -11.632812 27.546875 -11.40625 C 27.609375 -11.1875 27.65625 -10.945312 27.6875 -10.6875 C 27.6875 -10.457031 27.695312 -10.222656 27.71875 -9.984375 C 27.738281 -9.742188 27.75 -9.492188 27.75 -9.234375 C 27.75 -8.972656 27.738281 -8.71875 27.71875 -8.46875 C 27.695312 -8.226562 27.671875 -7.976562 27.640625 -7.71875 C 27.597656 -7.269531 27.484375 -6.785156 27.296875 -6.265625 C 27.179688 -6.035156 27.066406 -5.8125 26.953125 -5.59375 C 26.847656 -5.375 26.738281 -5.148438 26.625 -4.921875 C 26.476562 -4.734375 26.347656 -4.523438 26.234375 -4.296875 C 26.117188 -4.078125 25.988281 -3.875 25.84375 -3.6875 C 25.695312 -3.5 25.519531 -3.320312 25.3125 -3.15625 C 25.101562 -2.988281 24.90625 -2.832031 24.71875 -2.6875 C 24.53125 -2.539062 24.351562 -2.375 24.1875 -2.1875 C 24.019531 -2 23.828125 -1.828125 23.609375 -1.671875 C 23.421875 -1.566406 23.210938 -1.457031 22.984375 -1.34375 C 22.765625 -1.226562 22.523438 -1.113281 22.265625 -1 C 22.078125 -0.894531 21.859375 -0.796875 21.609375 -0.703125 C 21.367188 -0.609375 21.140625 -0.523438 20.921875 -0.453125 C 20.472656 -0.296875 19.988281 -0.144531 19.46875 0 C 19.238281 0.0390625 19.003906 0.0859375 18.765625 0.140625 C 18.523438 0.191406 18.273438 0.238281 18.015625 0.28125 C 17.785156 0.3125 17.550781 0.351562 17.3125 0.40625 C 17.070312 0.46875 16.820312 0.5 16.5625 0.5 C 16.300781 0.539062 16.046875 0.566406 15.796875 0.578125 C 15.554688 0.597656 15.304688 0.609375 15.046875 0.609375 C 14.785156 0.609375 14.523438 0.570312 14.265625 0.5 C 14.003906 0.425781 13.742188 0.390625 13.484375 0.390625 C 13.222656 0.347656 12.960938 0.328125 12.703125 0.328125 C 12.441406 0.328125 12.179688 0.3125 11.921875 0.28125 C 11.648438 0.238281 11.394531 0.148438 11.15625 0.015625 C 10.914062 -0.109375 10.679688 -0.207031 10.453125 -0.28125 C 10.191406 -0.351562 9.929688 -0.414062 9.671875 -0.46875 C 9.410156 -0.53125 9.171875 -0.597656 8.953125 -0.671875 C 8.691406 -0.785156 8.445312 -0.90625 8.21875 -1.03125 C 8 -1.164062 7.773438 -1.289062 7.546875 -1.40625 C 7.285156 -1.550781 7.039062 -1.6875 6.8125 -1.8125 C 6.59375 -1.945312 6.390625 -2.070312 6.203125 -2.1875 C 5.941406 -2.375 5.71875 -2.550781 5.53125 -2.71875 C 5.351562 -2.882812 5.171875 -3.039062 4.984375 -3.1875 C 4.722656 -3.414062 4.503906 -3.628906 4.328125 -3.828125 C 4.160156 -4.035156 4.023438 -4.195312 3.921875 -4.3125 C 3.316406 -4.832031 2.960938 -5.257812 2.859375 -5.59375 C 2.773438 -5.851562 2.789062 -6.101562 2.90625 -6.34375 C 3.019531 -6.59375 3.171875 -6.847656 3.359375 -7.109375 C 3.503906 -7.296875 3.679688 -7.476562 3.890625 -7.65625 C 4.097656 -7.84375 4.3125 -8.050781 4.53125 -8.28125 C 4.90625 -8.65625 5.28125 -8.988281 5.65625 -9.28125 C 5.875 -9.4375 6.082031 -9.578125 6.28125 -9.703125 C 6.488281 -9.835938 6.707031 -9.867188 6.9375 -9.796875 C 7.125 -9.753906 7.300781 -9.648438 7.46875 -9.484375 C 7.632812 -9.316406 7.8125 -9.101562 8 -8.84375 C 8.144531 -8.65625 8.328125 -8.476562 8.546875 -8.3125 C 8.773438 -8.144531 9.019531 -7.96875 9.28125 -7.78125 C 9.46875 -7.625 9.671875 -7.453125 9.890625 -7.265625 C 10.117188 -7.085938 10.347656 -6.921875 10.578125 -6.765625 C 10.796875 -6.648438 11.035156 -6.523438 11.296875 -6.390625 C 11.554688 -6.265625 11.816406 -6.148438 12.078125 -6.046875 C 12.304688 -5.929688 12.550781 -5.816406 12.8125 -5.703125 C 13.070312 -5.585938 13.332031 -5.492188 13.59375 -5.421875 C 13.851562 -5.316406 14.113281 -5.242188 14.375 -5.203125 C 14.632812 -5.160156 14.894531 -5.125 15.15625 -5.09375 C 15.71875 -4.976562 16.238281 -4.976562 16.71875 -5.09375 C 16.976562 -5.125 17.226562 -5.1875 17.46875 -5.28125 C 17.71875 -5.375 17.957031 -5.476562 18.1875 -5.59375 C 18.445312 -5.707031 18.6875 -5.828125 18.90625 -5.953125 C 19.132812 -6.085938 19.335938 -6.226562 19.515625 -6.375 C 19.742188 -6.5625 19.957031 -6.738281 20.15625 -6.90625 C 20.363281 -7.070312 20.546875 -7.25 20.703125 -7.4375 C 21.035156 -7.882812 21.257812 -8.351562 21.375 -8.84375 C 21.476562 -9.394531 21.476562 -9.894531 21.375 -10.34375 C 21.257812 -10.832031 21.035156 -11.265625 20.703125 -11.640625 C 20.359375 -11.972656 19.945312 -12.269531 19.46875 -12.53125 C 19.238281 -12.644531 19.003906 -12.738281 18.765625 -12.8125 C 18.523438 -12.882812 18.289062 -12.976562 18.0625 -13.09375 C 17.84375 -13.164062 17.617188 -13.265625 17.390625 -13.390625 C 17.171875 -13.523438 16.945312 -13.628906 16.71875 -13.703125 C 16.5 -13.816406 16.265625 -13.925781 16.015625 -14.03125 C 15.773438 -14.144531 15.546875 -14.238281 15.328125 -14.3125 C 15.097656 -14.394531 14.863281 -14.484375 14.625 -14.578125 C 14.382812 -14.671875 14.148438 -14.753906 13.921875 -14.828125 C 13.660156 -14.898438 13.410156 -14.972656 13.171875 -15.046875 C 12.929688 -15.117188 12.695312 -15.191406 12.46875 -15.265625 C 12.25 -15.378906 12.015625 -15.472656 11.765625 -15.546875 C 11.523438 -15.617188 11.296875 -15.695312 11.078125 -15.78125 C 10.816406 -15.882812 10.570312 -15.972656 10.34375 -16.046875 C 10.125 -16.128906 9.882812 -16.207031 9.625 -16.28125 C 9.101562 -16.46875 8.632812 -16.671875 8.21875 -16.890625 C 7.695312 -17.191406 7.25 -17.472656 6.875 -17.734375 C 6.65625 -17.921875 6.441406 -18.085938 6.234375 -18.234375 C 6.023438 -18.378906 5.832031 -18.546875 5.65625 -18.734375 C 5.5 -18.960938 5.347656 -19.175781 5.203125 -19.375 C 5.054688 -19.582031 4.90625 -19.800781 4.75 -20.03125 C 4.601562 -20.25 4.460938 -20.46875 4.328125 -20.6875 C 4.203125 -20.914062 4.082031 -21.160156 3.96875 -21.421875 C 3.820312 -21.867188 3.691406 -22.375 3.578125 -22.9375 C 3.546875 -23.195312 3.519531 -23.457031 3.5 -23.71875 C 3.476562 -23.976562 3.46875 -24.257812 3.46875 -24.5625 C 3.46875 -24.820312 3.46875 -25.070312 3.46875 -25.3125 C 3.46875 -25.550781 3.488281 -25.800781 3.53125 -26.0625 C 3.5625 -26.320312 3.601562 -26.582031 3.65625 -26.84375 C 3.71875 -27.101562 3.765625 -27.347656 3.796875 -27.578125 C 3.878906 -27.835938 3.945312 -28.085938 4 -28.328125 C 4.050781 -28.578125 4.132812 -28.8125 4.25 -29.03125 C 4.320312 -29.289062 4.429688 -29.53125 4.578125 -29.75 C 4.734375 -29.976562 4.867188 -30.207031 4.984375 -30.4375 C 5.085938 -30.65625 5.195312 -30.875 5.3125 -31.09375 C 5.425781 -31.320312 5.554688 -31.546875 5.703125 -31.765625 C 5.847656 -31.953125 6.023438 -32.117188 6.234375 -32.265625 C 6.441406 -32.421875 6.640625 -32.59375 6.828125 -32.78125 C 7.015625 -32.96875 7.207031 -33.144531 7.40625 -33.3125 C 7.613281 -33.476562 7.8125 -33.632812 8 -33.78125 C 8.21875 -33.894531 8.4375 -34.007812 8.65625 -34.125 C 8.882812 -34.238281 9.113281 -34.367188 9.34375 -34.515625 C 9.5625 -34.628906 9.78125 -34.738281 10 -34.84375 C 10.226562 -34.957031 10.472656 -35.050781 10.734375 -35.125 C 10.960938 -35.195312 11.195312 -35.269531 11.4375 -35.34375 C 11.675781 -35.425781 11.925781 -35.484375 12.1875 -35.515625 C 12.457031 -35.585938 12.710938 -35.632812 12.953125 -35.65625 C 13.191406 -35.675781 13.441406 -35.707031 13.703125 -35.75 C 13.960938 -35.75 14.210938 -35.765625 14.453125 -35.796875 C 14.703125 -35.835938 14.957031 -35.859375 15.21875 -35.859375 C 15.507812 -35.859375 15.796875 -35.875 16.078125 -35.90625 C 16.359375 -35.945312 16.628906 -35.945312 16.890625 -35.90625 C 17.148438 -35.875 17.421875 -35.816406 17.703125 -35.734375 C 17.984375 -35.660156 18.253906 -35.609375 18.515625 -35.578125 C 18.773438 -35.503906 19.023438 -35.421875 19.265625 -35.328125 C 19.515625 -35.234375 19.769531 -35.148438 20.03125 -35.078125 C 20.582031 -34.847656 21.082031 -34.625 21.53125 -34.40625 C 21.789062 -34.289062 22.039062 -34.1875 22.28125 -34.09375 C 22.53125 -34 22.785156 -33.878906 23.046875 -33.734375 C 23.453125 -33.472656 23.773438 -33.265625 24.015625 -33.109375 C 24.265625 -32.960938 24.484375 -32.832031 24.671875 -32.71875 C 24.859375 -32.570312 25.050781 -32.421875 25.25 -32.265625 C 25.457031 -32.117188 25.765625 -31.898438 26.171875 -31.609375 C 26.359375 -31.421875 26.425781 -31.164062 26.375 -30.84375 C 26.320312 -30.53125 26.21875 -30.207031 26.0625 -29.875 C 25.800781 -29.195312 25.503906 -28.691406 25.171875 -28.359375 C 24.984375 -28.140625 24.820312 -27.914062 24.6875 -27.6875 C 24.5625 -27.46875 24.425781 -27.300781 24.28125 -27.1875 C 24.050781 -26.957031 23.832031 -26.816406 23.625 -26.765625 C 23.425781 -26.710938 23.210938 -26.6875 22.984375 -26.6875 C 22.617188 -26.71875 22.171875 -26.882812 21.640625 -27.1875 C 21.421875 -27.332031 21.195312 -27.46875 20.96875 -27.59375 C 20.75 -27.726562 20.507812 -27.890625 20.25 -28.078125 C 19.757812 -28.378906 19.289062 -28.660156 18.84375 -28.921875 C 18.4375 -29.179688 17.953125 -29.421875 17.390625 -29.640625 C 17.128906 -29.753906 16.867188 -29.859375 16.609375 -29.953125 C 16.347656 -30.046875 16.085938 -30.128906 15.828125 -30.203125 C 15.535156 -30.242188 15.253906 -30.253906 14.984375 -30.234375 C 14.722656 -30.210938 14.445312 -30.1875 14.15625 -30.15625 C 13.894531 -30.113281 13.640625 -30.070312 13.390625 -30.03125 C 13.148438 -30 12.921875 -29.925781 12.703125 -29.8125 C 12.472656 -29.738281 12.265625 -29.617188 12.078125 -29.453125 C 11.890625 -29.285156 11.703125 -29.144531 11.515625 -29.03125 C 11.296875 -28.882812 11.09375 -28.734375 10.90625 -28.578125 C 10.71875 -28.429688 10.550781 -28.25 10.40625 -28.03125 C 10.101562 -27.613281 9.898438 -27.179688 9.796875 -26.734375 Z M 9.796875 -26.734375 "/></g></g></g><g fill="#291b25" fill-opacity="1"><g transform="translate(161.35738, 201.251846)"><g><path d="M 11.296875 -6.328125 C 11.035156 -6.328125 10.773438 -6.328125 10.515625 -6.328125 C 10.253906 -6.328125 9.992188 -6.328125 9.734375 -6.328125 C 9.617188 -6.097656 9.523438 -5.863281 9.453125 -5.625 C 9.378906 -5.382812 9.285156 -5.148438 9.171875 -4.921875 C 9.097656 -4.703125 9.015625 -4.476562 8.921875 -4.25 C 8.828125 -4.03125 8.742188 -3.804688 8.671875 -3.578125 C 8.597656 -3.359375 8.519531 -3.132812 8.4375 -2.90625 C 8.363281 -2.6875 8.289062 -2.460938 8.21875 -2.234375 C 8.113281 -2.015625 7.992188 -1.800781 7.859375 -1.59375 C 7.722656 -1.382812 7.601562 -1.171875 7.5 -0.953125 C 7.34375 -0.648438 7.148438 -0.429688 6.921875 -0.296875 C 6.703125 -0.171875 6.445312 -0.09375 6.15625 -0.0625 C 5.476562 0.0507812 4.878906 0.09375 4.359375 0.0625 C 3.984375 0.0195312 3.640625 0.0078125 3.328125 0.03125 C 3.015625 0.0507812 2.726562 0.0625 2.46875 0.0625 C 2.09375 0.0625 1.828125 -0.0195312 1.671875 -0.1875 C 1.523438 -0.363281 1.472656 -0.675781 1.515625 -1.125 C 1.546875 -1.269531 1.585938 -1.488281 1.640625 -1.78125 C 1.703125 -2.082031 1.789062 -2.398438 1.90625 -2.734375 C 1.976562 -2.992188 2.0625 -3.265625 2.15625 -3.546875 C 2.25 -3.828125 2.351562 -4.097656 2.46875 -4.359375 C 2.570312 -4.691406 2.679688 -4.988281 2.796875 -5.25 C 2.910156 -5.519531 3.003906 -5.726562 3.078125 -5.875 C 3.148438 -6.09375 3.234375 -6.320312 3.328125 -6.5625 C 3.421875 -6.8125 3.523438 -7.046875 3.640625 -7.265625 C 3.710938 -7.492188 3.765625 -7.738281 3.796875 -8 C 3.835938 -8.257812 3.894531 -8.5 3.96875 -8.71875 C 4.039062 -8.988281 4.140625 -9.222656 4.265625 -9.421875 C 4.398438 -9.628906 4.507812 -9.863281 4.59375 -10.125 C 4.695312 -10.34375 4.785156 -10.570312 4.859375 -10.8125 C 4.941406 -11.0625 5.019531 -11.296875 5.09375 -11.515625 C 5.207031 -11.742188 5.269531 -11.988281 5.28125 -12.25 C 5.300781 -12.507812 5.347656 -12.753906 5.421875 -12.984375 C 5.492188 -13.242188 5.59375 -13.484375 5.71875 -13.703125 C 5.851562 -13.929688 5.960938 -14.15625 6.046875 -14.375 C 6.117188 -14.601562 6.191406 -14.835938 6.265625 -15.078125 C 6.335938 -15.316406 6.410156 -15.566406 6.484375 -15.828125 C 6.597656 -16.054688 6.691406 -16.289062 6.765625 -16.53125 C 6.835938 -16.769531 6.914062 -17.003906 7 -17.234375 C 7.101562 -17.492188 7.179688 -17.742188 7.234375 -17.984375 C 7.296875 -18.222656 7.382812 -18.457031 7.5 -18.6875 C 7.570312 -18.90625 7.644531 -19.132812 7.71875 -19.375 C 7.789062 -19.625 7.863281 -19.878906 7.9375 -20.140625 C 8.019531 -20.359375 8.113281 -20.578125 8.21875 -20.796875 C 8.332031 -21.023438 8.425781 -21.269531 8.5 -21.53125 C 8.613281 -21.757812 8.6875 -21.992188 8.71875 -22.234375 C 8.757812 -22.472656 8.835938 -22.722656 8.953125 -22.984375 C 9.023438 -23.210938 9.125 -23.4375 9.25 -23.65625 C 9.382812 -23.882812 9.488281 -24.109375 9.5625 -24.328125 C 9.632812 -24.585938 9.679688 -24.847656 9.703125 -25.109375 C 9.722656 -25.367188 9.789062 -25.613281 9.90625 -25.84375 C 9.976562 -26.0625 10.0625 -26.289062 10.15625 -26.53125 C 10.25 -26.78125 10.347656 -27.015625 10.453125 -27.234375 C 10.535156 -27.460938 10.613281 -27.695312 10.6875 -27.9375 C 10.757812 -28.175781 10.832031 -28.429688 10.90625 -28.703125 C 10.976562 -28.921875 11.0625 -29.148438 11.15625 -29.390625 C 11.25 -29.640625 11.332031 -29.875 11.40625 -30.09375 C 11.519531 -30.320312 11.601562 -30.554688 11.65625 -30.796875 C 11.71875 -31.035156 11.785156 -31.269531 11.859375 -31.5 C 11.972656 -31.757812 12.082031 -31.976562 12.1875 -32.15625 C 12.300781 -32.34375 12.394531 -32.53125 12.46875 -32.71875 C 12.550781 -32.976562 12.628906 -33.21875 12.703125 -33.4375 C 12.773438 -33.664062 12.847656 -33.859375 12.921875 -34.015625 C 13.066406 -34.273438 13.234375 -34.476562 13.421875 -34.625 C 13.609375 -34.769531 13.757812 -34.882812 13.875 -34.96875 C 14.09375 -35.144531 14.285156 -35.257812 14.453125 -35.3125 C 14.628906 -35.375 14.828125 -35.40625 15.046875 -35.40625 C 15.753906 -35.445312 16.332031 -35.445312 16.78125 -35.40625 C 17.039062 -35.375 17.289062 -35.3125 17.53125 -35.21875 C 17.78125 -35.125 18 -34.90625 18.1875 -34.5625 C 18.289062 -34.382812 18.378906 -34.15625 18.453125 -33.875 C 18.535156 -33.59375 18.628906 -33.285156 18.734375 -32.953125 C 18.847656 -32.722656 18.953125 -32.492188 19.046875 -32.265625 C 19.140625 -32.046875 19.242188 -31.804688 19.359375 -31.546875 C 19.429688 -31.328125 19.519531 -31.101562 19.625 -30.875 C 19.738281 -30.65625 19.832031 -30.429688 19.90625 -30.203125 C 20.019531 -29.984375 20.125 -29.757812 20.21875 -29.53125 C 20.3125 -29.3125 20.394531 -29.070312 20.46875 -28.8125 C 20.582031 -28.582031 20.664062 -28.351562 20.71875 -28.125 C 20.78125 -27.90625 20.867188 -27.664062 20.984375 -27.40625 C 21.054688 -27.1875 21.15625 -26.960938 21.28125 -26.734375 C 21.414062 -26.515625 21.519531 -26.289062 21.59375 -26.0625 C 21.707031 -25.84375 21.789062 -25.609375 21.84375 -25.359375 C 21.894531 -25.117188 21.960938 -24.890625 22.046875 -24.671875 C 22.117188 -24.441406 22.191406 -24.207031 22.265625 -23.96875 C 22.335938 -23.726562 22.410156 -23.492188 22.484375 -23.265625 C 22.597656 -23.003906 22.71875 -22.769531 22.84375 -22.5625 C 22.976562 -22.363281 23.082031 -22.148438 23.15625 -21.921875 C 23.269531 -21.703125 23.351562 -21.460938 23.40625 -21.203125 C 23.46875 -20.941406 23.535156 -20.695312 23.609375 -20.46875 C 23.679688 -20.25 23.769531 -20.023438 23.875 -19.796875 C 23.988281 -19.578125 24.085938 -19.351562 24.171875 -19.125 C 24.242188 -18.863281 24.328125 -18.617188 24.421875 -18.390625 C 24.515625 -18.171875 24.613281 -17.953125 24.71875 -17.734375 C 24.800781 -17.503906 24.867188 -17.269531 24.921875 -17.03125 C 24.972656 -16.789062 25.054688 -16.539062 25.171875 -16.28125 C 25.242188 -16.050781 25.328125 -15.820312 25.421875 -15.59375 C 25.515625 -15.375 25.597656 -15.15625 25.671875 -14.9375 C 25.785156 -14.707031 25.894531 -14.476562 26 -14.25 C 26.113281 -14.03125 26.226562 -13.8125 26.34375 -13.59375 C 26.414062 -13.363281 26.476562 -13.117188 26.53125 -12.859375 C 26.59375 -12.597656 26.679688 -12.359375 26.796875 -12.140625 C 26.867188 -11.953125 26.957031 -11.734375 27.0625 -11.484375 C 27.175781 -11.242188 27.289062 -10.992188 27.40625 -10.734375 C 27.476562 -10.515625 27.578125 -10.289062 27.703125 -10.0625 C 27.835938 -9.84375 27.945312 -9.601562 28.03125 -9.34375 C 28.132812 -9.113281 28.203125 -8.878906 28.234375 -8.640625 C 28.273438 -8.398438 28.351562 -8.148438 28.46875 -7.890625 C 28.582031 -7.660156 28.6875 -7.425781 28.78125 -7.1875 C 28.875 -6.945312 28.957031 -6.710938 29.03125 -6.484375 C 29.144531 -6.222656 29.265625 -5.976562 29.390625 -5.75 C 29.523438 -5.53125 29.648438 -5.3125 29.765625 -5.09375 C 29.835938 -4.832031 29.910156 -4.578125 29.984375 -4.328125 C 30.054688 -4.085938 30.128906 -3.859375 30.203125 -3.640625 C 30.316406 -3.378906 30.410156 -3.125 30.484375 -2.875 C 30.554688 -2.632812 30.648438 -2.40625 30.765625 -2.1875 C 30.953125 -1.625 30.972656 -1.175781 30.828125 -0.84375 C 30.710938 -0.539062 30.335938 -0.332031 29.703125 -0.21875 C 29.515625 -0.1875 29.300781 -0.148438 29.0625 -0.109375 C 28.820312 -0.078125 28.566406 -0.0625 28.296875 -0.0625 C 28.035156 -0.0625 27.785156 -0.0664062 27.546875 -0.078125 C 27.304688 -0.0976562 27.09375 -0.09375 26.90625 -0.0625 C 26.269531 -0.0625 25.84375 -0.148438 25.625 -0.328125 C 25.46875 -0.410156 25.320312 -0.535156 25.1875 -0.703125 C 25.0625 -0.867188 24.960938 -1.117188 24.890625 -1.453125 C 24.859375 -1.640625 24.796875 -1.832031 24.703125 -2.03125 C 24.609375 -2.238281 24.503906 -2.457031 24.390625 -2.6875 C 24.273438 -2.875 24.179688 -3.078125 24.109375 -3.296875 C 24.035156 -3.523438 23.941406 -3.734375 23.828125 -3.921875 C 23.679688 -4.109375 23.539062 -4.289062 23.40625 -4.46875 C 23.28125 -4.65625 23.160156 -4.84375 23.046875 -5.03125 C 22.816406 -5.363281 22.710938 -5.613281 22.734375 -5.78125 C 22.753906 -5.957031 22.613281 -6.117188 22.3125 -6.265625 C 21.945312 -6.410156 21.695312 -6.445312 21.5625 -6.375 C 21.4375 -6.300781 21.128906 -6.265625 20.640625 -6.265625 C 20.421875 -6.304688 20.160156 -6.332031 19.859375 -6.34375 C 19.554688 -6.363281 19.273438 -6.375 19.015625 -6.375 C 18.722656 -6.375 18.4375 -6.351562 18.15625 -6.3125 C 17.875 -6.28125 17.601562 -6.265625 17.34375 -6.265625 C 17.113281 -6.222656 16.867188 -6.203125 16.609375 -6.203125 C 16.347656 -6.203125 16.085938 -6.203125 15.828125 -6.203125 C 15.566406 -6.203125 15.316406 -6.203125 15.078125 -6.203125 C 14.835938 -6.203125 14.582031 -6.203125 14.3125 -6.203125 C 14.050781 -6.203125 13.800781 -6.191406 13.5625 -6.171875 C 13.320312 -6.160156 13.070312 -6.15625 12.8125 -6.15625 C 12.550781 -6.15625 12.296875 -6.179688 12.046875 -6.234375 C 11.804688 -6.296875 11.554688 -6.328125 11.296875 -6.328125 Z M 12.03125 -13.8125 C 11.914062 -13.550781 11.800781 -13.300781 11.6875 -13.0625 C 11.570312 -12.820312 11.476562 -12.585938 11.40625 -12.359375 C 11.664062 -12.359375 11.9375 -12.359375 12.21875 -12.359375 C 12.5 -12.359375 12.769531 -12.359375 13.03125 -12.359375 C 13.289062 -12.359375 13.550781 -12.367188 13.8125 -12.390625 C 14.070312 -12.410156 14.332031 -12.421875 14.59375 -12.421875 C 14.851562 -12.421875 15.113281 -12.421875 15.375 -12.421875 C 15.644531 -12.421875 15.910156 -12.421875 16.171875 -12.421875 C 16.390625 -12.421875 16.628906 -12.398438 16.890625 -12.359375 C 17.148438 -12.328125 17.410156 -12.3125 17.671875 -12.3125 C 17.929688 -12.3125 18.191406 -12.3125 18.453125 -12.3125 C 18.710938 -12.3125 18.976562 -12.3125 19.25 -12.3125 C 19.507812 -12.3125 19.757812 -12.328125 20 -12.359375 C 20.238281 -12.398438 20.488281 -12.421875 20.75 -12.421875 C 20.675781 -12.640625 20.582031 -12.859375 20.46875 -13.078125 C 20.363281 -13.304688 20.253906 -13.535156 20.140625 -13.765625 C 20.023438 -14.023438 19.9375 -14.285156 19.875 -14.546875 C 19.820312 -14.804688 19.757812 -15.046875 19.6875 -15.265625 C 19.570312 -15.492188 19.445312 -15.71875 19.3125 -15.9375 C 19.1875 -16.164062 19.085938 -16.410156 19.015625 -16.671875 C 18.898438 -16.890625 18.796875 -17.117188 18.703125 -17.359375 C 18.617188 -17.609375 18.519531 -17.84375 18.40625 -18.0625 C 18.289062 -18.289062 18.195312 -18.523438 18.125 -18.765625 C 18.050781 -19.003906 17.957031 -19.253906 17.84375 -19.515625 C 17.726562 -19.742188 17.625 -19.976562 17.53125 -20.21875 C 17.4375 -20.457031 17.335938 -20.691406 17.234375 -20.921875 C 17.117188 -21.140625 16.976562 -21.351562 16.8125 -21.5625 C 16.644531 -21.769531 16.503906 -21.984375 16.390625 -22.203125 C 16.273438 -22.429688 16.160156 -22.675781 16.046875 -22.9375 C 15.941406 -23.195312 15.8125 -23.4375 15.65625 -23.65625 C 15.582031 -23.4375 15.488281 -23.195312 15.375 -22.9375 C 15.269531 -22.675781 15.160156 -22.429688 15.046875 -22.203125 C 14.972656 -21.984375 14.925781 -21.742188 14.90625 -21.484375 C 14.882812 -21.222656 14.820312 -20.976562 14.71875 -20.75 C 14.632812 -20.488281 14.519531 -20.253906 14.375 -20.046875 C 14.226562 -19.847656 14.117188 -19.632812 14.046875 -19.40625 C 13.960938 -19.1875 13.875 -18.953125 13.78125 -18.703125 C 13.695312 -18.460938 13.613281 -18.234375 13.53125 -18.015625 C 13.457031 -17.785156 13.375 -17.550781 13.28125 -17.3125 C 13.1875 -17.070312 13.085938 -16.835938 12.984375 -16.609375 C 12.898438 -16.390625 12.820312 -16.15625 12.75 -15.90625 C 12.675781 -15.664062 12.601562 -15.4375 12.53125 -15.21875 C 12.414062 -14.988281 12.320312 -14.753906 12.25 -14.515625 C 12.175781 -14.273438 12.101562 -14.039062 12.03125 -13.8125 Z M 12.03125 -13.8125 "/></g></g></g><g fill="#291b25" fill-opacity="1"><g transform="translate(193.797529, 201.251846)"><g><path d="M 10.859375 -20.640625 C 10.515625 -20.679688 10.359375 -20.539062 10.390625 -20.21875 C 10.429688 -19.90625 10.4375 -19.582031 10.40625 -19.25 C 10.40625 -18.945312 10.40625 -18.664062 10.40625 -18.40625 C 10.40625 -18.144531 10.40625 -17.882812 10.40625 -17.625 C 10.40625 -17.363281 10.40625 -17.09375 10.40625 -16.8125 C 10.40625 -16.53125 10.421875 -16.273438 10.453125 -16.046875 C 10.453125 -15.753906 10.460938 -15.476562 10.484375 -15.21875 C 10.503906 -14.957031 10.515625 -14.695312 10.515625 -14.4375 C 10.515625 -14.175781 10.492188 -13.90625 10.453125 -13.625 C 10.421875 -13.34375 10.40625 -13.070312 10.40625 -12.8125 C 10.40625 -12.550781 10.394531 -12.289062 10.375 -12.03125 C 10.351562 -11.769531 10.34375 -11.488281 10.34375 -11.1875 C 10.34375 -10.96875 10.34375 -10.71875 10.34375 -10.4375 C 10.34375 -10.15625 10.34375 -9.882812 10.34375 -9.625 C 10.382812 -9.363281 10.40625 -9.101562 10.40625 -8.84375 C 10.40625 -8.582031 10.40625 -8.300781 10.40625 -8 C 10.40625 -7.738281 10.40625 -7.476562 10.40625 -7.21875 C 10.40625 -6.957031 10.40625 -6.675781 10.40625 -6.375 C 10.40625 -6.1875 10.410156 -5.972656 10.421875 -5.734375 C 10.441406 -5.492188 10.453125 -5.242188 10.453125 -4.984375 C 10.453125 -4.753906 10.460938 -4.519531 10.484375 -4.28125 C 10.503906 -4.039062 10.515625 -3.804688 10.515625 -3.578125 C 10.515625 -3.316406 10.515625 -3.066406 10.515625 -2.828125 C 10.515625 -2.585938 10.515625 -2.375 10.515625 -2.1875 C 10.515625 -1.476562 10.40625 -0.972656 10.1875 -0.671875 C 9.925781 -0.296875 9.492188 -0.0507812 8.890625 0.0625 C 8.671875 0.132812 8.4375 0.1875 8.1875 0.21875 C 7.945312 0.257812 7.679688 0.28125 7.390625 0.28125 C 6.785156 0.238281 6.296875 0.179688 5.921875 0.109375 C 5.367188 -0.0351562 4.960938 -0.316406 4.703125 -0.734375 C 4.472656 -1.097656 4.378906 -1.5625 4.421875 -2.125 C 4.421875 -2.382812 4.421875 -2.644531 4.421875 -2.90625 C 4.421875 -3.164062 4.421875 -3.425781 4.421875 -3.6875 C 4.421875 -3.945312 4.421875 -4.195312 4.421875 -4.4375 C 4.421875 -4.6875 4.421875 -4.941406 4.421875 -5.203125 C 4.421875 -5.460938 4.4375 -5.722656 4.46875 -5.984375 C 4.507812 -6.242188 4.53125 -6.503906 4.53125 -6.765625 C 4.53125 -7.023438 4.5 -7.285156 4.4375 -7.546875 C 4.382812 -7.804688 4.359375 -8.066406 4.359375 -8.328125 C 4.359375 -8.585938 4.382812 -8.847656 4.4375 -9.109375 C 4.5 -9.378906 4.53125 -9.644531 4.53125 -9.90625 C 4.53125 -10.164062 4.519531 -10.425781 4.5 -10.6875 C 4.476562 -10.945312 4.46875 -11.207031 4.46875 -11.46875 C 4.46875 -11.726562 4.476562 -11.988281 4.5 -12.25 C 4.519531 -12.507812 4.53125 -12.753906 4.53125 -12.984375 C 4.53125 -13.242188 4.53125 -13.503906 4.53125 -13.765625 C 4.53125 -14.023438 4.53125 -14.285156 4.53125 -14.546875 C 4.53125 -14.765625 4.519531 -15.003906 4.5 -15.265625 C 4.476562 -15.523438 4.46875 -15.785156 4.46875 -16.046875 C 4.46875 -16.273438 4.476562 -16.519531 4.5 -16.78125 C 4.519531 -17.039062 4.53125 -17.300781 4.53125 -17.5625 C 4.53125 -17.789062 4.53125 -18.023438 4.53125 -18.265625 C 4.53125 -18.503906 4.53125 -18.753906 4.53125 -19.015625 C 4.53125 -19.273438 4.5 -19.523438 4.4375 -19.765625 C 4.382812 -20.015625 4.359375 -20.269531 4.359375 -20.53125 C 4.359375 -20.789062 4.367188 -21.039062 4.390625 -21.28125 C 4.410156 -21.519531 4.421875 -21.773438 4.421875 -22.046875 C 4.421875 -22.304688 4.425781 -22.554688 4.4375 -22.796875 C 4.457031 -23.035156 4.46875 -23.285156 4.46875 -23.546875 C 4.46875 -23.773438 4.46875 -24.019531 4.46875 -24.28125 C 4.46875 -24.539062 4.46875 -24.800781 4.46875 -25.0625 C 4.46875 -25.28125 4.445312 -25.519531 4.40625 -25.78125 C 4.375 -26.039062 4.359375 -26.304688 4.359375 -26.578125 C 4.359375 -26.835938 4.359375 -27.085938 4.359375 -27.328125 C 4.359375 -27.566406 4.359375 -27.816406 4.359375 -28.078125 C 4.359375 -28.335938 4.347656 -28.585938 4.328125 -28.828125 C 4.316406 -29.078125 4.3125 -29.332031 4.3125 -29.59375 C 4.3125 -29.851562 4.335938 -30.101562 4.390625 -30.34375 C 4.441406 -30.582031 4.46875 -30.832031 4.46875 -31.09375 C 4.46875 -31.363281 4.46875 -31.617188 4.46875 -31.859375 C 4.46875 -32.097656 4.46875 -32.347656 4.46875 -32.609375 C 4.46875 -32.835938 4.445312 -33.082031 4.40625 -33.34375 C 4.375 -33.601562 4.378906 -33.84375 4.421875 -34.0625 C 4.421875 -34.582031 4.457031 -34.925781 4.53125 -35.09375 C 4.601562 -35.269531 4.789062 -35.359375 5.09375 -35.359375 C 5.28125 -35.390625 5.507812 -35.394531 5.78125 -35.375 C 6.0625 -35.363281 6.410156 -35.359375 6.828125 -35.359375 C 7.535156 -35.359375 8.078125 -35.335938 8.453125 -35.296875 C 9.046875 -35.253906 9.507812 -35.085938 9.84375 -34.796875 C 10.144531 -34.535156 10.441406 -34.125 10.734375 -33.5625 C 10.890625 -33.34375 11.019531 -33.117188 11.125 -32.890625 C 11.238281 -32.671875 11.367188 -32.445312 11.515625 -32.21875 C 11.628906 -32 11.769531 -31.796875 11.9375 -31.609375 C 12.101562 -31.421875 12.242188 -31.210938 12.359375 -30.984375 C 12.515625 -30.765625 12.644531 -30.539062 12.75 -30.3125 C 12.863281 -30.09375 12.976562 -29.867188 13.09375 -29.640625 C 13.238281 -29.421875 13.394531 -29.21875 13.5625 -29.03125 C 13.726562 -28.84375 13.890625 -28.640625 14.046875 -28.421875 C 14.148438 -28.234375 14.257812 -28.015625 14.375 -27.765625 C 14.488281 -27.523438 14.617188 -27.296875 14.765625 -27.078125 C 14.878906 -26.890625 15 -26.679688 15.125 -26.453125 C 15.257812 -26.234375 15.398438 -26.007812 15.546875 -25.78125 C 15.703125 -25.5625 15.832031 -25.335938 15.9375 -25.109375 C 16.050781 -24.890625 16.179688 -24.664062 16.328125 -24.4375 C 16.441406 -24.21875 16.5625 -24.003906 16.6875 -23.796875 C 16.820312 -23.597656 16.945312 -23.382812 17.0625 -23.15625 C 17.207031 -22.9375 17.34375 -22.710938 17.46875 -22.484375 C 17.601562 -22.265625 17.75 -22.039062 17.90625 -21.8125 C 18.050781 -21.625 18.207031 -21.425781 18.375 -21.21875 C 18.539062 -21.019531 18.679688 -20.804688 18.796875 -20.578125 C 18.941406 -20.398438 19.0625 -20.1875 19.15625 -19.9375 C 19.25 -19.695312 19.367188 -19.46875 19.515625 -19.25 C 19.628906 -19.019531 19.757812 -18.800781 19.90625 -18.59375 C 20.0625 -18.394531 20.195312 -18.179688 20.3125 -17.953125 C 20.457031 -17.734375 20.613281 -17.53125 20.78125 -17.34375 C 20.945312 -17.15625 21.085938 -16.945312 21.203125 -16.71875 C 21.316406 -16.570312 21.445312 -16.347656 21.59375 -16.046875 C 21.738281 -15.753906 21.90625 -15.476562 22.09375 -15.21875 C 22.28125 -14.914062 22.472656 -14.648438 22.671875 -14.421875 C 22.878906 -14.203125 23.097656 -14.078125 23.328125 -14.046875 C 23.359375 -14.046875 23.394531 -14.53125 23.4375 -15.5 C 23.476562 -15.71875 23.503906 -15.945312 23.515625 -16.1875 C 23.535156 -16.4375 23.546875 -16.707031 23.546875 -17 C 23.546875 -17.226562 23.554688 -17.460938 23.578125 -17.703125 C 23.597656 -17.941406 23.609375 -18.191406 23.609375 -18.453125 C 23.640625 -18.679688 23.644531 -18.914062 23.625 -19.15625 C 23.613281 -19.394531 23.609375 -19.644531 23.609375 -19.90625 C 23.609375 -20.175781 23.609375 -20.429688 23.609375 -20.671875 C 23.609375 -20.910156 23.625 -21.160156 23.65625 -21.421875 C 23.65625 -21.648438 23.675781 -21.894531 23.71875 -22.15625 C 23.757812 -22.414062 23.78125 -22.65625 23.78125 -22.875 C 23.78125 -23.132812 23.75 -23.382812 23.6875 -23.625 C 23.632812 -23.875 23.609375 -24.128906 23.609375 -24.390625 C 23.609375 -24.648438 23.632812 -24.898438 23.6875 -25.140625 C 23.75 -25.378906 23.78125 -25.632812 23.78125 -25.90625 C 23.78125 -26.125 23.769531 -26.363281 23.75 -26.625 C 23.726562 -26.882812 23.71875 -27.128906 23.71875 -27.359375 C 23.71875 -27.617188 23.726562 -27.867188 23.75 -28.109375 C 23.769531 -28.347656 23.78125 -28.597656 23.78125 -28.859375 C 23.78125 -29.117188 23.757812 -29.367188 23.71875 -29.609375 C 23.675781 -29.859375 23.65625 -30.113281 23.65625 -30.375 C 23.65625 -30.59375 23.675781 -30.832031 23.71875 -31.09375 C 23.757812 -31.363281 23.78125 -31.609375 23.78125 -31.828125 C 23.78125 -32.085938 23.78125 -32.335938 23.78125 -32.578125 C 23.78125 -32.828125 23.78125 -33.082031 23.78125 -33.34375 C 23.78125 -33.601562 23.796875 -33.84375 23.828125 -34.0625 C 23.867188 -34.289062 23.890625 -34.515625 23.890625 -34.734375 C 24.179688 -34.804688 24.429688 -34.890625 24.640625 -34.984375 C 24.847656 -35.078125 25.0625 -35.144531 25.28125 -35.1875 C 25.539062 -35.21875 25.789062 -35.242188 26.03125 -35.265625 C 26.28125 -35.285156 26.515625 -35.296875 26.734375 -35.296875 C 27.035156 -35.335938 27.304688 -35.363281 27.546875 -35.375 C 27.785156 -35.394531 28 -35.367188 28.1875 -35.296875 C 28.707031 -35.109375 29.082031 -34.753906 29.3125 -34.234375 C 29.425781 -33.898438 29.519531 -33.414062 29.59375 -32.78125 C 29.59375 -32.59375 29.582031 -32.375 29.5625 -32.125 C 29.539062 -31.882812 29.53125 -31.617188 29.53125 -31.328125 C 29.53125 -31.097656 29.519531 -30.851562 29.5 -30.59375 C 29.488281 -30.332031 29.484375 -30.070312 29.484375 -29.8125 C 29.484375 -29.59375 29.5 -29.351562 29.53125 -29.09375 C 29.570312 -28.832031 29.59375 -28.566406 29.59375 -28.296875 C 29.59375 -28.035156 29.5625 -27.785156 29.5 -27.546875 C 29.445312 -27.304688 29.421875 -27.054688 29.421875 -26.796875 C 29.390625 -26.535156 29.398438 -26.28125 29.453125 -26.03125 C 29.503906 -25.789062 29.53125 -25.539062 29.53125 -25.28125 C 29.53125 -25.019531 29.519531 -24.769531 29.5 -24.53125 C 29.488281 -24.289062 29.484375 -24.039062 29.484375 -23.78125 C 29.441406 -23.507812 29.410156 -23.253906 29.390625 -23.015625 C 29.378906 -22.773438 29.375 -22.523438 29.375 -22.265625 C 29.375 -22.003906 29.375 -21.75 29.375 -21.5 C 29.375 -21.257812 29.375 -21.007812 29.375 -20.75 C 29.375 -20.488281 29.378906 -20.238281 29.390625 -20 C 29.410156 -19.757812 29.421875 -19.507812 29.421875 -19.25 C 29.421875 -18.976562 29.421875 -18.722656 29.421875 -18.484375 C 29.421875 -18.242188 29.421875 -17.992188 29.421875 -17.734375 C 29.390625 -17.472656 29.351562 -17.21875 29.3125 -16.96875 C 29.269531 -16.726562 29.25 -16.476562 29.25 -16.21875 C 29.21875 -15.957031 29.21875 -15.695312 29.25 -15.4375 C 29.289062 -15.175781 29.3125 -14.9375 29.3125 -14.71875 C 29.3125 -14.445312 29.3125 -14.179688 29.3125 -13.921875 C 29.3125 -13.660156 29.289062 -13.398438 29.25 -13.140625 C 29.25 -12.878906 29.226562 -12.628906 29.1875 -12.390625 C 29.15625 -12.148438 29.140625 -11.898438 29.140625 -11.640625 C 29.140625 -11.378906 29.15625 -11.125 29.1875 -10.875 C 29.226562 -10.632812 29.234375 -10.382812 29.203125 -10.125 C 29.203125 -9.863281 29.179688 -9.601562 29.140625 -9.34375 C 29.109375 -9.082031 29.09375 -8.835938 29.09375 -8.609375 C 29.09375 -8.347656 29.09375 -8.085938 29.09375 -7.828125 C 29.09375 -7.566406 29.09375 -7.328125 29.09375 -7.109375 C 29.050781 -6.847656 29.046875 -6.582031 29.078125 -6.3125 C 29.117188 -6.050781 29.140625 -5.8125 29.140625 -5.59375 C 29.140625 -5.332031 29.109375 -5.070312 29.046875 -4.8125 C 28.992188 -4.550781 28.96875 -4.304688 28.96875 -4.078125 C 28.96875 -3.816406 28.96875 -3.554688 28.96875 -3.296875 C 28.96875 -3.035156 28.96875 -2.796875 28.96875 -2.578125 C 28.96875 -1.972656 28.929688 -1.488281 28.859375 -1.125 C 28.785156 -0.5625 28.507812 -0.222656 28.03125 -0.109375 C 27.726562 -0.0351562 27.242188 0 26.578125 0 C 26.273438 0 25.992188 -0.0078125 25.734375 -0.03125 C 25.472656 -0.0507812 25.226562 -0.0976562 25 -0.171875 C 24.550781 -0.316406 24.085938 -0.578125 23.609375 -0.953125 C 23.191406 -1.285156 22.835938 -1.65625 22.546875 -2.0625 C 22.390625 -2.25 22.253906 -2.460938 22.140625 -2.703125 C 22.035156 -2.953125 21.910156 -3.207031 21.765625 -3.46875 C 21.609375 -3.6875 21.445312 -3.890625 21.28125 -4.078125 C 21.113281 -4.265625 20.972656 -4.472656 20.859375 -4.703125 C 20.710938 -4.921875 20.582031 -5.148438 20.46875 -5.390625 C 20.363281 -5.640625 20.234375 -5.859375 20.078125 -6.046875 C 19.929688 -6.265625 19.789062 -6.484375 19.65625 -6.703125 C 19.53125 -6.929688 19.394531 -7.140625 19.25 -7.328125 C 19.09375 -7.546875 18.945312 -7.765625 18.8125 -7.984375 C 18.6875 -8.210938 18.550781 -8.441406 18.40625 -8.671875 C 18.289062 -8.890625 18.15625 -9.101562 18 -9.3125 C 17.851562 -9.519531 17.707031 -9.734375 17.5625 -9.953125 C 17.414062 -10.140625 17.25 -10.328125 17.0625 -10.515625 C 16.875 -10.703125 16.722656 -10.90625 16.609375 -11.125 C 16.460938 -11.351562 16.332031 -11.578125 16.21875 -11.796875 C 16.101562 -12.023438 15.972656 -12.25 15.828125 -12.46875 C 15.710938 -12.695312 15.585938 -12.921875 15.453125 -13.140625 C 15.328125 -13.367188 15.191406 -13.59375 15.046875 -13.8125 C 14.929688 -14 14.789062 -14.195312 14.625 -14.40625 C 14.457031 -14.613281 14.316406 -14.847656 14.203125 -15.109375 C 14.097656 -15.296875 14 -15.519531 13.90625 -15.78125 C 13.8125 -16.039062 13.6875 -16.300781 13.53125 -16.5625 C 13.382812 -16.78125 13.253906 -17.019531 13.140625 -17.28125 C 13.035156 -17.539062 12.925781 -17.785156 12.8125 -18.015625 C 12.664062 -18.273438 12.503906 -18.503906 12.328125 -18.703125 C 12.160156 -18.910156 12.003906 -19.128906 11.859375 -19.359375 C 11.628906 -19.691406 11.429688 -19.976562 11.265625 -20.21875 C 11.097656 -20.457031 10.960938 -20.597656 10.859375 -20.640625 Z M 10.859375 -20.640625 "/></g></g></g><g fill="#291b25" fill-opacity="1"><g transform="translate(227.524102, 201.251846)"><g><path d="M 25.5625 -12.25 C 25.601562 -12.507812 25.660156 -12.769531 25.734375 -13.03125 C 25.804688 -13.289062 25.863281 -13.550781 25.90625 -13.8125 C 25.601562 -13.8125 25.300781 -13.789062 25 -13.75 C 24.707031 -13.71875 24.445312 -13.703125 24.21875 -13.703125 C 23.882812 -13.703125 23.578125 -13.703125 23.296875 -13.703125 C 23.015625 -13.703125 22.742188 -13.703125 22.484375 -13.703125 C 22.222656 -13.703125 21.953125 -13.710938 21.671875 -13.734375 C 21.390625 -13.753906 21.101562 -13.765625 20.8125 -13.765625 C 20.582031 -13.765625 20.328125 -13.800781 20.046875 -13.875 C 19.773438 -13.945312 19.46875 -13.984375 19.125 -13.984375 C 18.90625 -13.984375 18.664062 -13.972656 18.40625 -13.953125 C 18.144531 -13.929688 17.882812 -13.941406 17.625 -13.984375 C 17.0625 -14.054688 16.59375 -14.222656 16.21875 -14.484375 C 15.738281 -14.859375 15.460938 -15.25 15.390625 -15.65625 C 15.347656 -15.914062 15.328125 -16.175781 15.328125 -16.4375 C 15.328125 -16.707031 15.328125 -16.953125 15.328125 -17.171875 C 15.328125 -17.359375 15.378906 -17.582031 15.484375 -17.84375 C 15.597656 -18.101562 15.695312 -18.347656 15.78125 -18.578125 C 15.851562 -18.867188 15.941406 -19.125 16.046875 -19.34375 C 16.160156 -19.570312 16.332031 -19.6875 16.5625 -19.6875 C 16.78125 -19.6875 17.007812 -19.675781 17.25 -19.65625 C 17.5 -19.644531 17.753906 -19.640625 18.015625 -19.640625 C 18.273438 -19.640625 18.523438 -19.65625 18.765625 -19.6875 C 19.003906 -19.726562 19.238281 -19.765625 19.46875 -19.796875 C 19.726562 -19.796875 19.976562 -19.804688 20.21875 -19.828125 C 20.457031 -19.847656 20.691406 -19.875 20.921875 -19.90625 C 21.179688 -19.90625 21.429688 -19.882812 21.671875 -19.84375 C 21.921875 -19.8125 22.15625 -19.796875 22.375 -19.796875 C 22.632812 -19.796875 22.882812 -19.773438 23.125 -19.734375 C 23.375 -19.703125 23.609375 -19.6875 23.828125 -19.6875 C 24.054688 -19.6875 24.289062 -19.6875 24.53125 -19.6875 C 24.769531 -19.6875 25.019531 -19.671875 25.28125 -19.640625 C 25.507812 -19.640625 25.742188 -19.640625 25.984375 -19.640625 C 26.222656 -19.640625 26.472656 -19.640625 26.734375 -19.640625 C 26.960938 -19.597656 27.195312 -19.585938 27.4375 -19.609375 C 27.675781 -19.628906 27.925781 -19.617188 28.1875 -19.578125 C 28.414062 -19.578125 28.648438 -19.585938 28.890625 -19.609375 C 29.128906 -19.628906 29.378906 -19.617188 29.640625 -19.578125 C 29.898438 -19.578125 30.140625 -19.519531 30.359375 -19.40625 C 30.585938 -19.300781 30.796875 -19.191406 30.984375 -19.078125 C 31.210938 -18.960938 31.421875 -18.828125 31.609375 -18.671875 C 31.796875 -18.523438 31.941406 -18.34375 32.046875 -18.125 C 32.273438 -17.75 32.445312 -17.28125 32.5625 -16.71875 C 32.59375 -16.5 32.597656 -16.265625 32.578125 -16.015625 C 32.566406 -15.773438 32.5625 -15.546875 32.5625 -15.328125 C 32.5625 -15.066406 32.566406 -14.8125 32.578125 -14.5625 C 32.597656 -14.320312 32.59375 -14.070312 32.5625 -13.8125 C 32.5625 -13.59375 32.53125 -13.359375 32.46875 -13.109375 C 32.414062 -12.867188 32.367188 -12.617188 32.328125 -12.359375 C 32.296875 -12.140625 32.257812 -11.90625 32.21875 -11.65625 C 32.1875 -11.414062 32.148438 -11.164062 32.109375 -10.90625 C 32.035156 -10.6875 31.957031 -10.453125 31.875 -10.203125 C 31.800781 -9.960938 31.726562 -9.734375 31.65625 -9.515625 C 31.582031 -9.285156 31.523438 -9.050781 31.484375 -8.8125 C 31.453125 -8.570312 31.378906 -8.335938 31.265625 -8.109375 C 31.148438 -7.847656 31.007812 -7.625 30.84375 -7.4375 C 30.675781 -7.25 30.539062 -7.0625 30.4375 -6.875 C 30.320312 -6.65625 30.21875 -6.421875 30.125 -6.171875 C 30.03125 -5.929688 29.925781 -5.71875 29.8125 -5.53125 C 29.664062 -5.3125 29.507812 -5.117188 29.34375 -4.953125 C 29.175781 -4.785156 29 -4.609375 28.8125 -4.421875 C 28.65625 -4.234375 28.484375 -4.054688 28.296875 -3.890625 C 28.117188 -3.722656 27.9375 -3.5625 27.75 -3.40625 C 27.5625 -3.21875 27.390625 -3.03125 27.234375 -2.84375 C 27.085938 -2.664062 26.921875 -2.5 26.734375 -2.34375 C 26.515625 -2.195312 26.300781 -2.054688 26.09375 -1.921875 C 25.882812 -1.796875 25.6875 -1.660156 25.5 -1.515625 C 25.28125 -1.398438 25.046875 -1.296875 24.796875 -1.203125 C 24.554688 -1.109375 24.328125 -1.023438 24.109375 -0.953125 C 23.890625 -0.835938 23.675781 -0.703125 23.46875 -0.546875 C 23.257812 -0.398438 23.046875 -0.289062 22.828125 -0.21875 C 22.597656 -0.113281 22.363281 -0.0351562 22.125 0.015625 C 21.882812 0.078125 21.648438 0.144531 21.421875 0.21875 C 21.203125 0.289062 20.960938 0.328125 20.703125 0.328125 C 20.441406 0.328125 20.195312 0.347656 19.96875 0.390625 C 19.707031 0.429688 19.460938 0.488281 19.234375 0.5625 C 19.015625 0.632812 18.773438 0.691406 18.515625 0.734375 C 18.253906 0.734375 18 0.722656 17.75 0.703125 C 17.507812 0.679688 17.28125 0.671875 17.0625 0.671875 C 16.800781 0.671875 16.546875 0.679688 16.296875 0.703125 C 16.054688 0.722656 15.804688 0.710938 15.546875 0.671875 C 15.285156 0.628906 15.035156 0.582031 14.796875 0.53125 C 14.554688 0.476562 14.320312 0.429688 14.09375 0.390625 C 13.832031 0.316406 13.582031 0.234375 13.34375 0.140625 C 13.101562 0.046875 12.867188 -0.0351562 12.640625 -0.109375 C 12.421875 -0.179688 12.1875 -0.265625 11.9375 -0.359375 C 11.695312 -0.453125 11.46875 -0.554688 11.25 -0.671875 C 11.019531 -0.785156 10.800781 -0.914062 10.59375 -1.0625 C 10.394531 -1.207031 10.179688 -1.335938 9.953125 -1.453125 C 9.765625 -1.597656 9.566406 -1.753906 9.359375 -1.921875 C 9.160156 -2.097656 8.96875 -2.257812 8.78125 -2.40625 C 8.59375 -2.550781 8.40625 -2.707031 8.21875 -2.875 C 8.03125 -3.039062 7.84375 -3.21875 7.65625 -3.40625 C 7.476562 -3.59375 7.320312 -3.789062 7.1875 -4 C 7.0625 -4.207031 6.921875 -4.40625 6.765625 -4.59375 C 6.617188 -4.8125 6.46875 -5.015625 6.3125 -5.203125 C 6.164062 -5.390625 6.019531 -5.59375 5.875 -5.8125 C 5.757812 -6.039062 5.65625 -6.273438 5.5625 -6.515625 C 5.46875 -6.753906 5.382812 -6.988281 5.3125 -7.21875 C 5.195312 -7.4375 5.066406 -7.648438 4.921875 -7.859375 C 4.773438 -8.066406 4.644531 -8.300781 4.53125 -8.5625 C 4.457031 -8.78125 4.410156 -9.019531 4.390625 -9.28125 C 4.367188 -9.539062 4.320312 -9.785156 4.25 -10.015625 C 4.175781 -10.234375 4.101562 -10.460938 4.03125 -10.703125 C 3.957031 -10.953125 3.878906 -11.1875 3.796875 -11.40625 C 3.722656 -11.851562 3.632812 -12.335938 3.53125 -12.859375 C 3.488281 -13.117188 3.4375 -13.367188 3.375 -13.609375 C 3.320312 -13.859375 3.28125 -14.09375 3.25 -14.3125 C 3.207031 -14.582031 3.15625 -14.835938 3.09375 -15.078125 C 3.039062 -15.316406 3.015625 -15.566406 3.015625 -15.828125 C 3.015625 -16.054688 3.023438 -16.300781 3.046875 -16.5625 C 3.066406 -16.820312 3.078125 -17.0625 3.078125 -17.28125 C 3.078125 -17.539062 3.09375 -17.789062 3.125 -18.03125 C 3.164062 -18.28125 3.1875 -18.535156 3.1875 -18.796875 C 3.226562 -19.015625 3.25 -19.242188 3.25 -19.484375 C 3.25 -19.734375 3.25 -19.988281 3.25 -20.25 C 3.28125 -20.507812 3.304688 -20.757812 3.328125 -21 C 3.347656 -21.25 3.375 -21.484375 3.40625 -21.703125 C 3.445312 -21.960938 3.484375 -22.210938 3.515625 -22.453125 C 3.554688 -22.703125 3.597656 -22.957031 3.640625 -23.21875 C 3.710938 -23.4375 3.796875 -23.664062 3.890625 -23.90625 C 3.984375 -24.15625 4.046875 -24.390625 4.078125 -24.609375 C 4.160156 -24.835938 4.226562 -25.070312 4.28125 -25.3125 C 4.332031 -25.550781 4.394531 -25.800781 4.46875 -26.0625 C 4.550781 -26.289062 4.609375 -26.523438 4.640625 -26.765625 C 4.679688 -27.003906 4.738281 -27.253906 4.8125 -27.515625 C 4.882812 -27.742188 4.976562 -27.976562 5.09375 -28.21875 C 5.207031 -28.457031 5.316406 -28.671875 5.421875 -28.859375 C 5.535156 -29.117188 5.675781 -29.34375 5.84375 -29.53125 C 6.007812 -29.71875 6.171875 -29.90625 6.328125 -30.09375 C 6.429688 -30.320312 6.546875 -30.546875 6.671875 -30.765625 C 6.804688 -30.984375 6.953125 -31.1875 7.109375 -31.375 C 7.296875 -31.5625 7.460938 -31.757812 7.609375 -31.96875 C 7.753906 -32.175781 7.921875 -32.351562 8.109375 -32.5 C 8.296875 -32.6875 8.488281 -32.851562 8.6875 -33 C 8.894531 -33.15625 9.113281 -33.285156 9.34375 -33.390625 C 9.53125 -33.546875 9.734375 -33.675781 9.953125 -33.78125 C 10.179688 -33.894531 10.40625 -34.023438 10.625 -34.171875 C 10.851562 -34.285156 11.066406 -34.414062 11.265625 -34.5625 C 11.472656 -34.71875 11.691406 -34.832031 11.921875 -34.90625 C 12.179688 -35.019531 12.429688 -35.082031 12.671875 -35.09375 C 12.910156 -35.113281 13.160156 -35.160156 13.421875 -35.234375 C 13.648438 -35.316406 13.882812 -35.375 14.125 -35.40625 C 14.363281 -35.445312 14.613281 -35.503906 14.875 -35.578125 C 15.132812 -35.609375 15.375 -35.671875 15.59375 -35.765625 C 15.820312 -35.859375 16.066406 -35.925781 16.328125 -35.96875 C 16.554688 -36.007812 16.800781 -36 17.0625 -35.9375 C 17.320312 -35.882812 17.5625 -35.875 17.78125 -35.90625 C 18.050781 -35.90625 18.304688 -35.90625 18.546875 -35.90625 C 18.785156 -35.90625 19.019531 -35.90625 19.25 -35.90625 C 19.6875 -35.875 20.171875 -35.820312 20.703125 -35.75 C 20.960938 -35.707031 21.210938 -35.675781 21.453125 -35.65625 C 21.691406 -35.632812 21.925781 -35.585938 22.15625 -35.515625 C 22.375 -35.484375 22.601562 -35.425781 22.84375 -35.34375 C 23.09375 -35.269531 23.328125 -35.195312 23.546875 -35.125 C 23.773438 -35.050781 24 -34.945312 24.21875 -34.8125 C 24.445312 -34.6875 24.65625 -34.566406 24.84375 -34.453125 C 25.0625 -34.378906 25.289062 -34.296875 25.53125 -34.203125 C 25.78125 -34.109375 25.992188 -34.003906 26.171875 -33.890625 C 26.398438 -33.785156 26.597656 -33.640625 26.765625 -33.453125 C 26.929688 -33.265625 27.128906 -33.097656 27.359375 -32.953125 C 27.546875 -32.835938 27.75 -32.722656 27.96875 -32.609375 C 28.1875 -32.492188 28.390625 -32.363281 28.578125 -32.21875 C 28.765625 -32.03125 28.941406 -31.84375 29.109375 -31.65625 C 29.285156 -31.46875 29.445312 -31.300781 29.59375 -31.15625 C 30.039062 -30.707031 30.300781 -30.296875 30.375 -29.921875 C 30.488281 -29.472656 30.453125 -28.988281 30.265625 -28.46875 C 30.191406 -28.28125 30.097656 -28.070312 29.984375 -27.84375 C 29.867188 -27.625 29.71875 -27.40625 29.53125 -27.1875 C 29.34375 -26.957031 29.144531 -26.769531 28.9375 -26.625 C 28.738281 -26.476562 28.546875 -26.347656 28.359375 -26.234375 C 28.140625 -26.085938 27.90625 -25.96875 27.65625 -25.875 C 27.414062 -25.78125 27.164062 -25.75 26.90625 -25.78125 C 26.71875 -25.820312 26.519531 -25.925781 26.3125 -26.09375 C 26.113281 -26.257812 25.882812 -26.421875 25.625 -26.578125 C 25.394531 -26.722656 25.160156 -26.847656 24.921875 -26.953125 C 24.679688 -27.066406 24.46875 -27.21875 24.28125 -27.40625 C 24.050781 -27.5625 23.84375 -27.726562 23.65625 -27.90625 C 23.46875 -28.09375 23.285156 -28.265625 23.109375 -28.421875 C 22.878906 -28.523438 22.644531 -28.613281 22.40625 -28.6875 C 22.164062 -28.769531 21.929688 -28.863281 21.703125 -28.96875 C 21.441406 -29.082031 21.207031 -29.210938 21 -29.359375 C 20.800781 -29.515625 20.585938 -29.628906 20.359375 -29.703125 C 20.097656 -29.773438 19.847656 -29.835938 19.609375 -29.890625 C 19.367188 -29.953125 19.113281 -30 18.84375 -30.03125 C 18.625 -30.070312 18.382812 -30.09375 18.125 -30.09375 C 17.863281 -30.09375 17.617188 -30.070312 17.390625 -30.03125 C 16.867188 -30.03125 16.367188 -29.957031 15.890625 -29.8125 C 15.660156 -29.78125 15.425781 -29.722656 15.1875 -29.640625 C 14.945312 -29.566406 14.710938 -29.476562 14.484375 -29.375 C 14.265625 -29.257812 14.0625 -29.117188 13.875 -28.953125 C 13.6875 -28.785156 13.476562 -28.625 13.25 -28.46875 C 13.070312 -28.320312 12.878906 -28.171875 12.671875 -28.015625 C 12.460938 -27.867188 12.285156 -27.703125 12.140625 -27.515625 C 11.953125 -27.328125 11.773438 -27.140625 11.609375 -26.953125 C 11.441406 -26.773438 11.300781 -26.570312 11.1875 -26.34375 C 11.039062 -26.15625 10.925781 -25.929688 10.84375 -25.671875 C 10.769531 -25.410156 10.679688 -25.171875 10.578125 -24.953125 C 10.492188 -24.722656 10.378906 -24.492188 10.234375 -24.265625 C 10.085938 -24.046875 9.976562 -23.828125 9.90625 -23.609375 C 9.832031 -23.347656 9.765625 -23.09375 9.703125 -22.84375 C 9.648438 -22.601562 9.585938 -22.375 9.515625 -22.15625 C 9.398438 -21.707031 9.304688 -21.203125 9.234375 -20.640625 C 9.191406 -20.378906 9.140625 -20.125 9.078125 -19.875 C 9.023438 -19.632812 8.984375 -19.382812 8.953125 -19.125 C 8.953125 -18.863281 8.953125 -18.613281 8.953125 -18.375 C 8.953125 -18.132812 8.953125 -17.882812 8.953125 -17.625 C 8.984375 -17.363281 9.023438 -17.109375 9.078125 -16.859375 C 9.140625 -16.617188 9.191406 -16.367188 9.234375 -16.109375 C 9.234375 -15.890625 9.238281 -15.644531 9.25 -15.375 C 9.269531 -15.113281 9.300781 -14.851562 9.34375 -14.59375 C 9.414062 -14.375 9.5 -14.140625 9.59375 -13.890625 C 9.6875 -13.648438 9.769531 -13.421875 9.84375 -13.203125 C 9.914062 -12.941406 10.007812 -12.695312 10.125 -12.46875 C 10.238281 -12.25 10.332031 -12.023438 10.40625 -11.796875 C 10.476562 -11.535156 10.550781 -11.285156 10.625 -11.046875 C 10.695312 -10.804688 10.789062 -10.570312 10.90625 -10.34375 C 11.09375 -9.863281 11.316406 -9.414062 11.578125 -9 C 11.691406 -8.738281 11.847656 -8.523438 12.046875 -8.359375 C 12.253906 -8.191406 12.4375 -8 12.59375 -7.78125 C 12.769531 -7.59375 12.941406 -7.40625 13.109375 -7.21875 C 13.285156 -7.03125 13.484375 -6.863281 13.703125 -6.71875 C 14.148438 -6.375 14.597656 -6.109375 15.046875 -5.921875 C 15.566406 -5.742188 16.070312 -5.613281 16.5625 -5.53125 C 16.820312 -5.5 17.082031 -5.453125 17.34375 -5.390625 C 17.601562 -5.335938 17.863281 -5.332031 18.125 -5.375 C 18.382812 -5.375 18.644531 -5.390625 18.90625 -5.421875 C 19.164062 -5.460938 19.425781 -5.519531 19.6875 -5.59375 C 19.945312 -5.632812 20.207031 -5.679688 20.46875 -5.734375 C 20.726562 -5.785156 20.988281 -5.867188 21.25 -5.984375 C 21.738281 -6.210938 22.1875 -6.472656 22.59375 -6.765625 C 22.820312 -6.953125 23.007812 -7.144531 23.15625 -7.34375 C 23.300781 -7.550781 23.46875 -7.769531 23.65625 -8 C 23.8125 -8.1875 23.953125 -8.390625 24.078125 -8.609375 C 24.210938 -8.835938 24.351562 -9.0625 24.5 -9.28125 C 24.613281 -9.507812 24.722656 -9.742188 24.828125 -9.984375 C 24.941406 -10.222656 25.054688 -10.472656 25.171875 -10.734375 C 25.242188 -10.960938 25.304688 -11.207031 25.359375 -11.46875 C 25.421875 -11.726562 25.488281 -11.988281 25.5625 -12.25 Z M 25.5625 -12.25 "/></g></g></g><g fill="#291b25" fill-opacity="1"><g transform="translate(262.872669, 201.251846)"><g><path d="M 12.3125 -29.03125 C 12.050781 -29.03125 11.785156 -29.007812 11.515625 -28.96875 C 11.253906 -28.9375 10.992188 -28.921875 10.734375 -28.921875 C 10.703125 -28.691406 10.65625 -28.460938 10.59375 -28.234375 C 10.539062 -28.015625 10.492188 -27.816406 10.453125 -27.640625 C 10.421875 -27.367188 10.40625 -27.125 10.40625 -26.90625 C 10.40625 -26.6875 10.382812 -26.460938 10.34375 -26.234375 C 10.34375 -26.015625 10.320312 -25.789062 10.28125 -25.5625 C 10.25 -25.34375 10.234375 -25.117188 10.234375 -24.890625 C 10.234375 -24.671875 10.210938 -24.4375 10.171875 -24.1875 C 10.140625 -23.945312 10.144531 -23.675781 10.1875 -23.375 C 10.1875 -23.113281 10.191406 -22.863281 10.203125 -22.625 C 10.222656 -22.382812 10.234375 -22.148438 10.234375 -21.921875 C 10.273438 -21.472656 10.226562 -21.164062 10.09375 -21 C 9.96875 -20.832031 10.035156 -20.617188 10.296875 -20.359375 C 10.515625 -20.097656 10.695312 -20.03125 10.84375 -20.15625 C 11 -20.289062 11.28125 -20.359375 11.6875 -20.359375 C 11.875 -20.359375 12.078125 -20.359375 12.296875 -20.359375 C 12.523438 -20.359375 12.769531 -20.359375 13.03125 -20.359375 C 13.257812 -20.328125 13.484375 -20.335938 13.703125 -20.390625 C 13.929688 -20.441406 14.15625 -20.453125 14.375 -20.421875 C 14.632812 -20.378906 14.894531 -20.320312 15.15625 -20.25 C 15.414062 -20.175781 15.695312 -20.140625 16 -20.140625 C 16.257812 -20.097656 16.519531 -20.09375 16.78125 -20.125 C 17.039062 -20.164062 17.320312 -20.1875 17.625 -20.1875 C 17.882812 -20.15625 18.144531 -20.128906 18.40625 -20.109375 C 18.664062 -20.085938 18.925781 -20.078125 19.1875 -20.078125 C 19.488281 -20.046875 19.769531 -20.007812 20.03125 -19.96875 C 20.289062 -19.925781 20.550781 -19.90625 20.8125 -19.90625 C 21.070312 -19.875 21.347656 -19.875 21.640625 -19.90625 C 21.941406 -19.945312 22.222656 -19.96875 22.484375 -19.96875 C 22.523438 -19.707031 22.5625 -19.453125 22.59375 -19.203125 C 22.632812 -18.960938 22.671875 -18.734375 22.703125 -18.515625 C 22.785156 -18.253906 22.816406 -18 22.796875 -17.75 C 22.773438 -17.507812 22.785156 -17.28125 22.828125 -17.0625 C 22.828125 -16.800781 22.851562 -16.546875 22.90625 -16.296875 C 22.957031 -16.054688 22.945312 -15.84375 22.875 -15.65625 C 22.757812 -15.175781 22.441406 -14.84375 21.921875 -14.65625 C 21.734375 -14.582031 21.519531 -14.546875 21.28125 -14.546875 C 21.039062 -14.546875 20.789062 -14.546875 20.53125 -14.546875 C 20.300781 -14.546875 20.070312 -14.515625 19.84375 -14.453125 C 19.625 -14.398438 19.367188 -14.375 19.078125 -14.375 C 18.847656 -14.332031 18.613281 -14.320312 18.375 -14.34375 C 18.132812 -14.363281 17.882812 -14.375 17.625 -14.375 C 17.394531 -14.375 17.160156 -14.351562 16.921875 -14.3125 C 16.679688 -14.28125 16.429688 -14.265625 16.171875 -14.265625 C 15.941406 -14.265625 15.707031 -14.269531 15.46875 -14.28125 C 15.226562 -14.300781 14.976562 -14.3125 14.71875 -14.3125 C 14.488281 -14.3125 14.253906 -14.320312 14.015625 -14.34375 C 13.773438 -14.363281 13.519531 -14.375 13.25 -14.375 C 12.988281 -14.375 12.738281 -14.363281 12.5 -14.34375 C 12.257812 -14.320312 12.023438 -14.3125 11.796875 -14.3125 C 11.535156 -14.3125 11.285156 -14.320312 11.046875 -14.34375 C 10.804688 -14.363281 10.554688 -14.375 10.296875 -14.375 C 10.179688 -13.8125 10.085938 -13.328125 10.015625 -12.921875 C 10.015625 -12.660156 10.019531 -12.40625 10.03125 -12.15625 C 10.050781 -11.914062 10.046875 -11.6875 10.015625 -11.46875 C 10.015625 -11.238281 10.003906 -11.007812 9.984375 -10.78125 C 9.960938 -10.5625 9.953125 -10.34375 9.953125 -10.125 C 9.953125 -9.863281 9.960938 -9.617188 9.984375 -9.390625 C 10.003906 -9.171875 10.03125 -8.945312 10.0625 -8.71875 C 10.0625 -8.457031 10.039062 -8.210938 10 -7.984375 C 9.96875 -7.765625 9.972656 -7.546875 10.015625 -7.328125 C 10.046875 -6.921875 10.023438 -6.660156 9.953125 -6.546875 C 9.878906 -6.429688 9.972656 -6.265625 10.234375 -6.046875 C 10.566406 -5.816406 10.789062 -5.738281 10.90625 -5.8125 C 11.019531 -5.882812 11.316406 -5.921875 11.796875 -5.921875 C 12.023438 -5.921875 12.28125 -5.921875 12.5625 -5.921875 C 12.84375 -5.921875 13.128906 -5.921875 13.421875 -5.921875 C 13.679688 -5.921875 13.941406 -5.921875 14.203125 -5.921875 C 14.460938 -5.921875 14.742188 -5.921875 15.046875 -5.921875 C 15.304688 -5.921875 15.578125 -5.929688 15.859375 -5.953125 C 16.140625 -5.972656 16.410156 -5.984375 16.671875 -5.984375 C 16.960938 -5.984375 17.238281 -6 17.5 -6.03125 C 17.769531 -6.070312 18.050781 -6.113281 18.34375 -6.15625 C 18.601562 -6.15625 18.875 -6.132812 19.15625 -6.09375 C 19.4375 -6.0625 19.726562 -6.046875 20.03125 -6.046875 C 20.289062 -6.046875 20.554688 -6.035156 20.828125 -6.015625 C 21.109375 -5.992188 21.378906 -5.984375 21.640625 -5.984375 C 21.941406 -5.984375 22.234375 -5.984375 22.515625 -5.984375 C 22.796875 -5.984375 23.066406 -5.984375 23.328125 -5.984375 C 23.847656 -5.941406 24.273438 -5.738281 24.609375 -5.375 C 24.796875 -5.1875 24.953125 -5 25.078125 -4.8125 C 25.210938 -4.625 25.351562 -4.421875 25.5 -4.203125 C 25.65625 -3.972656 25.757812 -3.742188 25.8125 -3.515625 C 25.875 -3.296875 25.941406 -3.09375 26.015625 -2.90625 C 26.160156 -2.425781 26.195312 -1.976562 26.125 -1.5625 C 26.082031 -1.34375 26.023438 -1.128906 25.953125 -0.921875 C 25.878906 -0.710938 25.75 -0.535156 25.5625 -0.390625 C 25.1875 -0.128906 24.757812 0 24.28125 0 C 24.019531 0.0390625 23.765625 0.0351562 23.515625 -0.015625 C 23.273438 -0.078125 23.023438 -0.09375 22.765625 -0.0625 C 22.546875 -0.0625 22.3125 -0.0507812 22.0625 -0.03125 C 21.820312 -0.0078125 21.570312 0.0195312 21.3125 0.0625 C 21.09375 0.0625 20.859375 0.0625 20.609375 0.0625 C 20.367188 0.0625 20.117188 0.0625 19.859375 0.0625 C 19.628906 0.0625 19.394531 0.0507812 19.15625 0.03125 C 18.914062 0.0078125 18.664062 0 18.40625 0 C 18.175781 0 17.929688 -0.0078125 17.671875 -0.03125 C 17.410156 -0.0507812 17.171875 -0.0625 16.953125 -0.0625 C 16.691406 -0.0625 16.4375 -0.0390625 16.1875 0 C 15.945312 0.0390625 15.71875 0.0625 15.5 0.0625 C 15.238281 0.0625 14.984375 0.0351562 14.734375 -0.015625 C 14.492188 -0.078125 14.265625 -0.109375 14.046875 -0.109375 C 13.785156 -0.109375 13.53125 -0.117188 13.28125 -0.140625 C 13.039062 -0.160156 12.8125 -0.171875 12.59375 -0.171875 C 12.320312 -0.203125 12.066406 -0.179688 11.828125 -0.109375 C 11.585938 -0.0351562 11.335938 -0.0195312 11.078125 -0.0625 C 10.847656 -0.0625 10.613281 -0.0859375 10.375 -0.140625 C 10.132812 -0.191406 9.882812 -0.238281 9.625 -0.28125 C 9.394531 -0.28125 9.160156 -0.28125 8.921875 -0.28125 C 8.679688 -0.28125 8.429688 -0.28125 8.171875 -0.28125 C 7.941406 -0.3125 7.707031 -0.328125 7.46875 -0.328125 C 7.226562 -0.328125 6.976562 -0.347656 6.71875 -0.390625 C 6.226562 -0.390625 5.722656 -0.671875 5.203125 -1.234375 C 4.941406 -1.492188 4.71875 -1.765625 4.53125 -2.046875 C 4.34375 -2.328125 4.25 -2.578125 4.25 -2.796875 C 4.25 -3.015625 4.265625 -3.253906 4.296875 -3.515625 C 4.335938 -3.785156 4.359375 -4.03125 4.359375 -4.25 C 4.359375 -4.507812 4.347656 -4.757812 4.328125 -5 C 4.316406 -5.25 4.3125 -5.503906 4.3125 -5.765625 C 4.3125 -5.984375 4.328125 -6.210938 4.359375 -6.453125 C 4.398438 -6.703125 4.421875 -6.957031 4.421875 -7.21875 C 4.421875 -7.476562 4.390625 -7.726562 4.328125 -7.96875 C 4.273438 -8.207031 4.25 -8.441406 4.25 -8.671875 C 4.25 -8.929688 4.257812 -9.179688 4.28125 -9.421875 C 4.300781 -9.671875 4.3125 -9.925781 4.3125 -10.1875 C 4.3125 -10.40625 4.3125 -10.644531 4.3125 -10.90625 C 4.3125 -11.164062 4.3125 -11.410156 4.3125 -11.640625 C 4.3125 -11.898438 4.316406 -12.148438 4.328125 -12.390625 C 4.347656 -12.628906 4.359375 -12.878906 4.359375 -13.140625 C 4.359375 -13.367188 4.347656 -13.601562 4.328125 -13.84375 C 4.316406 -14.082031 4.3125 -14.332031 4.3125 -14.59375 C 4.3125 -14.851562 4.328125 -15.101562 4.359375 -15.34375 C 4.398438 -15.59375 4.421875 -15.828125 4.421875 -16.046875 C 4.421875 -16.316406 4.398438 -16.570312 4.359375 -16.8125 C 4.328125 -17.050781 4.3125 -17.300781 4.3125 -17.5625 C 4.3125 -17.820312 4.347656 -18.070312 4.421875 -18.3125 C 4.492188 -18.5625 4.53125 -18.796875 4.53125 -19.015625 C 4.53125 -19.273438 4.507812 -19.523438 4.46875 -19.765625 C 4.4375 -20.015625 4.421875 -20.269531 4.421875 -20.53125 C 4.421875 -20.75 4.4375 -20.988281 4.46875 -21.25 C 4.507812 -21.507812 4.53125 -21.753906 4.53125 -21.984375 C 4.53125 -22.242188 4.5 -22.492188 4.4375 -22.734375 C 4.382812 -22.984375 4.359375 -23.238281 4.359375 -23.5 C 4.359375 -23.757812 4.382812 -24.007812 4.4375 -24.25 C 4.5 -24.488281 4.550781 -24.722656 4.59375 -24.953125 C 4.59375 -25.210938 4.582031 -25.460938 4.5625 -25.703125 C 4.539062 -25.941406 4.53125 -26.191406 4.53125 -26.453125 C 4.53125 -26.710938 4.53125 -26.960938 4.53125 -27.203125 C 4.53125 -27.453125 4.53125 -27.707031 4.53125 -27.96875 C 4.53125 -28.1875 4.53125 -28.425781 4.53125 -28.6875 C 4.53125 -28.957031 4.53125 -29.203125 4.53125 -29.421875 C 4.53125 -29.679688 4.539062 -29.929688 4.5625 -30.171875 C 4.582031 -30.421875 4.59375 -30.675781 4.59375 -30.9375 C 4.625 -31.195312 4.617188 -31.445312 4.578125 -31.6875 C 4.546875 -31.925781 4.53125 -32.175781 4.53125 -32.4375 C 4.53125 -32.664062 4.546875 -32.910156 4.578125 -33.171875 C 4.617188 -33.429688 4.640625 -33.671875 4.640625 -33.890625 C 4.640625 -34.160156 4.648438 -34.40625 4.671875 -34.625 C 4.691406 -34.851562 4.703125 -35.097656 4.703125 -35.359375 C 4.992188 -35.359375 5.257812 -35.382812 5.5 -35.4375 C 5.75 -35.488281 6.003906 -35.515625 6.265625 -35.515625 C 6.566406 -35.515625 6.847656 -35.492188 7.109375 -35.453125 C 7.367188 -35.421875 7.628906 -35.40625 7.890625 -35.40625 C 8.179688 -35.375 8.457031 -35.359375 8.71875 -35.359375 C 8.988281 -35.359375 9.253906 -35.359375 9.515625 -35.359375 C 9.773438 -35.359375 10.039062 -35.347656 10.3125 -35.328125 C 10.59375 -35.304688 10.863281 -35.296875 11.125 -35.296875 C 11.382812 -35.253906 11.644531 -35.207031 11.90625 -35.15625 C 12.175781 -35.101562 12.441406 -35.078125 12.703125 -35.078125 C 12.992188 -35.078125 13.269531 -35.078125 13.53125 -35.078125 C 13.789062 -35.078125 14.050781 -35.078125 14.3125 -35.078125 C 14.582031 -35.078125 14.847656 -35.09375 15.109375 -35.125 C 15.367188 -35.164062 15.644531 -35.1875 15.9375 -35.1875 C 16.164062 -35.1875 16.398438 -35.175781 16.640625 -35.15625 C 16.878906 -35.132812 17.128906 -35.144531 17.390625 -35.1875 C 17.617188 -35.1875 17.851562 -35.203125 18.09375 -35.234375 C 18.332031 -35.273438 18.582031 -35.296875 18.84375 -35.296875 C 19.070312 -35.335938 19.304688 -35.375 19.546875 -35.40625 C 19.785156 -35.445312 20.039062 -35.46875 20.3125 -35.46875 C 20.570312 -35.46875 20.820312 -35.445312 21.0625 -35.40625 C 21.300781 -35.375 21.535156 -35.359375 21.765625 -35.359375 C 22.210938 -35.359375 22.695312 -35.359375 23.21875 -35.359375 C 23.550781 -35.359375 23.859375 -35.363281 24.140625 -35.375 C 24.421875 -35.394531 24.65625 -35.390625 24.84375 -35.359375 C 25.207031 -35.316406 25.5 -35.226562 25.71875 -35.09375 C 25.945312 -34.96875 26.140625 -34.832031 26.296875 -34.6875 C 26.484375 -34.5 26.601562 -34.28125 26.65625 -34.03125 C 26.707031 -33.789062 26.734375 -33.523438 26.734375 -33.234375 C 26.734375 -33.003906 26.710938 -32.75 26.671875 -32.46875 C 26.640625 -32.1875 26.625 -31.914062 26.625 -31.65625 C 26.625 -31.28125 26.578125 -30.960938 26.484375 -30.703125 C 26.390625 -30.441406 26.304688 -30.21875 26.234375 -30.03125 C 25.972656 -29.507812 25.5625 -29.195312 25 -29.09375 C 24.738281 -29.050781 24.476562 -29.039062 24.21875 -29.0625 C 23.957031 -29.082031 23.660156 -29.09375 23.328125 -29.09375 C 23.066406 -29.09375 22.804688 -29.09375 22.546875 -29.09375 C 22.285156 -29.09375 22.023438 -29.09375 21.765625 -29.09375 C 21.503906 -29.09375 21.238281 -29.070312 20.96875 -29.03125 C 20.707031 -28.988281 20.429688 -28.96875 20.140625 -28.96875 C 19.878906 -28.96875 19.617188 -28.957031 19.359375 -28.9375 C 19.097656 -28.925781 18.835938 -28.921875 18.578125 -28.921875 C 18.316406 -28.921875 18.050781 -28.925781 17.78125 -28.9375 C 17.519531 -28.957031 17.257812 -28.96875 17 -28.96875 C 16.738281 -28.96875 16.476562 -28.957031 16.21875 -28.9375 C 15.957031 -28.925781 15.695312 -28.921875 15.4375 -28.921875 C 15.175781 -28.921875 14.914062 -28.945312 14.65625 -29 C 14.394531 -29.0625 14.132812 -29.09375 13.875 -29.09375 C 13.613281 -29.09375 13.351562 -29.082031 13.09375 -29.0625 C 12.832031 -29.039062 12.570312 -29.03125 12.3125 -29.03125 Z M 12.3125 -29.03125 "/></g></g></g><g fill="#291b25" fill-opacity="1"><g transform="translate(292.068807, 201.251846)"><g><path d="M 12.3125 -29.03125 C 12.050781 -29.03125 11.785156 -29.007812 11.515625 -28.96875 C 11.253906 -28.9375 10.992188 -28.921875 10.734375 -28.921875 C 10.703125 -28.691406 10.65625 -28.460938 10.59375 -28.234375 C 10.539062 -28.015625 10.492188 -27.816406 10.453125 -27.640625 C 10.421875 -27.367188 10.40625 -27.125 10.40625 -26.90625 C 10.40625 -26.6875 10.382812 -26.460938 10.34375 -26.234375 C 10.34375 -26.015625 10.320312 -25.789062 10.28125 -25.5625 C 10.25 -25.34375 10.234375 -25.117188 10.234375 -24.890625 C 10.234375 -24.671875 10.210938 -24.4375 10.171875 -24.1875 C 10.140625 -23.945312 10.144531 -23.675781 10.1875 -23.375 C 10.1875 -23.113281 10.191406 -22.863281 10.203125 -22.625 C 10.222656 -22.382812 10.234375 -22.148438 10.234375 -21.921875 C 10.273438 -21.472656 10.226562 -21.164062 10.09375 -21 C 9.96875 -20.832031 10.035156 -20.617188 10.296875 -20.359375 C 10.515625 -20.097656 10.695312 -20.03125 10.84375 -20.15625 C 11 -20.289062 11.28125 -20.359375 11.6875 -20.359375 C 11.875 -20.359375 12.078125 -20.359375 12.296875 -20.359375 C 12.523438 -20.359375 12.769531 -20.359375 13.03125 -20.359375 C 13.257812 -20.328125 13.484375 -20.335938 13.703125 -20.390625 C 13.929688 -20.441406 14.15625 -20.453125 14.375 -20.421875 C 14.632812 -20.378906 14.894531 -20.320312 15.15625 -20.25 C 15.414062 -20.175781 15.695312 -20.140625 16 -20.140625 C 16.257812 -20.097656 16.519531 -20.09375 16.78125 -20.125 C 17.039062 -20.164062 17.320312 -20.1875 17.625 -20.1875 C 17.882812 -20.15625 18.144531 -20.128906 18.40625 -20.109375 C 18.664062 -20.085938 18.925781 -20.078125 19.1875 -20.078125 C 19.488281 -20.046875 19.769531 -20.007812 20.03125 -19.96875 C 20.289062 -19.925781 20.550781 -19.90625 20.8125 -19.90625 C 21.070312 -19.875 21.347656 -19.875 21.640625 -19.90625 C 21.941406 -19.945312 22.222656 -19.96875 22.484375 -19.96875 C 22.523438 -19.707031 22.5625 -19.453125 22.59375 -19.203125 C 22.632812 -18.960938 22.671875 -18.734375 22.703125 -18.515625 C 22.785156 -18.253906 22.816406 -18 22.796875 -17.75 C 22.773438 -17.507812 22.785156 -17.28125 22.828125 -17.0625 C 22.828125 -16.800781 22.851562 -16.546875 22.90625 -16.296875 C 22.957031 -16.054688 22.945312 -15.84375 22.875 -15.65625 C 22.757812 -15.175781 22.441406 -14.84375 21.921875 -14.65625 C 21.734375 -14.582031 21.519531 -14.546875 21.28125 -14.546875 C 21.039062 -14.546875 20.789062 -14.546875 20.53125 -14.546875 C 20.300781 -14.546875 20.070312 -14.515625 19.84375 -14.453125 C 19.625 -14.398438 19.367188 -14.375 19.078125 -14.375 C 18.847656 -14.332031 18.613281 -14.320312 18.375 -14.34375 C 18.132812 -14.363281 17.882812 -14.375 17.625 -14.375 C 17.394531 -14.375 17.160156 -14.351562 16.921875 -14.3125 C 16.679688 -14.28125 16.429688 -14.265625 16.171875 -14.265625 C 15.941406 -14.265625 15.707031 -14.269531 15.46875 -14.28125 C 15.226562 -14.300781 14.976562 -14.3125 14.71875 -14.3125 C 14.488281 -14.3125 14.253906 -14.320312 14.015625 -14.34375 C 13.773438 -14.363281 13.519531 -14.375 13.25 -14.375 C 12.988281 -14.375 12.738281 -14.363281 12.5 -14.34375 C 12.257812 -14.320312 12.023438 -14.3125 11.796875 -14.3125 C 11.535156 -14.3125 11.285156 -14.320312 11.046875 -14.34375 C 10.804688 -14.363281 10.554688 -14.375 10.296875 -14.375 C 10.179688 -13.8125 10.085938 -13.328125 10.015625 -12.921875 C 10.015625 -12.660156 10.019531 -12.40625 10.03125 -12.15625 C 10.050781 -11.914062 10.046875 -11.6875 10.015625 -11.46875 C 10.015625 -11.238281 10.003906 -11.007812 9.984375 -10.78125 C 9.960938 -10.5625 9.953125 -10.34375 9.953125 -10.125 C 9.953125 -9.863281 9.960938 -9.617188 9.984375 -9.390625 C 10.003906 -9.171875 10.03125 -8.945312 10.0625 -8.71875 C 10.0625 -8.457031 10.039062 -8.210938 10 -7.984375 C 9.96875 -7.765625 9.972656 -7.546875 10.015625 -7.328125 C 10.046875 -6.921875 10.023438 -6.660156 9.953125 -6.546875 C 9.878906 -6.429688 9.972656 -6.265625 10.234375 -6.046875 C 10.566406 -5.816406 10.789062 -5.738281 10.90625 -5.8125 C 11.019531 -5.882812 11.316406 -5.921875 11.796875 -5.921875 C 12.023438 -5.921875 12.28125 -5.921875 12.5625 -5.921875 C 12.84375 -5.921875 13.128906 -5.921875 13.421875 -5.921875 C 13.679688 -5.921875 13.941406 -5.921875 14.203125 -5.921875 C 14.460938 -5.921875 14.742188 -5.921875 15.046875 -5.921875 C 15.304688 -5.921875 15.578125 -5.929688 15.859375 -5.953125 C 16.140625 -5.972656 16.410156 -5.984375 16.671875 -5.984375 C 16.960938 -5.984375 17.238281 -6 17.5 -6.03125 C 17.769531 -6.070312 18.050781 -6.113281 18.34375 -6.15625 C 18.601562 -6.15625 18.875 -6.132812 19.15625 -6.09375 C 19.4375 -6.0625 19.726562 -6.046875 20.03125 -6.046875 C 20.289062 -6.046875 20.554688 -6.035156 20.828125 -6.015625 C 21.109375 -5.992188 21.378906 -5.984375 21.640625 -5.984375 C 21.941406 -5.984375 22.234375 -5.984375 22.515625 -5.984375 C 22.796875 -5.984375 23.066406 -5.984375 23.328125 -5.984375 C 23.847656 -5.941406 24.273438 -5.738281 24.609375 -5.375 C 24.796875 -5.1875 24.953125 -5 25.078125 -4.8125 C 25.210938 -4.625 25.351562 -4.421875 25.5 -4.203125 C 25.65625 -3.972656 25.757812 -3.742188 25.8125 -3.515625 C 25.875 -3.296875 25.941406 -3.09375 26.015625 -2.90625 C 26.160156 -2.425781 26.195312 -1.976562 26.125 -1.5625 C 26.082031 -1.34375 26.023438 -1.128906 25.953125 -0.921875 C 25.878906 -0.710938 25.75 -0.535156 25.5625 -0.390625 C 25.1875 -0.128906 24.757812 0 24.28125 0 C 24.019531 0.0390625 23.765625 0.0351562 23.515625 -0.015625 C 23.273438 -0.078125 23.023438 -0.09375 22.765625 -0.0625 C 22.546875 -0.0625 22.3125 -0.0507812 22.0625 -0.03125 C 21.820312 -0.0078125 21.570312 0.0195312 21.3125 0.0625 C 21.09375 0.0625 20.859375 0.0625 20.609375 0.0625 C 20.367188 0.0625 20.117188 0.0625 19.859375 0.0625 C 19.628906 0.0625 19.394531 0.0507812 19.15625 0.03125 C 18.914062 0.0078125 18.664062 0 18.40625 0 C 18.175781 0 17.929688 -0.0078125 17.671875 -0.03125 C 17.410156 -0.0507812 17.171875 -0.0625 16.953125 -0.0625 C 16.691406 -0.0625 16.4375 -0.0390625 16.1875 0 C 15.945312 0.0390625 15.71875 0.0625 15.5 0.0625 C 15.238281 0.0625 14.984375 0.0351562 14.734375 -0.015625 C 14.492188 -0.078125 14.265625 -0.109375 14.046875 -0.109375 C 13.785156 -0.109375 13.53125 -0.117188 13.28125 -0.140625 C 13.039062 -0.160156 12.8125 -0.171875 12.59375 -0.171875 C 12.320312 -0.203125 12.066406 -0.179688 11.828125 -0.109375 C 11.585938 -0.0351562 11.335938 -0.0195312 11.078125 -0.0625 C 10.847656 -0.0625 10.613281 -0.0859375 10.375 -0.140625 C 10.132812 -0.191406 9.882812 -0.238281 9.625 -0.28125 C 9.394531 -0.28125 9.160156 -0.28125 8.921875 -0.28125 C 8.679688 -0.28125 8.429688 -0.28125 8.171875 -0.28125 C 7.941406 -0.3125 7.707031 -0.328125 7.46875 -0.328125 C 7.226562 -0.328125 6.976562 -0.347656 6.71875 -0.390625 C 6.226562 -0.390625 5.722656 -0.671875 5.203125 -1.234375 C 4.941406 -1.492188 4.71875 -1.765625 4.53125 -2.046875 C 4.34375 -2.328125 4.25 -2.578125 4.25 -2.796875 C 4.25 -3.015625 4.265625 -3.253906 4.296875 -3.515625 C 4.335938 -3.785156 4.359375 -4.03125 4.359375 -4.25 C 4.359375 -4.507812 4.347656 -4.757812 4.328125 -5 C 4.316406 -5.25 4.3125 -5.503906 4.3125 -5.765625 C 4.3125 -5.984375 4.328125 -6.210938 4.359375 -6.453125 C 4.398438 -6.703125 4.421875 -6.957031 4.421875 -7.21875 C 4.421875 -7.476562 4.390625 -7.726562 4.328125 -7.96875 C 4.273438 -8.207031 4.25 -8.441406 4.25 -8.671875 C 4.25 -8.929688 4.257812 -9.179688 4.28125 -9.421875 C 4.300781 -9.671875 4.3125 -9.925781 4.3125 -10.1875 C 4.3125 -10.40625 4.3125 -10.644531 4.3125 -10.90625 C 4.3125 -11.164062 4.3125 -11.410156 4.3125 -11.640625 C 4.3125 -11.898438 4.316406 -12.148438 4.328125 -12.390625 C 4.347656 -12.628906 4.359375 -12.878906 4.359375 -13.140625 C 4.359375 -13.367188 4.347656 -13.601562 4.328125 -13.84375 C 4.316406 -14.082031 4.3125 -14.332031 4.3125 -14.59375 C 4.3125 -14.851562 4.328125 -15.101562 4.359375 -15.34375 C 4.398438 -15.59375 4.421875 -15.828125 4.421875 -16.046875 C 4.421875 -16.316406 4.398438 -16.570312 4.359375 -16.8125 C 4.328125 -17.050781 4.3125 -17.300781 4.3125 -17.5625 C 4.3125 -17.820312 4.347656 -18.070312 4.421875 -18.3125 C 4.492188 -18.5625 4.53125 -18.796875 4.53125 -19.015625 C 4.53125 -19.273438 4.507812 -19.523438 4.46875 -19.765625 C 4.4375 -20.015625 4.421875 -20.269531 4.421875 -20.53125 C 4.421875 -20.75 4.4375 -20.988281 4.46875 -21.25 C 4.507812 -21.507812 4.53125 -21.753906 4.53125 -21.984375 C 4.53125 -22.242188 4.5 -22.492188 4.4375 -22.734375 C 4.382812 -22.984375 4.359375 -23.238281 4.359375 -23.5 C 4.359375 -23.757812 4.382812 -24.007812 4.4375 -24.25 C 4.5 -24.488281 4.550781 -24.722656 4.59375 -24.953125 C 4.59375 -25.210938 4.582031 -25.460938 4.5625 -25.703125 C 4.539062 -25.941406 4.53125 -26.191406 4.53125 -26.453125 C 4.53125 -26.710938 4.53125 -26.960938 4.53125 -27.203125 C 4.53125 -27.453125 4.53125 -27.707031 4.53125 -27.96875 C 4.53125 -28.1875 4.53125 -28.425781 4.53125 -28.6875 C 4.53125 -28.957031 4.53125 -29.203125 4.53125 -29.421875 C 4.53125 -29.679688 4.539062 -29.929688 4.5625 -30.171875 C 4.582031 -30.421875 4.59375 -30.675781 4.59375 -30.9375 C 4.625 -31.195312 4.617188 -31.445312 4.578125 -31.6875 C 4.546875 -31.925781 4.53125 -32.175781 4.53125 -32.4375 C 4.53125 -32.664062 4.546875 -32.910156 4.578125 -33.171875 C 4.617188 -33.429688 4.640625 -33.671875 4.640625 -33.890625 C 4.640625 -34.160156 4.648438 -34.40625 4.671875 -34.625 C 4.691406 -34.851562 4.703125 -35.097656 4.703125 -35.359375 C 4.992188 -35.359375 5.257812 -35.382812 5.5 -35.4375 C 5.75 -35.488281 6.003906 -35.515625 6.265625 -35.515625 C 6.566406 -35.515625 6.847656 -35.492188 7.109375 -35.453125 C 7.367188 -35.421875 7.628906 -35.40625 7.890625 -35.40625 C 8.179688 -35.375 8.457031 -35.359375 8.71875 -35.359375 C 8.988281 -35.359375 9.253906 -35.359375 9.515625 -35.359375 C 9.773438 -35.359375 10.039062 -35.347656 10.3125 -35.328125 C 10.59375 -35.304688 10.863281 -35.296875 11.125 -35.296875 C 11.382812 -35.253906 11.644531 -35.207031 11.90625 -35.15625 C 12.175781 -35.101562 12.441406 -35.078125 12.703125 -35.078125 C 12.992188 -35.078125 13.269531 -35.078125 13.53125 -35.078125 C 13.789062 -35.078125 14.050781 -35.078125 14.3125 -35.078125 C 14.582031 -35.078125 14.847656 -35.09375 15.109375 -35.125 C 15.367188 -35.164062 15.644531 -35.1875 15.9375 -35.1875 C 16.164062 -35.1875 16.398438 -35.175781 16.640625 -35.15625 C 16.878906 -35.132812 17.128906 -35.144531 17.390625 -35.1875 C 17.617188 -35.1875 17.851562 -35.203125 18.09375 -35.234375 C 18.332031 -35.273438 18.582031 -35.296875 18.84375 -35.296875 C 19.070312 -35.335938 19.304688 -35.375 19.546875 -35.40625 C 19.785156 -35.445312 20.039062 -35.46875 20.3125 -35.46875 C 20.570312 -35.46875 20.820312 -35.445312 21.0625 -35.40625 C 21.300781 -35.375 21.535156 -35.359375 21.765625 -35.359375 C 22.210938 -35.359375 22.695312 -35.359375 23.21875 -35.359375 C 23.550781 -35.359375 23.859375 -35.363281 24.140625 -35.375 C 24.421875 -35.394531 24.65625 -35.390625 24.84375 -35.359375 C 25.207031 -35.316406 25.5 -35.226562 25.71875 -35.09375 C 25.945312 -34.96875 26.140625 -34.832031 26.296875 -34.6875 C 26.484375 -34.5 26.601562 -34.28125 26.65625 -34.03125 C 26.707031 -33.789062 26.734375 -33.523438 26.734375 -33.234375 C 26.734375 -33.003906 26.710938 -32.75 26.671875 -32.46875 C 26.640625 -32.1875 26.625 -31.914062 26.625 -31.65625 C 26.625 -31.28125 26.578125 -30.960938 26.484375 -30.703125 C 26.390625 -30.441406 26.304688 -30.21875 26.234375 -30.03125 C 25.972656 -29.507812 25.5625 -29.195312 25 -29.09375 C 24.738281 -29.050781 24.476562 -29.039062 24.21875 -29.0625 C 23.957031 -29.082031 23.660156 -29.09375 23.328125 -29.09375 C 23.066406 -29.09375 22.804688 -29.09375 22.546875 -29.09375 C 22.285156 -29.09375 22.023438 -29.09375 21.765625 -29.09375 C 21.503906 -29.09375 21.238281 -29.070312 20.96875 -29.03125 C 20.707031 -28.988281 20.429688 -28.96875 20.140625 -28.96875 C 19.878906 -28.96875 19.617188 -28.957031 19.359375 -28.9375 C 19.097656 -28.925781 18.835938 -28.921875 18.578125 -28.921875 C 18.316406 -28.921875 18.050781 -28.925781 17.78125 -28.9375 C 17.519531 -28.957031 17.257812 -28.96875 17 -28.96875 C 16.738281 -28.96875 16.476562 -28.957031 16.21875 -28.9375 C 15.957031 -28.925781 15.695312 -28.921875 15.4375 -28.921875 C 15.175781 -28.921875 14.914062 -28.945312 14.65625 -29 C 14.394531 -29.0625 14.132812 -29.09375 13.875 -29.09375 C 13.613281 -29.09375 13.351562 -29.082031 13.09375 -29.0625 C 12.832031 -29.039062 12.570312 -29.03125 12.3125 -29.03125 Z M 12.3125 -29.03125 "/></g></g></g><g fill="#291b25" fill-opacity="1"><g transform="translate(321.264945, 201.251846)"><g><path d="M 17.171875 -29.140625 C 16.910156 -29.140625 16.65625 -29.128906 16.40625 -29.109375 C 16.164062 -29.097656 15.914062 -29.09375 15.65625 -29.09375 C 15.65625 -28.832031 15.644531 -28.585938 15.625 -28.359375 C 15.613281 -28.140625 15.609375 -27.898438 15.609375 -27.640625 C 15.609375 -27.367188 15.625 -27.113281 15.65625 -26.875 C 15.695312 -26.632812 15.71875 -26.382812 15.71875 -26.125 C 15.71875 -25.863281 15.695312 -25.609375 15.65625 -25.359375 C 15.625 -25.117188 15.609375 -24.867188 15.609375 -24.609375 C 15.609375 -24.347656 15.609375 -24.085938 15.609375 -23.828125 C 15.609375 -23.566406 15.609375 -23.328125 15.609375 -23.109375 C 15.609375 -22.835938 15.609375 -22.570312 15.609375 -22.3125 C 15.609375 -22.050781 15.609375 -21.8125 15.609375 -21.59375 C 15.609375 -21.332031 15.613281 -21.070312 15.625 -20.8125 C 15.644531 -20.550781 15.65625 -20.289062 15.65625 -20.03125 C 15.65625 -19.800781 15.664062 -19.554688 15.6875 -19.296875 C 15.707031 -19.035156 15.71875 -18.773438 15.71875 -18.515625 C 15.71875 -18.296875 15.742188 -18.050781 15.796875 -17.78125 C 15.859375 -17.519531 15.890625 -17.257812 15.890625 -17 C 15.890625 -16.78125 15.878906 -16.539062 15.859375 -16.28125 C 15.835938 -16.019531 15.847656 -15.757812 15.890625 -15.5 C 15.890625 -15.269531 15.894531 -15.015625 15.90625 -14.734375 C 15.925781 -14.453125 15.9375 -14.179688 15.9375 -13.921875 C 15.9375 -13.660156 15.9375 -13.390625 15.9375 -13.109375 C 15.9375 -12.835938 15.9375 -12.570312 15.9375 -12.3125 C 15.9375 -12.050781 15.910156 -11.785156 15.859375 -11.515625 C 15.804688 -11.253906 15.78125 -10.992188 15.78125 -10.734375 C 15.78125 -10.441406 15.785156 -10.164062 15.796875 -9.90625 C 15.816406 -9.644531 15.828125 -9.382812 15.828125 -9.125 C 15.828125 -8.851562 15.816406 -8.578125 15.796875 -8.296875 C 15.785156 -8.023438 15.78125 -7.757812 15.78125 -7.5 C 15.78125 -7.238281 15.796875 -6.96875 15.828125 -6.6875 C 15.867188 -6.40625 15.890625 -6.132812 15.890625 -5.875 C 15.890625 -5.613281 15.890625 -5.34375 15.890625 -5.0625 C 15.890625 -4.78125 15.890625 -4.507812 15.890625 -4.25 C 15.890625 -3.988281 15.890625 -3.726562 15.890625 -3.46875 C 15.890625 -3.207031 15.90625 -2.945312 15.9375 -2.6875 C 15.9375 -2.3125 15.914062 -2.003906 15.875 -1.765625 C 15.84375 -1.523438 15.789062 -1.289062 15.71875 -1.0625 C 15.570312 -0.570312 15.195312 -0.273438 14.59375 -0.171875 C 14.375 -0.128906 14.132812 -0.078125 13.875 -0.015625 C 13.613281 0.0351562 13.316406 0.0625 12.984375 0.0625 C 12.640625 0.0625 12.316406 0.0664062 12.015625 0.078125 C 11.722656 0.0976562 11.46875 0.109375 11.25 0.109375 C 10.613281 0.078125 10.179688 -0.238281 9.953125 -0.84375 C 9.847656 -1.175781 9.773438 -1.734375 9.734375 -2.515625 C 9.734375 -2.773438 9.722656 -3.035156 9.703125 -3.296875 C 9.679688 -3.554688 9.671875 -3.800781 9.671875 -4.03125 C 9.671875 -4.289062 9.671875 -4.550781 9.671875 -4.8125 C 9.671875 -5.070312 9.671875 -5.3125 9.671875 -5.53125 C 9.671875 -5.789062 9.691406 -6.050781 9.734375 -6.3125 C 9.773438 -6.582031 9.773438 -6.847656 9.734375 -7.109375 C 9.734375 -7.328125 9.722656 -7.566406 9.703125 -7.828125 C 9.679688 -8.085938 9.671875 -8.347656 9.671875 -8.609375 C 9.671875 -8.835938 9.660156 -9.082031 9.640625 -9.34375 C 9.628906 -9.601562 9.625 -9.863281 9.625 -10.125 C 9.625 -10.382812 9.628906 -10.632812 9.640625 -10.875 C 9.660156 -11.125 9.671875 -11.378906 9.671875 -11.640625 C 9.671875 -11.898438 9.660156 -12.148438 9.640625 -12.390625 C 9.628906 -12.628906 9.625 -12.878906 9.625 -13.140625 C 9.625 -13.398438 9.613281 -13.660156 9.59375 -13.921875 C 9.570312 -14.179688 9.5625 -14.425781 9.5625 -14.65625 C 9.5625 -14.914062 9.5625 -15.175781 9.5625 -15.4375 C 9.5625 -15.695312 9.5625 -15.957031 9.5625 -16.21875 C 9.601562 -16.476562 9.613281 -16.726562 9.59375 -16.96875 C 9.570312 -17.21875 9.5625 -17.472656 9.5625 -17.734375 C 9.5625 -17.992188 9.5625 -18.253906 9.5625 -18.515625 C 9.5625 -18.773438 9.5625 -19.035156 9.5625 -19.296875 C 9.5625 -19.523438 9.578125 -19.769531 9.609375 -20.03125 C 9.648438 -20.289062 9.671875 -20.550781 9.671875 -20.8125 C 9.671875 -21.070312 9.660156 -21.320312 9.640625 -21.5625 C 9.628906 -21.800781 9.625 -22.050781 9.625 -22.3125 C 9.625 -22.570312 9.640625 -22.820312 9.671875 -23.0625 C 9.710938 -23.3125 9.734375 -23.566406 9.734375 -23.828125 C 9.734375 -24.085938 9.710938 -24.359375 9.671875 -24.640625 C 9.640625 -24.921875 9.625 -25.207031 9.625 -25.5 C 9.625 -25.800781 9.628906 -26.09375 9.640625 -26.375 C 9.660156 -26.65625 9.671875 -26.925781 9.671875 -27.1875 C 9.640625 -27.664062 9.6875 -27.976562 9.8125 -28.125 C 9.945312 -28.28125 9.882812 -28.523438 9.625 -28.859375 C 9.363281 -29.160156 9.15625 -29.253906 9 -29.140625 C 8.851562 -29.023438 8.539062 -28.988281 8.0625 -29.03125 C 7.832031 -29.070312 7.578125 -29.09375 7.296875 -29.09375 C 7.015625 -29.09375 6.726562 -29.109375 6.4375 -29.140625 C 6.207031 -29.140625 5.953125 -29.140625 5.671875 -29.140625 C 5.398438 -29.140625 5.128906 -29.160156 4.859375 -29.203125 C 4.597656 -29.203125 4.347656 -29.203125 4.109375 -29.203125 C 3.867188 -29.203125 3.617188 -29.203125 3.359375 -29.203125 C 2.867188 -29.234375 2.421875 -29.421875 2.015625 -29.765625 C 1.523438 -30.171875 1.265625 -30.597656 1.234375 -31.046875 C 1.191406 -31.304688 1.207031 -31.566406 1.28125 -31.828125 C 1.363281 -32.085938 1.40625 -32.367188 1.40625 -32.671875 C 1.363281 -32.859375 1.332031 -33.070312 1.3125 -33.3125 C 1.289062 -33.550781 1.320312 -33.785156 1.40625 -34.015625 C 1.550781 -34.460938 1.8125 -34.851562 2.1875 -35.1875 C 2.332031 -35.300781 2.546875 -35.375 2.828125 -35.40625 C 3.109375 -35.445312 3.378906 -35.46875 3.640625 -35.46875 C 3.859375 -35.46875 4.097656 -35.457031 4.359375 -35.4375 C 4.617188 -35.414062 4.878906 -35.40625 5.140625 -35.40625 C 5.398438 -35.40625 5.648438 -35.394531 5.890625 -35.375 C 6.140625 -35.363281 6.394531 -35.359375 6.65625 -35.359375 C 6.914062 -35.359375 7.175781 -35.363281 7.4375 -35.375 C 7.695312 -35.394531 7.957031 -35.40625 8.21875 -35.40625 C 8.445312 -35.40625 8.691406 -35.382812 8.953125 -35.34375 C 9.210938 -35.3125 9.472656 -35.296875 9.734375 -35.296875 C 9.992188 -35.296875 10.242188 -35.285156 10.484375 -35.265625 C 10.734375 -35.242188 10.988281 -35.234375 11.25 -35.234375 C 11.507812 -35.234375 11.769531 -35.234375 12.03125 -35.234375 C 12.289062 -35.234375 12.550781 -35.21875 12.8125 -35.1875 C 13.03125 -35.1875 13.269531 -35.210938 13.53125 -35.265625 C 13.789062 -35.328125 14.050781 -35.359375 14.3125 -35.359375 C 14.582031 -35.359375 14.835938 -35.328125 15.078125 -35.265625 C 15.316406 -35.210938 15.566406 -35.1875 15.828125 -35.1875 C 16.085938 -35.1875 16.347656 -35.203125 16.609375 -35.234375 C 16.867188 -35.273438 17.128906 -35.296875 17.390625 -35.296875 C 17.617188 -35.296875 17.863281 -35.273438 18.125 -35.234375 C 18.382812 -35.203125 18.644531 -35.1875 18.90625 -35.1875 C 19.164062 -35.1875 19.414062 -35.191406 19.65625 -35.203125 C 19.90625 -35.222656 20.160156 -35.234375 20.421875 -35.234375 C 20.679688 -35.234375 20.941406 -35.222656 21.203125 -35.203125 C 21.460938 -35.191406 21.722656 -35.1875 21.984375 -35.1875 C 22.285156 -35.1875 22.554688 -35.175781 22.796875 -35.15625 C 23.035156 -35.132812 23.226562 -35.085938 23.375 -35.015625 C 23.820312 -34.796875 24.125 -34.40625 24.28125 -33.84375 C 24.3125 -33.65625 24.34375 -33.4375 24.375 -33.1875 C 24.414062 -32.945312 24.4375 -32.695312 24.4375 -32.4375 C 24.4375 -31.8125 24.398438 -31.253906 24.328125 -30.765625 C 24.179688 -30.203125 23.863281 -29.773438 23.375 -29.484375 C 22.96875 -29.253906 22.445312 -29.140625 21.8125 -29.140625 C 21.59375 -29.140625 21.351562 -29.140625 21.09375 -29.140625 C 20.832031 -29.140625 20.570312 -29.140625 20.3125 -29.140625 C 20.039062 -29.140625 19.773438 -29.140625 19.515625 -29.140625 C 19.253906 -29.140625 18.992188 -29.140625 18.734375 -29.140625 C 18.472656 -29.140625 18.210938 -29.140625 17.953125 -29.140625 C 17.691406 -29.140625 17.429688 -29.140625 17.171875 -29.140625 Z M 17.171875 -29.140625 "/></g></g></g></svg>