<svg xmlns="http://www.w3.org/2000/svg" xmlns:xlink="http://www.w3.org/1999/xlink" width="500" zoomAndPan="magnify" viewBox="0 0 375 374.999991" height="500" preserveAspectRatio="xMidYMid meet" version="1.0"><defs><g/><clipPath id="d977a84757"><path d="M 122.738281 133.167969 L 189.746094 133.167969 L 189.746094 241.546875 L 122.738281 241.546875 Z M 122.738281 133.167969 " clip-rule="nonzero"/></clipPath></defs><path stroke-linecap="round" transform="matrix(0.582683, 0, 0, 0.582683, 185.154895, 173.913637)" fill="none" stroke-linejoin="miter" d="M 6.49841 6.496815 L 108.665925 6.496815 " stroke="#ff7f11" stroke-width="13" stroke-opacity="1" stroke-miterlimit="4"/><g clip-path="url(#d977a84757)"><path fill="#ff7f11" d="M 139.890625 133.183594 C 139.890625 133.183594 139.894531 133.183594 139.894531 133.183594 C 142.636719 133.183594 144.851562 135.160156 145.164062 137.882812 L 151.554688 193.332031 L 157.820312 156.480469 C 158.25 153.964844 160.332031 152.148438 162.886719 152.066406 C 165.429688 151.976562 167.632812 153.664062 168.21875 156.152344 L 176.421875 190.832031 L 183.304688 176.867188 C 184.203125 175.042969 186.027344 173.90625 188.0625 173.90625 L 238.664062 173.90625 C 240.773438 173.90625 242.480469 175.613281 242.480469 177.722656 C 242.480469 179.832031 240.773438 181.539062 238.664062 181.539062 L 189.511719 181.539062 L 180.410156 200.007812 C 179.40625 202.042969 177.300781 203.1875 175.050781 202.9375 C 172.796875 202.679688 171.003906 201.089844 170.480469 198.882812 L 163.425781 169.046875 L 156.347656 210.691406 C 155.898438 213.324219 153.628906 215.179688 150.972656 215.109375 C 148.304688 215.039062 146.144531 213.0625 145.839844 210.410156 L 139.875 158.644531 L 130.566406 238.210938 C 130.320312 240.304688 128.429688 241.800781 126.332031 241.554688 C 124.238281 241.3125 122.738281 239.414062 122.984375 237.324219 L 134.617188 137.875 C 134.9375 135.15625 137.15625 133.183594 139.890625 133.183594 " fill-opacity="1" fill-rule="nonzero"/></g><g fill="#000000" fill-opacity="1"><g transform="translate(189.471014, 211.153961)"><g><path d="M 8.671875 -16.265625 C 9.234375 -16.265625 9.78125 -16.1875 10.3125 -16.03125 C 10.84375 -15.875 11.351562 -15.660156 11.84375 -15.390625 C 12.15625 -15.222656 12.328125 -15.070312 12.359375 -14.9375 C 12.398438 -14.8125 12.394531 -14.539062 12.34375 -14.125 C 12.226562 -12.820312 12.140625 -11.226562 12.078125 -9.34375 C 12.015625 -7.46875 11.984375 -5.550781 11.984375 -3.59375 L 11.984375 -2.0625 L 12.09375 -1.953125 C 12.1875 -1.859375 12.316406 -1.8125 12.484375 -1.8125 L 12.96875 -1.8125 C 13.0625 -1.863281 13.15625 -1.84375 13.25 -1.75 C 13.445312 -1.53125 13.519531 -1.296875 13.46875 -1.046875 C 13.394531 -0.929688 13.164062 -0.75 12.78125 -0.5 C 12.394531 -0.257812 11.992188 -0.046875 11.578125 0.140625 C 10.898438 0.429688 10.34375 0.578125 9.90625 0.578125 C 9.738281 0.578125 9.5625 0.53125 9.375 0.4375 C 8.8125 0.0703125 8.53125 -0.582031 8.53125 -1.53125 L 8.53125 -1.953125 L 8.25 -1.75 C 7.632812 -1.3125 6.988281 -0.90625 6.3125 -0.53125 C 5.632812 -0.15625 4.910156 0.03125 4.140625 0.03125 C 3.722656 0.03125 3.410156 -0.0234375 3.203125 -0.140625 C 2.566406 -0.390625 2.09375 -0.898438 1.78125 -1.671875 C 1.65625 -1.910156 1.566406 -2.148438 1.515625 -2.390625 C 1.472656 -2.640625 1.445312 -2.929688 1.4375 -3.265625 C 1.425781 -3.609375 1.425781 -4.039062 1.4375 -4.5625 C 1.445312 -5.082031 1.453125 -5.738281 1.453125 -6.53125 C 1.453125 -8.957031 1.429688 -10.882812 1.390625 -12.3125 C 1.359375 -13.738281 1.296875 -14.65625 1.203125 -15.0625 C 1.128906 -15.53125 1.140625 -15.785156 1.234375 -15.828125 C 1.429688 -15.929688 1.84375 -15.929688 2.46875 -15.828125 C 3.195312 -15.679688 3.890625 -15.441406 4.546875 -15.109375 C 4.953125 -14.910156 5.15625 -14.628906 5.15625 -14.265625 C 5.15625 -14.191406 5.148438 -14.054688 5.140625 -13.859375 C 5.128906 -13.671875 5.109375 -13.421875 5.078125 -13.109375 C 5.035156 -12.335938 5 -11.484375 4.96875 -10.546875 C 4.945312 -9.617188 4.925781 -8.609375 4.90625 -7.515625 C 4.90625 -6.890625 4.90625 -6.265625 4.90625 -5.640625 C 4.90625 -5.023438 4.914062 -4.660156 4.9375 -4.546875 C 4.988281 -4.253906 5.0625 -3.984375 5.15625 -3.734375 C 5.28125 -3.492188 5.421875 -3.332031 5.578125 -3.25 C 5.734375 -3.164062 5.941406 -3.125 6.203125 -3.125 C 6.398438 -3.125 6.609375 -3.160156 6.828125 -3.234375 C 7.359375 -3.472656 7.890625 -3.820312 8.421875 -4.28125 L 8.5625 -4.46875 L 8.5625 -8.421875 C 8.5625 -11.984375 8.523438 -14.320312 8.453125 -15.4375 C 8.429688 -15.820312 8.441406 -16.050781 8.484375 -16.125 C 8.535156 -16.195312 8.597656 -16.242188 8.671875 -16.265625 Z M 8.671875 -16.265625 "/></g></g></g><g fill="#000000" fill-opacity="1"><g transform="translate(208.680221, 211.153961)"><g><path d="M 5.78125 -15.9375 C 6.351562 -15.9375 6.925781 -15.835938 7.5 -15.640625 C 8.070312 -15.453125 8.625 -15.15625 9.15625 -14.75 C 9.832031 -14.238281 10.265625 -13.789062 10.453125 -13.40625 C 10.628906 -13.0625 10.460938 -12.46875 9.953125 -11.625 C 9.492188 -10.894531 9.082031 -10.53125 8.71875 -10.53125 C 8.539062 -10.53125 8.25 -10.734375 7.84375 -11.140625 C 7.363281 -11.679688 6.910156 -12.070312 6.484375 -12.3125 C 6.054688 -12.550781 5.675781 -12.679688 5.34375 -12.703125 C 5.21875 -12.703125 5.117188 -12.691406 5.046875 -12.671875 C 4.972656 -12.648438 4.898438 -12.613281 4.828125 -12.5625 C 4.441406 -12.320312 4.25 -11.992188 4.25 -11.578125 C 4.25 -11.191406 4.40625 -10.796875 4.71875 -10.390625 C 5.007812 -10.066406 5.445312 -9.75 6.03125 -9.4375 C 6.582031 -9.144531 7.109375 -8.835938 7.609375 -8.515625 C 8.109375 -8.191406 8.554688 -7.820312 8.953125 -7.40625 C 9.347656 -7 9.660156 -6.523438 9.890625 -5.984375 C 10.117188 -5.453125 10.234375 -4.863281 10.234375 -4.21875 C 10.234375 -3.539062 10.097656 -2.925781 9.828125 -2.375 C 9.566406 -1.832031 9.207031 -1.375 8.75 -1 C 8.289062 -0.625 7.769531 -0.332031 7.1875 -0.125 C 6.601562 0.0820312 6 0.1875 5.375 0.1875 C 4.113281 0.1875 2.84375 -0.1875 1.5625 -0.9375 C 1.144531 -1.15625 0.925781 -1.390625 0.90625 -1.640625 C 0.851562 -1.828125 0.894531 -2.132812 1.03125 -2.5625 C 1.164062 -2.988281 1.332031 -3.34375 1.53125 -3.625 C 1.644531 -3.800781 1.742188 -3.945312 1.828125 -4.0625 C 1.910156 -4.1875 2.015625 -4.273438 2.140625 -4.328125 C 2.378906 -4.398438 2.679688 -4.347656 3.046875 -4.171875 C 3.429688 -3.984375 3.8125 -3.84375 4.1875 -3.75 C 4.5625 -3.664062 4.921875 -3.601562 5.265625 -3.5625 C 5.484375 -3.53125 5.664062 -3.523438 5.8125 -3.546875 C 5.957031 -3.578125 6.078125 -3.601562 6.171875 -3.625 C 6.609375 -3.726562 6.835938 -3.960938 6.859375 -4.328125 C 6.890625 -4.535156 6.769531 -4.832031 6.5 -5.21875 C 6.226562 -5.613281 5.851562 -5.976562 5.375 -6.3125 L 4.28125 -7.046875 C 3.84375 -7.304688 3.425781 -7.570312 3.03125 -7.84375 C 2.632812 -8.113281 2.289062 -8.410156 2 -8.734375 C 1.707031 -9.054688 1.46875 -9.429688 1.28125 -9.859375 C 1.101562 -10.285156 1.015625 -10.785156 1.015625 -11.359375 C 1.015625 -12.015625 1.140625 -12.617188 1.390625 -13.171875 C 1.648438 -13.734375 2 -14.21875 2.4375 -14.625 C 2.875 -15.039062 3.375 -15.363281 3.9375 -15.59375 C 4.507812 -15.820312 5.125 -15.9375 5.78125 -15.9375 Z M 5.78125 -15.9375 "/></g></g></g><g fill="#000000" fill-opacity="1"><g transform="translate(225.057128, 211.153961)"><g><path d="M 1.5625 -21.359375 C 2.09375 -21.835938 2.648438 -22.078125 3.234375 -22.078125 C 3.691406 -22.078125 4.109375 -21.929688 4.484375 -21.640625 C 4.859375 -21.347656 5.109375 -20.984375 5.234375 -20.546875 C 5.421875 -19.921875 5.359375 -19.363281 5.046875 -18.875 C 4.734375 -18.394531 4.25 -18.070312 3.59375 -17.90625 C 3.46875 -17.851562 3.359375 -17.828125 3.265625 -17.828125 C 3.171875 -17.828125 3.078125 -17.828125 2.984375 -17.828125 C 2.660156 -17.828125 2.332031 -17.898438 2 -18.046875 C 1.539062 -18.265625 1.21875 -18.582031 1.03125 -19 C 0.851562 -19.425781 0.820312 -19.882812 0.9375 -20.375 C 0.988281 -20.5625 1.070312 -20.738281 1.1875 -20.90625 C 1.3125 -21.082031 1.4375 -21.234375 1.5625 -21.359375 Z M 1.34375 -15.71875 C 1.488281 -15.789062 1.691406 -15.828125 1.953125 -15.828125 C 2.171875 -15.828125 2.414062 -15.800781 2.6875 -15.75 C 2.957031 -15.707031 3.226562 -15.644531 3.5 -15.5625 C 3.78125 -15.476562 4.046875 -15.375 4.296875 -15.25 C 4.554688 -15.125 4.769531 -15.003906 4.9375 -14.890625 C 5.132812 -14.691406 5.234375 -14.472656 5.234375 -14.234375 C 5.234375 -13.960938 5.195312 -12.863281 5.125 -10.9375 C 5.050781 -9.113281 5 -7.457031 4.96875 -5.96875 C 4.945312 -4.476562 4.925781 -3.273438 4.90625 -2.359375 C 4.90625 -1.367188 4.890625 -0.820312 4.859375 -0.71875 C 4.785156 -0.550781 4.65625 -0.410156 4.46875 -0.296875 C 4.125 -0.0976562 3.757812 0.0507812 3.375 0.15625 C 2.988281 0.269531 2.585938 0.335938 2.171875 0.359375 C 1.835938 0.359375 1.660156 0.300781 1.640625 0.1875 C 1.585938 0.132812 1.554688 -0.300781 1.546875 -1.125 C 1.535156 -1.945312 1.53125 -3.050781 1.53125 -4.4375 C 1.53125 -10.53125 1.457031 -14.097656 1.3125 -15.140625 C 1.28125 -15.523438 1.289062 -15.71875 1.34375 -15.71875 Z M 1.34375 -15.71875 "/></g></g></g><g fill="#000000" fill-opacity="1"><g transform="translate(236.67723, 211.153961)"><g><path d="M 7.84375 -16.015625 C 8.59375 -16.015625 9.316406 -15.828125 10.015625 -15.453125 C 10.722656 -15.078125 11.28125 -14.585938 11.6875 -13.984375 C 11.957031 -13.597656 12.09375 -13.269531 12.09375 -13 C 12.09375 -12.78125 12.046875 -12.5625 11.953125 -12.34375 C 11.847656 -12.101562 11.71875 -11.859375 11.5625 -11.609375 C 11.40625 -11.367188 11.226562 -11.109375 11.03125 -10.828125 C 10.675781 -10.429688 10.390625 -10.25 10.171875 -10.28125 C 10.097656 -10.300781 10 -10.34375 9.875 -10.40625 C 9.757812 -10.46875 9.628906 -10.570312 9.484375 -10.71875 C 9.210938 -11 8.929688 -11.203125 8.640625 -11.328125 C 8.347656 -11.453125 8.007812 -11.515625 7.625 -11.515625 C 7.164062 -11.515625 6.753906 -11.414062 6.390625 -11.21875 C 6.023438 -11.03125 5.710938 -10.773438 5.453125 -10.453125 C 5.203125 -10.140625 5 -9.78125 4.84375 -9.375 C 4.6875 -8.976562 4.585938 -8.566406 4.546875 -8.140625 C 4.472656 -7.816406 4.441406 -7.476562 4.453125 -7.125 C 4.460938 -6.78125 4.503906 -6.425781 4.578125 -6.0625 C 5.015625 -3.664062 6.414062 -2.46875 8.78125 -2.46875 C 9.101562 -2.46875 9.414062 -2.488281 9.71875 -2.53125 C 10.019531 -2.582031 10.335938 -2.644531 10.671875 -2.71875 C 11.054688 -2.820312 11.359375 -2.785156 11.578125 -2.609375 C 11.796875 -2.296875 11.867188 -1.992188 11.796875 -1.703125 C 11.753906 -1.554688 11.441406 -1.242188 10.859375 -0.765625 C 10.398438 -0.398438 9.851562 -0.125 9.21875 0.0625 C 8.59375 0.257812 7.988281 0.359375 7.40625 0.359375 C 7.09375 0.359375 6.789062 0.320312 6.5 0.25 C 4.976562 0.0078125 3.722656 -0.742188 2.734375 -2.015625 C 1.753906 -3.285156 1.171875 -4.84375 0.984375 -6.6875 C 0.910156 -7.3125 0.898438 -7.925781 0.953125 -8.53125 C 1.015625 -9.132812 1.117188 -9.726562 1.265625 -10.3125 C 1.484375 -11.039062 1.789062 -11.75 2.1875 -12.4375 C 2.59375 -13.125 3.078125 -13.734375 3.640625 -14.265625 C 4.210938 -14.796875 4.847656 -15.21875 5.546875 -15.53125 C 6.253906 -15.851562 7.019531 -16.015625 7.84375 -16.015625 Z M 7.84375 -16.015625 "/></g></g></g></svg>