<svg xmlns="http://www.w3.org/2000/svg" viewBox="0 0 500 500"><g id="freepik--background-complete--inject-6"><path d="M456.4,177.6a7.87,7.87,0,1,1-4.73-10.07A7.87,7.87,0,0,1,456.4,177.6Z" style="fill:#e0e0e0"></path><path d="M456.21,174.75c-.46.15-3.06-7.73-4.46-17.77s-2.43-18.08-2-18.18,2.35,7.93,3.72,17.92S456.67,174.61,456.21,174.75Z" style="fill:#e0e0e0"></path><path d="M466.34,135.56c.35.28-2.62,3.58-7.74,4.73s-9.23-.44-9-.85,4,.28,8.64-.83S466,135.16,466.34,135.56Z" style="fill:#e0e0e0"></path><path d="M467,143.69c.4.25-2.42,3.66-7.5,4.43s-8.81-1.53-8.51-1.89,3.78.94,8.24.18S466.7,143.31,467,143.69Z" style="fill:#e0e0e0"></path><path d="M302.52,395.18a7.87,7.87,0,1,1-.15-11.13A7.87,7.87,0,0,1,302.52,395.18Z" style="fill:#ebebeb"></path><path d="M303.53,392.51c-.48-.06.4-8.31,3.26-18S312,357,312.46,357.09s-1.13,8.19-4,17.85S304,392.57,303.53,392.51Z" style="fill:#ebebeb"></path><path d="M328.92,361c.2.4-3.86,2.18-9,1.12s-8.22-4.21-7.88-4.5,3.56,1.91,8.22,2.8S328.78,360.49,328.92,361Z" style="fill:#ebebeb"></path><path d="M326.2,368.68c.25.39-3.72,2.33-8.67.94s-7.38-5-7-5.24,3.05,2.42,7.42,3.57S326.05,368.19,326.2,368.68Z" style="fill:#ebebeb"></path><path d="M63.86,119.35a4,4,0,1,1-5.07-2.56A4,4,0,0,1,63.86,119.35Z" style="fill:#ebebeb"></path><path d="M62.89,118.26c-.14.21-3.66-2.14-7.38-5.73S48.85,106,49,105.86s3.43,2.45,7.12,6S63,118.06,62.89,118.26Z" style="fill:#ebebeb"></path><path d="M54.63,99.35c.23,0,.08,2.25-1.62,4.33s-3.84,2.72-3.89,2.49,1.7-1.15,3.21-3S54.38,99.29,54.63,99.35Z" style="fill:#ebebeb"></path><path d="M57.47,102.39c.24,0,.17,2.23-1.62,4.14s-4,2.15-4,1.91,1.81-.81,3.36-2.51S57.22,102.34,57.47,102.39Z" style="fill:#ebebeb"></path><path d="M169.69,52.55a4,4,0,1,1-2.2-5.23A4,4,0,0,1,169.69,52.55Z" style="fill:#f5f5f5"></path><path d="M169.65,51.1c-.23.06-1.39-4-1.9-9.15s-.86-9.26-.64-9.3,1,4.09,1.52,9.2S169.89,51,169.65,51.1Z" style="fill:#f5f5f5"></path><path d="M175.63,31.34c.17.15-1.41,1.77-4,2.25S166.9,33.17,167,33s2,.22,4.42-.24S175.47,31.14,175.63,31.34Z" style="fill:#f5f5f5"></path><path d="M175.82,35.5c.19.14-1.32,1.81-3.92,2.1s-4.45-1-4.29-1.14,1.9.56,4.19.26S175.66,35.3,175.82,35.5Z" style="fill:#f5f5f5"></path><path d="M279.08,402.14a4,4,0,1,1-4.86-2.92A4,4,0,0,1,279.08,402.14Z" style="fill:#f5f5f5"></path><path d="M278.2,401c-.16.19-3.49-2.41-6.94-6.26s-6.16-7-6-7.13,3.25,2.69,6.66,6.53S278.35,400.8,278.2,401Z" style="fill:#f5f5f5"></path><path d="M271.36,381.51c.23,0-.09,2.26-1.93,4.21s-4,2.42-4.07,2.2,1.79-1,3.42-2.81S271.11,381.44,271.36,381.51Z" style="fill:#f5f5f5"></path><path d="M274,384.76c.23,0,0,2.24-1.93,4s-4.16,1.85-4.14,1.61,1.87-.67,3.54-2.26S273.72,384.69,274,384.76Z" style="fill:#f5f5f5"></path><path d="M65.16,201.23a6.24,6.24,0,1,1-3.75-8A6.24,6.24,0,0,1,65.16,201.23Z" style="fill:#ebebeb"></path><path d="M65,199c-.37.12-2.43-6.13-3.55-14.1s-1.92-14.34-1.59-14.42,1.86,6.29,2.95,14.22S65.38,198.86,65,199Z" style="fill:#ebebeb"></path><path d="M73.05,167.87c.28.22-2.07,2.83-6.14,3.75s-7.32-.35-7.17-.68,3.2.22,6.86-.66S72.79,167.55,73.05,167.87Z" style="fill:#ebebeb"></path><path d="M73.6,174.32c.32.2-1.92,2.9-5.95,3.52s-7-1.22-6.75-1.51,3,.75,6.53.15S73.34,174,73.6,174.32Z" style="fill:#ebebeb"></path><path d="M105.2,79.93a7.32,7.32,0,1,1,1.85-10.18A7.31,7.31,0,0,1,105.2,79.93Z" style="fill:#e0e0e0"></path><path d="M106.6,77.67c-.67-.21,1.43-7.69,5.79-16.08S120.49,46.7,121.1,47s-2.1,7.49-6.44,15.79S107.26,77.9,106.6,77.67Z" style="fill:#e0e0e0"></path><path d="M139.69,61.66c0,.59-6.13.51-12.32-3.55a17.19,17.19,0,0,1-6.27-6.89c-1-2.25-.78-3.88-.48-3.88s.77,1.27,2,3A23.17,23.17,0,0,0,128.78,56C134.31,59.67,139.86,60.87,139.69,61.66Z" style="fill:#e0e0e0"></path><path d="M123.8,94.64a7.32,7.32,0,1,1,1.85-10.18A7.32,7.32,0,0,1,123.8,94.64Z" style="fill:#e0e0e0"></path><path d="M125.2,92.38c-.68-.21,1.42-7.69,5.79-16.08s8.09-14.89,8.7-14.64-2.09,7.49-6.44,15.79S125.86,92.61,125.2,92.38Z" style="fill:#e0e0e0"></path><path d="M137.6,66.19c.05.66-5.79,1-11.73-2.63s-8.44-8.86-7.83-9.12,3.76,3.77,9.14,6.94S137.67,65.45,137.6,66.19Z" style="fill:#e0e0e0"></path><path d="M437.51,93.38a5.07,5.07,0,1,1,.43-7.16A5.07,5.07,0,0,1,437.51,93.38Z" style="fill:#ebebeb"></path><path d="M438.29,91.71c-.48-.09.34-5.41,2.65-11.55s4.33-10.92,4.77-10.79-.82,5.33-3.12,11.39S438.76,91.81,438.29,91.71Z" style="fill:#ebebeb"></path><path d="M459.72,77.94c0,.41-4.17.87-8.77-1.42a11.8,11.8,0,0,1-4.88-4.22c-.9-1.46-.86-2.6-.65-2.63s.63.82,1.65,1.89A16.1,16.1,0,0,0,451.74,75C455.86,77,459.77,77.39,459.72,77.94Z" style="fill:#ebebeb"></path><path d="M451.53,102A5.07,5.07,0,1,1,452,94.8,5.08,5.08,0,0,1,451.53,102Z" style="fill:#ebebeb"></path><path d="M452.3,100.29c-.48-.1.34-5.42,2.65-11.55s4.33-10.92,4.77-10.8-.81,5.33-3.11,11.4S452.78,100.38,452.3,100.29Z" style="fill:#ebebeb"></path><path d="M458.66,81.24c.09.45-3.9,1.15-8.29-.84s-6.54-5.39-6.14-5.63,2.9,2.29,6.86,4S458.65,80.72,458.66,81.24Z" style="fill:#ebebeb"></path><path d="M424.05,303.37A3.83,3.83,0,1,1,419.8,300,3.82,3.82,0,0,1,424.05,303.37Z" style="fill:#ebebeb"></path><path d="M423.35,302.16c-.27.26-3.2-2.55-6-6.63s-4.88-7.41-4.62-7.63,2.95,2.81,5.71,6.86S423.62,301.91,423.35,302.16Z" style="fill:#ebebeb"></path><path d="M424.11,282.94c.27.15-1.28,3-4.68,4.81a8.87,8.87,0,0,1-4.72,1.2c-1.3-.07-2-.59-1.91-.73s.78,0,1.88-.21a12,12,0,0,0,4.12-1.43C421.86,284.93,423.79,282.67,424.11,282.94Z" style="fill:#ebebeb"></path><path d="M435.42,298.41a3.83,3.83,0,1,1-4.24-3.37A3.82,3.82,0,0,1,435.42,298.41Z" style="fill:#ebebeb"></path><path d="M434.72,297.2c-.26.26-3.2-2.55-6-6.63s-4.88-7.41-4.61-7.63,2.94,2.81,5.7,6.86S435,297,434.72,297.2Z" style="fill:#ebebeb"></path><path d="M425.69,285c.31.14-1,2.92-4.11,4.77s-6.17,1.71-6.14,1.37,2.67-.81,5.46-2.51S425.36,284.81,425.69,285Z" style="fill:#ebebeb"></path><path d="M463.49,287.88s-8.7-5-17.7,15.59-12.18,32.41-12.18,32.41-2.44,4.35-5.48,1.78-7.46-10.1-12.27-8.41c-5,1.76-6.33,7.52-4.86,15.79s4,26.51,4.24,28.16-.56,4.07-2.92,2.65S396.09,360.73,390,367.7s1.76,29.35,2.57,31.81.39,3.56-.76,4.25-5.38-4.36-9.49-8.1-9.52-7.35-12.71-3-3.26,21.46,14.65,48.22l9.11,11.86L408.27,451c31.71-5.65,44-17.58,44.91-22.88s-5.46-6.69-11-7.06-12.11.09-12.41-1.22.19-2.38,2.53-3.5,23.92-10.95,24.71-20.19-18.72-9.74-21.37-10.45-1.43-3-.11-3.95,16.25-11.79,23.23-16.46,10.21-9.64,8-14.45c-2.11-4.64-10.6-2.6-14.57-3s-2.51-5.2-2.51-5.2,6.28-10.44,14.9-31.23-1.29-23.59-1.29-23.59" style="fill:#ebebeb"></path><path d="M455.4,306.34s0,.15-.16.44-.29.74-.51,1.29c-.47,1.14-1.14,2.8-2,4.93-1.74,4.28-4.3,10.46-7.5,18.08-6.4,15.24-15.4,36.22-25.43,59.36s-19.08,44.1-25.55,59.31l-7.64,18-2.09,4.9c-.23.54-.42,1-.55,1.26s-.2.43-.2.43.05-.15.16-.44l.51-1.29c.46-1.15,1.14-2.8,2-4.93,1.74-4.28,4.31-10.46,7.51-18.08,6.39-15.24,15.4-36.22,25.43-59.37s19.07-44.09,25.54-59.3l7.65-18c.9-2.11,1.6-3.76,2.08-4.9.24-.54.42-1,.55-1.27S455.4,306.34,455.4,306.34Z" style="fill:#e0e0e0"></path><path d="M421.6,340a4.84,4.84,0,0,1,.44,1c.26.65.6,1.6,1,2.77.82,2.34,1.87,5.61,3,9.24s2,6.82,2.76,9.3l.86,2.81a5,5,0,0,1,.27,1.05,4.52,4.52,0,0,1-.44-1c-.26-.65-.6-1.59-1-2.77-.8-2.36-1.8-5.64-2.89-9.26s-2.08-6.81-2.83-9.28c-.35-1.11-.64-2-.87-2.81A4.84,4.84,0,0,1,421.6,340Z" style="fill:#e0e0e0"></path><path d="M431.29,366.38c0-.12,6.6-2.58,14.84-5.49s14.95-5.18,15-5.06-6.6,2.58-14.84,5.49S431.33,366.5,431.29,366.38Z" style="fill:#e0e0e0"></path><path d="M414.29,401.22a5.18,5.18,0,0,1,1.1-.11l3-.17c2.53-.15,6-.37,9.87-.75s7.31-.83,9.82-1.18l3-.41a4.77,4.77,0,0,1,1.1-.1,4.91,4.91,0,0,1-1.07.28c-.69.14-1.7.34-2.95.56-2.5.43-6,.94-9.83,1.32s-7.36.54-9.89.61c-1.27,0-2.3,0-3,0A4.17,4.17,0,0,1,414.29,401.22Z" style="fill:#e0e0e0"></path><path d="M400.29,379.33a5.23,5.23,0,0,1,.63.8l1.59,2.28c1.32,1.93,3.12,4.62,5.08,7.61s3.73,5.7,5,7.68l1.46,2.36a3.72,3.72,0,0,1,.48.9,4.63,4.63,0,0,1-.63-.8l-1.59-2.28c-1.32-1.93-3.12-4.62-5.08-7.61s-3.72-5.7-5-7.68l-1.46-2.36A3.72,3.72,0,0,1,400.29,379.33Z" style="fill:#e0e0e0"></path><path d="M381.37,408.19a7,7,0,0,1,.81,1c.53.76,1.21,1.74,2,2.91,1.71,2.47,4,5.9,6.59,9.7s4.85,7.26,6.49,9.78l1.92,3a6.91,6.91,0,0,1,.65,1.13,6.62,6.62,0,0,1-.8-1l-2-2.91c-1.71-2.47-4-5.9-6.6-9.7s-4.85-7.26-6.48-9.78c-.78-1.2-1.42-2.21-1.92-3A7.64,7.64,0,0,1,381.37,408.19Z" style="fill:#e0e0e0"></path><path d="M399.61,435a8.33,8.33,0,0,1,1.39-.19l3.79-.35c3.2-.3,7.62-.73,12.48-1.34s9.26-1.28,12.43-1.78l3.77-.6a8.6,8.6,0,0,1,1.38-.16,8,8,0,0,1-1.35.34c-.88.19-2.16.45-3.74.74-3.16.59-7.55,1.31-12.43,1.92s-9.3,1-12.51,1.21c-1.61.1-2.91.18-3.81.2A8,8,0,0,1,399.61,435Z" style="fill:#e0e0e0"></path></g><g id="freepik--Floor--inject-6"><path d="M456.11,471.9c0,.14-92.29.26-206.1.26S43.89,472,43.89,471.9s92.27-.26,206.12-.26S456.11,471.76,456.11,471.9Z" style="fill:#263238"></path></g><g id="freepik--speech-bubble--inject-6"><path d="M123.68,161.89A45.06,45.06,0,0,1,174.09,100a72.81,72.81,0,0,1,94.13-40.46c12-20.34,38.25-31.1,61.1-25.08s40.37,28.29,40.83,51.92c20.74-4,41.92,11.88,48.19,32.06s0,42.63-12,60.05c21,9.77,33.75,34.72,29.35,57.48S410.16,277.16,387,278.39a52.41,52.41,0,0,1-78,51.27c-11.21,15.65-33.34,23.61-54.82,19.72-20.16-3.66-36.78-21-41.41-41-24.18,13.6-57.85,6.83-74.9-15.06s-15.37-56.19,3.73-76.3" style="fill:#f5f5f5"></path><path d="M221.22,129.34v.94c0,3.58,0,15.9,0,15.9l21.08,4L237.63,159l-29.43-5.1" style="fill:#e0e0e0"></path><polygon points="266.85 226.39 273.34 236.02 280.56 229.57 274.97 219.14 266.85 226.39" style="fill:#e0e0e0"></polygon><path d="M273.23,235.9l2.4,3.07,13.63-12.18s-2.47-3-8.81,2.66Z" style="fill:#ebebeb"></path><rect x="185.84" y="192.73" width="2.65" height="54.15" style="fill:#e0e0e0"></rect><path d="M181.31,192.05h42.77L218.8,231.5l18.83.06L254.29,182a7.67,7.67,0,0,0-7.24-9.69l-82.94.24,1,5.87A16.43,16.43,0,0,0,181.31,192.05Z" style="fill:#ebebeb"></path><polygon points="280.92 218.43 253.11 175.24 233.55 180.04 263.7 228.02 280.92 218.43" style="fill:#ebebeb"></polygon><path d="M216.91,110.52c-12.16-3.87-40.85,11-50.8,47.34l-4.72,22.08,40.26,2.5,18.45-46.68a16.12,16.12,0,0,0,.77-9.34h0Z" style="fill:#ebebeb"></path><polygon points="196.5 130.29 184.84 162.32 233.55 166.8 238.37 154.26 207.56 150.42 215.03 130.29 196.5 130.29" style="fill:#ebebeb"></polygon><rect x="166.11" y="191.06" width="42.09" height="7.23" style="fill:#e0e0e0"></rect><path d="M218.43,130.3l6.84-10.87s9.3,4.83,13-2.86,6.62-21.64,6.62-21.64L225.8,89.39l-8.89,21.13Z" style="fill:#fafafa"></path><path d="M217.37,108.33c-.57-4,.66-8.5,2-12.34a15.71,15.71,0,0,1,7.84-9,11.46,11.46,0,0,1,11.61,1c1.12.87,2,2,3.14,2.89a5.55,5.55,0,0,0,3.89,1.51c.81-.07,1.78-.35,2.34.2a1.25,1.25,0,0,1-.06,1.72,3.45,3.45,0,0,1-2.16.85h.36a1.19,1.19,0,0,1,.71,2.18h0a7.84,7.84,0,0,1-2.6.88c-2.8.59-5.83,1.15-8.42-.05-1-.48-1.91-1.21-2.92-1.74a3.91,3.91,0,0,0-3.27-.39c-1.51.63-2,2.47-2.35,4.07a3,3,0,0,0-4.15,4.09,5.35,5.35,0,0,1,.73,1.4,2.23,2.23,0,0,1-.63,1.74c-1.43,1.73-4,1.74-6.09,1" style="fill:#e0e0e0"></path><path d="M237.27,106.62s-.15.26-.57.42a2.43,2.43,0,0,1-1.72,0,2.37,2.37,0,0,1-1.26-1.16c-.2-.4-.19-.68-.12-.7s.5,1,1.58,1.38S237.22,106.48,237.27,106.62Z" style="fill:#e0e0e0"></path><path d="M237.53,103.42c-.1.12-.71-.22-1.53-.34s-1.51,0-1.56-.11.66-.55,1.64-.4S237.62,103.32,237.53,103.42Z" style="fill:#e0e0e0"></path><path d="M218.54,165.4a4.18,4.18,0,0,1-.62,0l-1.78,0c-1.55,0-3.79-.14-6.55-.32s-6.05-.44-9.69-.83c-1.82-.19-3.72-.39-5.71-.68a9.65,9.65,0,0,1-3-.89,4.92,4.92,0,0,1-2.25-2.32,7.7,7.7,0,0,1-.66-3.14,20.42,20.42,0,0,1,.21-3.06c.24-2,.58-3.89,1-5.68a61,61,0,0,1,2.86-9.31,56.21,56.21,0,0,1,2.76-5.95c.37-.69.68-1.2.89-1.55a3.29,3.29,0,0,1,.34-.52,2.54,2.54,0,0,1-.25.57l-.8,1.59c-.67,1.39-1.62,3.41-2.6,6a65,65,0,0,0-2.73,9.28c-.38,1.78-.7,3.67-.93,5.64a19.76,19.76,0,0,0-.2,3,7.36,7.36,0,0,0,.61,2.93,4.39,4.39,0,0,0,2,2.08,9.21,9.21,0,0,0,2.82.85c1.95.28,3.87.5,5.68.71,3.63.41,6.9.71,9.66.93l6.53.49,1.78.13A2.3,2.3,0,0,1,218.54,165.4Z" style="fill:#e0e0e0"></path><path d="M229.51,153.16a1.82,1.82,0,0,1-.41,0l-1.19-.1-4.41-.48-15.11-1.79-.35,0,.15-.32c.92-2,1.87-4.06,2.8-6.24.75-1.78,1.47-3.53,2-5.26a40.26,40.26,0,0,0,1.24-5.08,8.76,8.76,0,0,0-2.51-8,7.38,7.38,0,0,0-5.35-2.11,8.16,8.16,0,0,0-2.11.51,2.62,2.62,0,0,1,.5-.28,5.11,5.11,0,0,1,1.6-.43,7.44,7.44,0,0,1,5.61,2,8.17,8.17,0,0,1,2.33,3.5,10,10,0,0,1,.41,4.82,40,40,0,0,1-1.23,5.16c-.57,1.77-1.28,3.52-2,5.32-.94,2.19-1.89,4.29-2.82,6.25l-.2-.36,15.09,2,4.39.62,1.18.19C229.38,153.11,229.52,153.14,229.51,153.16Z" style="fill:#e0e0e0"></path><path d="M200.72,180.61a8,8,0,0,1-1.51.24c-1,.12-2.38.26-4.13.39-3.5.26-8.35.45-13.7.31s-10.19-.6-13.66-1.05c-1.74-.23-3.14-.44-4.11-.61a10,10,0,0,1-1.49-.32,8.57,8.57,0,0,1,1.52.11l4.12.45c3.48.36,8.3.75,13.63.9s10.17,0,13.67-.16l4.13-.22A9.36,9.36,0,0,1,200.72,180.61Z" style="fill:#e0e0e0"></path><path d="M236.39,114.68c0,.07-.21.16-.58.13a2.07,2.07,0,0,1-1.28-.65,2,2,0,0,1-.53-1.34c0-.37.12-.58.18-.57s.1.87.73,1.56S236.4,114.54,236.39,114.68Z" style="fill:#e0e0e0"></path><polygon points="222.81 231.66 221.24 243.16 230.92 243.16 233.7 231.66 222.81 231.66" style="fill:#e0e0e0"></polygon><path d="M221.23,243l-2.15,3.88h20.18s.16-3.88-8.34-3.88Z" style="fill:#ebebeb"></path><path d="M266.07,134.68,250.28,93.16s-4.14-8,4.72-10.79c7.11-2.22,25.81-6.76,32.91-8.47a8.52,8.52,0,0,0,5.93-11.51,1.47,1.47,0,0,0-.1-.22s21,10,34.88,15.5,45.88,18.53,46.77,31.82c.74,11.12,1.42,25.19,1.42,25.19Z" style="fill:#e0e0e0"></path><polygon points="237.63 186.3 240.86 250.37 244.63 250.37 250.28 184.41 237.63 186.3" style="fill:#e0e0e0"></polygon><polygon points="357.69 160.59 361.81 246.39 366.51 246.03 370.62 157.22 357.69 160.59" style="fill:#e0e0e0"></polygon><path d="M231.44,133.53H376.81v32.58H332.66s-16.15-.54-28.54,8.61-20.19,12.92-31,12.92H199.67s0-13.73,14.81-21,17.49-13.19,17.23-16.15S231.44,133.53,231.44,133.53Z" style="fill:#e0e0e0"></path><path d="M245.06,96.6s-.25.66-.68,1.83a51.06,51.06,0,0,0-1.52,5.09c-.29,1.09-.6,2.28-.93,3.55s-.73,2.64-1.13,4.07a26,26,0,0,1-1.58,4.43,10.94,10.94,0,0,1-3.09,4,9,9,0,0,1-6.06,1.49,11,11,0,0,1-5.32-1.88l.34-.1a52.81,52.81,0,0,1-4.42,8.38c-.63,1-1.15,1.7-1.52,2.19a4.48,4.48,0,0,1-.61.73,5.06,5.06,0,0,1,.49-.81c.33-.52.82-1.27,1.41-2.25a59.46,59.46,0,0,0,4.23-8.42l.11-.26.24.16a10.49,10.49,0,0,0,5.09,1.76,8.57,8.57,0,0,0,5.72-1.41,10.57,10.57,0,0,0,2.93-3.84,25.48,25.48,0,0,0,1.58-4.33c.4-1.42.79-2.79,1.17-4.05s.69-2.45,1-3.54a41.37,41.37,0,0,1,1.69-5.06c.24-.58.46-1,.61-1.32A3.66,3.66,0,0,1,245.06,96.6Z" style="fill:#e0e0e0"></path><path d="M225.65,104.93s-.4,0-.82-.36a1.82,1.82,0,0,1,1.52-3.13c.58.08.83.38.79.43s-.33-.09-.8-.06a1.72,1.72,0,0,0-1.43.86,1.69,1.69,0,0,0,.2,1.66C225.38,104.72,225.68,104.85,225.65,104.93Z" style="fill:#e0e0e0"></path><path d="M406.34,178.53l2.14,1.09a47.29,47.29,0,0,1,10,7c.7.66,1.48,1.3,2.2,2.06L423,191.1a56.65,56.65,0,0,1,8.57,13.23,54.7,54.7,0,0,1,5,19.12,48.43,48.43,0,0,1-4.11,23.14c-.22.49-.43,1-.65,1.48s-.5,1-.75,1.43c-.53.95-1,1.93-1.6,2.88l-1.83,2.8c-.6.95-1.36,1.8-2,2.72a55.84,55.84,0,0,1-10.06,9.89A52.89,52.89,0,0,1,387,278.56l.17-.19a54,54,0,0,1-20.35,47.53,51.74,51.74,0,0,1-27.54,10.44,53.6,53.6,0,0,1-30.44-6.49l.28-.07a49.19,49.19,0,0,1-22.87,17A61,61,0,0,1,256.48,350a50.14,50.14,0,0,1-27.84-13.67,56.69,56.69,0,0,1-16.14-27.83l.36.16c-11.24,6.29-24.92,8.35-38.08,6.16a62.53,62.53,0,0,1-19.08-6.39,56.15,56.15,0,0,1-16.09-12.6,54.28,54.28,0,0,1-10.38-18,61.87,61.87,0,0,1-3.36-20.78,62.58,62.58,0,0,1,3.78-21,55.79,55.79,0,0,1,11.06-18.44c.22-.27.45-.53.68-.79l0,.3L131.5,199l-4.87-9a81.07,81.07,0,0,1-4.23-9.31A78.6,78.6,0,0,1,118.05,141a52.5,52.5,0,0,1,2.28-9.67,38.44,38.44,0,0,1,4.43-8.83,82.38,82.38,0,0,1,6-7.77,41.11,41.11,0,0,1,7.15-6.62,46.45,46.45,0,0,1,36.27-8.34l-.28.15a73.12,73.12,0,0,1,94.45-40.57l-.28.1A53.63,53.63,0,0,1,281.4,44.59a58.4,58.4,0,0,1,17.14-9.06,53.62,53.62,0,0,1,36.21.56,56.74,56.74,0,0,1,26.08,21.16,55.48,55.48,0,0,1,9.48,29.16l-.19-.16a35.63,35.63,0,0,1,14.49.3,42.79,42.79,0,0,1,12.72,5.17,46,46,0,0,1,10,8.13,25.07,25.07,0,0,1,2.08,2.31c.64.81,1.31,1.58,1.91,2.4l1.7,2.48c.59.8,1,1.7,1.51,2.53a54.66,54.66,0,0,1,2.55,5.15c.6,1.78,1.34,3.48,1.75,5.24a56.45,56.45,0,0,1,1.83,10.22,65.68,65.68,0,0,1-1.17,18,81.34,81.34,0,0,1-8.67,23.11c-1.4,2.44-2.51,4.27-3.32,5.44l-1.2,1.81,1.16-1.82c.8-1.19,1.9-3,3.28-5.47a81.8,81.8,0,0,0,8.57-23.11,65,65,0,0,0,1.13-17.93A55,55,0,0,0,418.63,120a50.61,50.61,0,0,0-1.75-5.21,48.69,48.69,0,0,0-2.54-5.12c-.5-.83-.92-1.72-1.5-2.52l-1.7-2.46c-.6-.81-1.26-1.58-1.9-2.38a26.2,26.2,0,0,0-2.07-2.3,45.76,45.76,0,0,0-10-8.07,42.81,42.81,0,0,0-12.63-5.12,35.35,35.35,0,0,0-14.36-.27l-.19,0v-.2a55.11,55.11,0,0,0-9.45-29,56.37,56.37,0,0,0-25.92-21,53.21,53.21,0,0,0-35.94-.53,58.12,58.12,0,0,0-17,9A53,53,0,0,0,268.42,59.7l-.1.16-.18-.07a72.63,72.63,0,0,0-93.82,40.34l-.08.19-.2,0a45.9,45.9,0,0,0-35.87,8.26,40.48,40.48,0,0,0-7.06,6.54,83.94,83.94,0,0,0-5.92,7.72,38.08,38.08,0,0,0-4.37,8.72,51.16,51.16,0,0,0-2.26,9.58,78,78,0,0,0,4.33,39.4c2.33,6.36,5.85,12.22,9.07,18.27l9.84,18.14.09.16-.13.15-.67.78a55.26,55.26,0,0,0-11,18.27,62.07,62.07,0,0,0-3.75,20.79,61.06,61.06,0,0,0,3.33,20.6A53.7,53.7,0,0,0,140,295.45a55.66,55.66,0,0,0,15.94,12.49,62.28,62.28,0,0,0,18.93,6.34c13,2.17,26.62.13,37.75-6.1l.29-.16.07.32a56.18,56.18,0,0,0,16,27.6,49.69,49.69,0,0,0,27.58,13.55,60.62,60.62,0,0,0,29.56-3.16,49,49,0,0,0,22.68-16.8l.11-.16.17.1a53.16,53.16,0,0,0,30.19,6.45,51.35,51.35,0,0,0,27.34-10.33,53.63,53.63,0,0,0,20.24-47.18l0-.18H387a52.57,52.57,0,0,0,28.3-10.68,56,56,0,0,0,10-9.82c.67-.92,1.43-1.76,2-2.71l1.82-2.78c.57-.94,1.06-1.91,1.59-2.86.25-.47.54-.93.75-1.42l.65-1.47a48.33,48.33,0,0,0,4.13-23,54.81,54.81,0,0,0-4.94-19.06,56.87,56.87,0,0,0-8.5-13.2l-2.23-2.42c-.72-.76-1.5-1.4-2.19-2.06a45.28,45.28,0,0,0-4-3.31,46.65,46.65,0,0,0-6-3.75Z" style="fill:#263238"></path></g><g id="freepik--character-2--inject-6"><path d="M359.47,155.52A127.4,127.4,0,0,1,361.62,192c-.39,4.62-1,9.59,1.32,13.62,2,3.5,5.74,5.55,8.94,8s6.2,6.09,5.54,10.07c-.39,2.35-2,4.45-2,6.83s2,4.54,3,6.87a10.81,10.81,0,0,1-2.34,11.06,15.76,15.76,0,0,1-10.65,4.67A29.45,29.45,0,0,1,353.76,251c-4.47-1.61-8.92-4-11.44-8A18.44,18.44,0,0,1,340,232.12,64.87,64.87,0,0,1,342,221c4.35-18.21,6.64-36.84,8.93-55.43" style="fill:#263238"></path><path d="M343.75,144.83c-.89-6.11-6-11-11.86-13s-11.65-1.76-17.73-.67a28.53,28.53,0,0,0-19.3,12.07c-4.48,6.12-7.38,14.59-8.68,22.06s-4.86,14.45-11.09,18.77c-4.42,3.07-10.06,3.72-15.44,3.75s-10.84-.47-16.09.68-10.47,4.35-12.23,9.43c-1.07,3.08-.9,6.76-3.12,9.14-3,3.18-8.3,2.1-12.25,3.93a8.68,8.68,0,0,0,.61,16c-2.19-.11-3.6,2.66-3,4.75s2.49,3.55,4.31,4.77c20.24,13.46,47.7,15.23,69.5,4.47,7.13-3.51,13.62-8.23,20.78-11.67s15.41-5.58,23.08-3.48" style="fill:#263238"></path><path d="M349.7,145.64l0,4.81,1,71.89c.12,8.35-7,15.1-15.9,15.15h0c-9,.06-16.55-6.72-16.81-15.15-.27-8.84-.71-18.15-.71-18.15s-11.46-1.58-14.23-16.39c-1.38-7.36-.61-18.11-.26-28,.32-8.94,7.27-17.2,16.19-16.51Z" style="fill:#aa6550"></path><path d="M312.5,167.23c-.25-.28-2,.61-4.38.35s-4-1.47-4.28-1.24c-.13.09.1.57.81,1.13a6.84,6.84,0,0,0,3.4,1.3,6.42,6.42,0,0,0,3.51-.59C312.33,167.78,312.62,167.35,312.5,167.23Z" style="fill:#263238"></path><path d="M318.07,179.86a13.44,13.44,0,0,0-3.35-.51c-.52,0-1-.13-1.12-.48a2.7,2.7,0,0,1,.31-1.57c.46-1.28.93-2.62,1.44-4,2-5.74,3.42-10.46,3.19-10.54s-2,4.52-4,10.26l-1.38,4a3.06,3.06,0,0,0-.21,2.07,1.32,1.32,0,0,0,.88.74,3.78,3.78,0,0,0,.89.1A13.35,13.35,0,0,0,318.07,179.86Z" style="fill:#263238"></path><path d="M317.33,204.19a37.81,37.81,0,0,0,19.77-5.87s-4.55,10.35-19.48,9.37Z" style="fill:#844334"></path><path d="M324.35,156.41c.22.55,2.26.23,4.68.45s4.38.83,4.68.32c.14-.25-.21-.76-1-1.28a8.16,8.16,0,0,0-7.14-.59C324.69,155.69,324.26,156.14,324.35,156.41Z" style="fill:#263238"></path><path d="M305.51,158.65c.37.45,1.77-.07,3.47-.14s3.15.23,3.47-.27c.14-.24-.1-.7-.74-1.12a4.76,4.76,0,0,0-2.85-.69,4.85,4.85,0,0,0-2.75,1C305.53,157.94,305.34,158.42,305.51,158.65Z" style="fill:#263238"></path><path d="M320,189c-.55.22-1.24.19-1.61.65a1.22,1.22,0,0,0-.05,1.61,1.19,1.19,0,0,0,1.34.13,3.21,3.21,0,0,0,1-1,5.18,5.18,0,0,0,1.2-2.45c0-.27.06-.93-.05-1s-.11.08-.19.13c-.37.22-.29,1.2-.66,1.41" style="fill:#FF7F11"></path><path d="M316.5,185a1.63,1.63,0,0,0,.44,1.22,1.65,1.65,0,0,0,1.43.09l2-.47a.89.89,0,0,0,.61-.33.65.65,0,0,0-.11-.73,1.51,1.51,0,0,0-1.14-.52,4.33,4.33,0,0,0-1.28.2l-1.94.5" style="fill:#fafafa"></path><path d="M316.8,186a2,2,0,0,1-.85-.61.68.68,0,0,1,.11-.94c.39-.24.91.14,1.34,0A2,2,0,0,0,318,184a1.89,1.89,0,0,1,1.87-.19,3.31,3.31,0,0,1,1.45,1.3,16.14,16.14,0,0,0-4.41.88" style="fill:#FF7F11"></path><path d="M319.07,189.15a5.41,5.41,0,0,0,1.33-.49,2.22,2.22,0,0,0,.79-2.84c-.14-.28-.34-.47-.54-.47a5.1,5.1,0,0,0-.87.13l-1.58.29a4.4,4.4,0,0,1-1.49.14,4.27,4.27,0,0,1,1.4-.49l1.57-.41a4.8,4.8,0,0,1,1-.17,1.19,1.19,0,0,1,1,.74,2.63,2.63,0,0,1,.09,2.12,2.46,2.46,0,0,1-1.16,1.28C319.68,189.42,319,189.19,319.07,189.15Z" style="fill:#263238"></path><path d="M332.74,166c-.3-.2-1.74,1-4,1.34s-4.06-.43-4.27-.16c-.1.12.23.51,1,.86a6.55,6.55,0,0,0,3.46.41,6.21,6.21,0,0,0,3.13-1.35C332.71,166.55,332.88,166.1,332.74,166Z" style="fill:#263238"></path><path d="M326.3,179.25a.65.65,0,1,1-.06,0" style="fill:#844334"></path><path d="M317.33,142.06a15.31,15.31,0,0,0,12.74,10.8c1.51.16,3.24.18,4.26,1.32s.83,3,.94,4.55a9.4,9.4,0,0,0,4,7c1.34.92,3,1.53,3.89,2.88,1.32,2,.57,4.58-.16,6.84-1,3.06-1.84,6.41-.75,9.44.75,2.1,2.41,4.15,1.79,6.29a8.39,8.39,0,0,1-1.69,2.63,14.09,14.09,0,0,0-2.29,12.53c1.11,3.63,4.06,6.9,7.82,7.44a16.07,16.07,0,0,0,6-.66c1.85-.45,3.83-1,5.08-2.41s1.46-3.24,1.69-5c2.25-17.24,3.8-35-.64-51.81-1.41-5.34-3.7-10.88-8.36-13.84-4.36-2.77-9.93-2.71-15-1.88s-10.15,2.34-15.31,2.16a7.28,7.28,0,0,0-2.38.13,2.07,2.07,0,0,0-1.54,1.65" style="fill:#263238"></path><path d="M356,158.35a6.92,6.92,0,1,1-6.92-6.92A6.92,6.92,0,0,1,356,158.35Z" style="fill:#FF7F11"></path><path d="M348.3,165.48c-.08,0,.18-.76.32-2a11.16,11.16,0,0,0-.5-4.7,9.8,9.8,0,0,0-2.48-4,3,3,0,0,0-1.74-.77s.18-.12.56-.1a2.67,2.67,0,0,1,1.41.58,8.92,8.92,0,0,1,2.74,4.11,10.07,10.07,0,0,1,.38,4.92A4.5,4.5,0,0,1,348.3,165.48Z" style="fill:#263238"></path><path d="M355.42,155.3c0,.08-.51,0-1.27.11a6.35,6.35,0,0,0-2.7,1.21,15.07,15.07,0,0,0-2.16,2.14c-.52.6-.86,1-.91.93s.17-.49.62-1.15a10.05,10.05,0,0,1,2.14-2.34,5.39,5.39,0,0,1,3-1.15C355,155,355.44,155.24,355.42,155.3Z" style="fill:#263238"></path><path d="M349.49,151s.16,0,.35.13a1.56,1.56,0,0,1,.5.88,8.62,8.62,0,0,1-.11,3.16,7.35,7.35,0,0,1-1.9,4,30.9,30.9,0,0,0,1.39-4.09,12.2,12.2,0,0,0,.26-3A1.93,1.93,0,0,0,349.49,151Z" style="fill:#263238"></path><path d="M236.61,181.57a2.88,2.88,0,0,0,1.29-.54,3.52,3.52,0,0,0,1-3.65,2.82,2.82,0,0,0-2-1.9,4.34,4.34,0,0,0-3.29.48,4.43,4.43,0,0,0-2.19,3.09,6.69,6.69,0,0,0,.72,4.28,9.6,9.6,0,0,0,3.32,3.52,22.31,22.31,0,0,0,4.8,2.35,36.35,36.35,0,0,0,11.57,2.37,31.81,31.81,0,0,0,12.83-2.08,25.28,25.28,0,0,0,11.05-8.33,45.19,45.19,0,0,0,6.34-12.52c1.51-4.31,2.63-8.58,3.93-12.59A61,61,0,0,1,290.58,145a28.06,28.06,0,0,1,6.54-8.11,22.8,22.8,0,0,1,7.54-4.12,17.24,17.24,0,0,1,6.44-.79,15.31,15.31,0,0,1,2.34.35c.66.2,1.22.37,1.66.53l1,.45a2.31,2.31,0,0,1,.32.16,15.64,15.64,0,0,0-5.31-1.29,17.52,17.52,0,0,0-6.33.86,22.64,22.64,0,0,0-7.39,4.14,27.66,27.66,0,0,0-6.4,8,61.17,61.17,0,0,0-4.49,11c-1.28,4-2.38,8.27-3.9,12.61a45.62,45.62,0,0,1-6.4,12.66,25.89,25.89,0,0,1-11.28,8.5,32.17,32.17,0,0,1-13,2.08,36.78,36.78,0,0,1-11.71-2.44,23.16,23.16,0,0,1-4.88-2.43,10,10,0,0,1-3.42-3.69,7,7,0,0,1-.71-4.51,4.73,4.73,0,0,1,2.37-3.28,4.52,4.52,0,0,1,3.5-.45,3,3,0,0,1,2.08,2.07,3.61,3.61,0,0,1-1.13,3.79A2,2,0,0,1,236.61,181.57Z" style="fill:#263238"></path><path d="M261.81,259.1l-1.74,24.74s25.34-51.23,28.29-55.54S307,223.61,307,223.61l-8.47,63.13L296.84,299l-12,17.22a27.08,27.08,0,0,1-24.05,11.59h0c-.39,0-.79-.06-1.18-.1-13.15-1.45-22.9-13-22.82-26.19l.28-44.69Z" style="fill:#FF7F11"></path><path d="M284.88,316.17a4.84,4.84,0,0,1,0-.67c0-.44.08-1.09.1-1.92a44.49,44.49,0,0,0-.56-7c-.47-3-1.27-6.42-2.26-10.25s-2.12-8.05-2.89-12.57a32.45,32.45,0,0,1,0-12.89,41.42,41.42,0,0,1,3.81-9.84c1.4-2.66,2.68-4.72,3.57-6.14l1.05-1.62a3.1,3.1,0,0,1,.39-.54,3.18,3.18,0,0,1-.3.6l-1,1.67c-.83,1.45-2.07,3.53-3.42,6.2a42.45,42.45,0,0,0-3.66,9.77,24.75,24.75,0,0,0-.62,6.11c0,1.07.11,2.16.16,3.26s.25,2.21.47,3.33c.76,4.49,1.89,8.7,2.84,12.54a104.45,104.45,0,0,1,2.15,10.32,38.77,38.77,0,0,1,.4,7.09c-.05.84-.15,1.49-.2,1.93A2.66,2.66,0,0,1,284.88,316.17Z" style="fill:#263238"></path><path d="M288.05,274.34a40.84,40.84,0,0,0-1.88-4.5,41.39,41.39,0,0,0-2.85-4,11.51,11.51,0,0,1,4.73,8.47Z" style="fill:#fafafa"></path><path d="M297.18,250.88a24,24,0,0,0-1.72-4.51,23.32,23.32,0,0,0-3-3.79,9.71,9.71,0,0,1,4.72,8.3Z" style="fill:#fafafa"></path><path d="M246.41,283.69a10.19,10.19,0,0,1,2.12-4.81,10.05,10.05,0,0,1,3.95-3.47,38.37,38.37,0,0,0-3.53,3.78A41,41,0,0,0,246.41,283.69Z" style="fill:#fafafa"></path><path d="M251.6,309.67a10.58,10.58,0,0,1-5.26-6.84c.15-.06.85,1.78,2.31,3.66S251.69,309.54,251.6,309.67Z" style="fill:#fafafa"></path><path d="M279.73,315.25a15.48,15.48,0,0,1-1.93,0,13.78,13.78,0,0,0-8.47,3,18.56,18.56,0,0,1-1.48,1.24,4.5,4.5,0,0,1,1.24-1.51,12,12,0,0,1,8.72-3.12A4.84,4.84,0,0,1,279.73,315.25Z" style="fill:#fafafa"></path><path d="M350.52,224.44l-67.15,61.15L286.84,318l-3.25,29.16a53.65,53.65,0,0,0,25.25-17.76s24.53,14.56,50,1v-47.9L375.7,257S377.75,224.11,350.52,224.44Z" style="fill:#FF7F11"></path><polyline points="305.45 223.61 321.01 220.4 344.37 220.4 358.87 225.59 297.17 280.76 305.19 225.53" style="fill:#aa6550"></polyline><path d="M343.9,292.09s-48.89-9.15-55.11-9.28-11.65,32.85-5,34.78c8.21,2.35,60.4,11.86,71.2,10.23,11.87-1.79,20-21,20.7-41.52a376,376,0,0,0-1-40.69L350,241.3Z" style="fill:#FF7F11"></path><path d="M340.44,327.82a1,1,0,0,1-.28,0l-.84-.13-3.22-.54-12-2.13-41.49-7.48-.1,0-.06-.09a13.08,13.08,0,0,1-1.79-5.3,27.12,27.12,0,0,1,0-5.77,79.34,79.34,0,0,1,2.17-11.75c.33-1.37.67-2.73,1-4.09s.54-2.69.92-4.08a5.47,5.47,0,0,1,2.52-3.34,4.67,4.67,0,0,1,2.06-.53,4.56,4.56,0,0,1,1.05.1l1,.17c5.26.91,10.31,1.9,15.13,2.78s9.42,1.61,13.74,2.16a92.25,92.25,0,0,1,11.95,2.14,52.84,52.84,0,0,1,9.44,3.38,36.55,36.55,0,0,1,6.45,4,29.8,29.8,0,0,1,3.49,3.26l.81.95a1.76,1.76,0,0,1,.26.33,3.19,3.19,0,0,1-.3-.3l-.85-.91a32.15,32.15,0,0,0-3.54-3.17,37.14,37.14,0,0,0-6.45-3.85,51.8,51.8,0,0,0-9.4-3.29,93.78,93.78,0,0,0-11.91-2.07c-4.34-.53-8.95-1.26-13.77-2.12s-9.88-1.85-15.14-2.75a10.42,10.42,0,0,0-1.94-.25,4.17,4.17,0,0,0-1.83.46,5,5,0,0,0-2.27,3.05c-.34,1.27-.56,2.69-.91,4s-.66,2.72-1,4.1a80.44,80.44,0,0,0-2.16,11.66,27.41,27.41,0,0,0,0,5.66,12.68,12.68,0,0,0,1.7,5.1l-.17-.11,41.45,7.66,12,2.27,3.21.63.82.17Z" style="fill:#263238"></path><path d="M356.27,298.93c-.08,0-.59-1.07-1.83-2.54a14.86,14.86,0,0,0-6-4.29,14.71,14.71,0,0,0-7.37-.72c-1.9.29-3,.79-3,.7a2.45,2.45,0,0,1,.76-.39A11.39,11.39,0,0,1,341,291a13.84,13.84,0,0,1,13.75,5.15,11.42,11.42,0,0,1,1.24,2A2.36,2.36,0,0,1,356.27,298.93Z" style="fill:#263238"></path><path d="M342.53,252.22a8,8,0,0,1-.16,1.55c-.16,1.08-.37,2.49-.61,4.19-.52,3.54-1.18,8.43-1.76,13.86s-1,10.35-1.2,13.91c-.12,1.71-.22,3.14-.29,4.23a9.91,9.91,0,0,1-.16,1.55,8.29,8.29,0,0,1,0-1.56c0-1,0-2.45.12-4.24.15-3.57.47-8.51,1.05-13.95s1.3-10.33,1.91-13.86c.31-1.76.57-3.18.78-4.16A10.42,10.42,0,0,1,342.53,252.22Z" style="fill:#263238"></path><path d="M334.78,301.06a63.36,63.36,0,0,0-6.08,3.41,66,66,0,0,0-5.37,4.47,6.19,6.19,0,0,1,1.28-1.64,23.36,23.36,0,0,1,8.19-5.64A6.37,6.37,0,0,1,334.78,301.06Z" style="fill:#fafafa"></path><path d="M302.59,300.58a5,5,0,0,1-1.25-1.56,12.16,12.16,0,0,1-1.26-9.38,5,5,0,0,1,.79-1.84,16.31,16.31,0,0,1-.43,1.92,14.18,14.18,0,0,0-.16,4.67,14.53,14.53,0,0,0,1.38,4.45A16.78,16.78,0,0,1,302.59,300.58Z" style="fill:#fafafa"></path><path d="M318.17,323.77c-.16,0-.58-2.65-1.95-5.66s-3.07-5.11-2.94-5.21a14,14,0,0,1,3.41,5A13.86,13.86,0,0,1,318.17,323.77Z" style="fill:#fafafa"></path><path d="M355.45,311c.16,0-.51,2.39-.51,5.36s.65,5.33.49,5.37a14.62,14.62,0,0,1,0-10.73Z" style="fill:#fafafa"></path><path d="M351.87,284.57a16.58,16.58,0,0,1-1.54-1.26,13.78,13.78,0,0,0-8.81-2.95c-1.22,0-2,.16-2,.08a4.89,4.89,0,0,1,2-.45,12.14,12.14,0,0,1,9.07,3A5.25,5.25,0,0,1,351.87,284.57Z" style="fill:#fafafa"></path><path d="M363.68,260.49a2.94,2.94,0,0,1-1.47-.4,8,8,0,0,1-4.4-5.64,2.91,2.91,0,0,1,0-1.52,9,9,0,0,1,.39,1.43,9.22,9.22,0,0,0,1.58,3.11,9.43,9.43,0,0,0,2.63,2.29A9.87,9.87,0,0,1,363.68,260.49Z" style="fill:#fafafa"></path><path d="M357,242.93a14.56,14.56,0,0,1-1-1.54,11,11,0,0,0-7.15-4.55c-1.11-.19-1.82-.17-1.82-.25a3.93,3.93,0,0,1,1.86-.12,9.82,9.82,0,0,1,4.27,1.49,9.93,9.93,0,0,1,3.15,3.24A4.27,4.27,0,0,1,357,242.93Z" style="fill:#fafafa"></path><path d="M338,275.79a2.64,2.64,0,0,1-1.22.53,7.1,7.1,0,0,1-6.1-1.46c-.63-.54-.9-1-.86-1a9.32,9.32,0,0,0,8.18,2Z" style="fill:#fafafa"></path><path d="M319,275.79a15.67,15.67,0,0,1-1.94,0,13,13,0,0,0-8.38,3.3c-.88.79-1.33,1.38-1.4,1.33a4.59,4.59,0,0,1,1.15-1.59,11.4,11.4,0,0,1,8.64-3.4A4.84,4.84,0,0,1,319,275.79Z" style="fill:#fafafa"></path><path d="M292,334.47a11.06,11.06,0,0,1-.83-3.37,11.78,11.78,0,0,1-.32-3.46,11.28,11.28,0,0,1,.83,3.37A11.78,11.78,0,0,1,292,334.47Z" style="fill:#fafafa"></path><g style="opacity:0.2"><path d="M285.6,318.05l8.08,3.49c4.43,1.91,8.86,3.82,13.43,5.39,12.64,4.34,40.48,9.13,51.76-.35a39.38,39.38,0,0,1-20.65.84"></path></g><g style="opacity:0.2"><path d="M338.94,292.1a20.3,20.3,0,0,1,16.62,11.81c.44,1,.66,2.45-.31,3a1.63,1.63,0,0,1-1.92-.56,5.7,5.7,0,0,1-.88-2,17.54,17.54,0,0,0-13.95-11.62"></path></g><g style="opacity:0.2"><path d="M257,258.74c.63,5.21-.22,10.48-1.43,15.59s-2.76,10.14-3.58,15.33-.86,10.61.92,15.55,5.59,9.33,10.61,10.86,11.14-.35,13.7-4.92a18.11,18.11,0,0,0,1.83-7.52c.42-5.17,1.35-10.65.91-15.83-.57-6.66-1.8-13.33.37-19.65.41-1.22,1-11.17-.25-11.53-.79-.23-9.22,5.83-9.79,6.42l-10.19,20.8c.71-7.13.81-14.45,1.52-21.58a5,5,0,0,0,0-2.3c-.41-.88-.95-1-1.92-1.09l-2.74-.13"></path></g><path d="M371.18,302.09a20.12,20.12,0,0,0-5.71-14.47,6.94,6.94,0,0,1,1.78,1.57,16.41,16.41,0,0,1,3,4.9,16.21,16.21,0,0,1,1.14,5.63A6.69,6.69,0,0,1,371.18,302.09Z" style="fill:#fafafa"></path><path d="M264.13,172.52a7.59,7.59,0,0,0-6.35,2.75,1.72,1.72,0,0,0-.48,1.08c0,.73.84,1.16,1.56,1.26a4.73,4.73,0,0,0,5.39-5.4" style="fill:#455a64"></path><path d="M257.47,163c.09,0,.41,1.4,1.5,3.46a17.31,17.31,0,0,0,14.59,9.28c2.33.11,3.76-.21,3.78-.11a3.34,3.34,0,0,1-1,.26,15,15,0,0,1-2.8.22,16.77,16.77,0,0,1-14.91-9.48,15.47,15.47,0,0,1-1-2.62A3.61,3.61,0,0,1,257.47,163Z" style="fill:#263238"></path><path d="M261.88,157.61a6.92,6.92,0,1,1-8.95-4A6.92,6.92,0,0,1,261.88,157.61Z" style="fill:#FF7F11"></path><path d="M257.23,167c-.09,0-.11-.77-.41-2a11.14,11.14,0,0,0-2.16-4.2,9.57,9.57,0,0,0-3.74-2.83,3,3,0,0,0-1.9-.1s.13-.18.48-.3a2.76,2.76,0,0,1,1.53,0,8.85,8.85,0,0,1,4,2.86,10.06,10.06,0,0,1,2.12,4.45A4.42,4.42,0,0,1,257.23,167Z" style="fill:#263238"></path><path d="M260.22,155c0,.09-.48.18-1.14.56a6.13,6.13,0,0,0-2.09,2.1,14.84,14.84,0,0,0-1.25,2.78c-.27.74-.45,1.2-.52,1.18s0-.51.17-1.29a10.17,10.17,0,0,1,1.16-2.95,5.32,5.32,0,0,1,2.36-2.14A2,2,0,0,1,260.22,155Z" style="fill:#263238"></path><path d="M253.15,153.11s.13-.08.37,0a1.58,1.58,0,0,1,.78.64,8.55,8.55,0,0,1,1,3,7.4,7.4,0,0,1-.34,4.4,32.76,32.76,0,0,0-.17-4.31,11.37,11.37,0,0,0-.84-2.88A1.87,1.87,0,0,0,253.15,153.11Z" style="fill:#263238"></path><path d="M273.77,172.87a7.79,7.79,0,0,1-3.16-7.81.74.74,0,0,1,.29-.53c.27-.15.58.06.81.27a8.8,8.8,0,0,1,2.42,8.66" style="fill:#455a64"></path><path d="M257.6,287a6.22,6.22,0,0,0,.67,7.44,5.62,5.62,0,0,0,1.39,7.09,10.28,10.28,0,0,0-.55,3.59,4.16,4.16,0,0,0,1.61,3.15,6.42,6.42,0,0,0,2.32.81l5.61,1.18c1,.21,2.25.35,2.91-.44a1.93,1.93,0,0,0,.08-2.09,4.91,4.91,0,0,0-1.54-1.57,24.69,24.69,0,0,0-5.47-2.95" style="fill:#aa6550"></path><polyline points="263.68 250.58 263.68 350.19 267.02 350.19 267.02 250.58 263.68 250.58" style="fill:#263238"></polyline><path d="M284.4,288.84l-9.41-5.4a7.65,7.65,0,0,0-6.45-.55l-10.82,4,3.74,18.74,13.39-2.23,6,2.71Z" style="fill:#aa6550"></path><path d="M262.87,261.62a11.88,11.88,0,0,1-3.35-16.52l16-23.91a11.84,11.84,0,0,1,15.58-3.79h0a11.82,11.82,0,0,1,4.22,16.74l-16,24.12a11.87,11.87,0,0,1-16.44,3.36Z" style="fill:#455a64"></path><path d="M289.23,243.47c-.08.12-4.67-2.7-10.25-6.3s-10.05-6.62-10-6.74,4.67,2.7,10.25,6.3S289.31,243.35,289.23,243.47Z" style="fill:#263238"></path><path d="M293,237.76c-.07.12-4.66-2.71-10.25-6.31s-10.05-6.62-10-6.74,4.67,2.7,10.25,6.3S293.06,237.64,293,237.76Z" style="fill:#263238"></path><path d="M296.73,232c-.07.12-4.66-2.7-10.25-6.31s-10-6.62-10-6.74,4.67,2.7,10.26,6.31S296.81,231.92,296.73,232Z" style="fill:#263238"></path><path d="M287.92,216.11a19.61,19.61,0,0,1-1.67,2.8c-1.08,1.69-2.61,4-4.33,6.54s-3.3,4.83-4.46,6.46a22.07,22.07,0,0,1-2,2.59,19.61,19.61,0,0,1,1.67-2.8c1.08-1.69,2.61-4,4.33-6.54s3.29-4.82,4.46-6.46A20.58,20.58,0,0,1,287.92,216.11Z" style="fill:#263238"></path><path d="M294.51,220.29a18.85,18.85,0,0,1-1.55,2.9c-1,1.75-2.53,4.13-4.27,6.7s-3.38,4.86-4.59,6.49a18.42,18.42,0,0,1-2.07,2.56,22.59,22.59,0,0,1,1.77-2.78l4.46-6.56c1.73-2.56,3.28-4.9,4.39-6.6A23.83,23.83,0,0,1,294.51,220.29Z" style="fill:#263238"></path><path d="M291.11,218.43a11.3,11.3,0,0,0-11.73,1.73,26.78,26.78,0,0,0-5.87,6.57,34.93,34.93,0,0,1-2.09,3.06,3.76,3.76,0,0,1,.42-.91c.3-.56.76-1.37,1.36-2.35a24.43,24.43,0,0,1,5.87-6.79,12.55,12.55,0,0,1,8.54-2.55,8.32,8.32,0,0,1,2.64.71A2.66,2.66,0,0,1,291.11,218.43Z" style="fill:#fafafa"></path><path d="M257.72,258.78l-15-1.47A115.49,115.49,0,0,1,247,242.68c.61-1.67,12.26-13.3,13.77-13s19.37.5,18.36,4.27-10.31,1.51-10.31,1.51,12.66,6.05,10.14,8.32S267.6,241,267.6,241s11,5.66,9.55,8.19c-.78,1.33-12.82-2.15-12.82-2.15s10.42,2.81,8.55,6.16c-.67,1.2-11.8-2.56-11.8-2.56l-2.78,2.56Z" style="fill:#aa6550"></path><path d="M272.29,250.53a7.11,7.11,0,0,1-1.7-.79,42.06,42.06,0,0,0-4-1.93,16.51,16.51,0,0,0-4.28-1.11c-1.13-.13-1.84-.08-1.85-.16a4.28,4.28,0,0,1,1.88-.21,13.53,13.53,0,0,1,4.44,1,25.8,25.8,0,0,1,4,2.1A6.56,6.56,0,0,1,272.29,250.53Z" style="fill:#844334"></path><path d="M276.48,246.85a9.07,9.07,0,0,1-1.93-1.11,51.82,51.82,0,0,0-4.62-2.68,19.56,19.56,0,0,0-5-1.72c-1.33-.26-2.18-.27-2.18-.35a5.46,5.46,0,0,1,2.24,0,16.48,16.48,0,0,1,5.17,1.62,31.55,31.55,0,0,1,4.59,2.84A9.81,9.81,0,0,1,276.48,246.85Z" style="fill:#844334"></path><path d="M271.74,236.9a5.18,5.18,0,0,1-1.56-.65,15.28,15.28,0,0,0-1.64-.73,5.51,5.51,0,0,0-2.11-.15,19.85,19.85,0,0,0-2.19.32l-1.79.3a5.64,5.64,0,0,1-1.69.14,5.62,5.62,0,0,1,1.61-.5l1.79-.41a15.47,15.47,0,0,1,2.23-.37,5.51,5.51,0,0,1,2.31.22,11.51,11.51,0,0,1,1.66.85A6.37,6.37,0,0,1,271.74,236.9Z" style="fill:#844334"></path></g><g id="freepik--character-1--inject-6"><ellipse cx="163.55" cy="220.96" rx="10.96" ry="11.74" style="fill:#FF7F11"></ellipse><path d="M162.68,209.22a11,11,0,0,1-1.21.61,10.14,10.14,0,0,0-2.88,2.21,11.07,11.07,0,0,0-2.37,4.78,12.58,12.58,0,0,0,3.3,12.16,10.05,10.05,0,0,0,4.6,2.67,7.27,7.27,0,0,0,3.59.06c.84-.21,1.26-.46,1.29-.41s-.09.08-.3.2a4.52,4.52,0,0,1-.93.41,7.06,7.06,0,0,1-3.74.1,10.25,10.25,0,0,1-4.85-2.68,12.88,12.88,0,0,1-3.43-12.63,11.18,11.18,0,0,1,2.57-4.91,9.27,9.27,0,0,1,3.07-2.14,6.22,6.22,0,0,1,1-.35A1.12,1.12,0,0,1,162.68,209.22Z" style="fill:#263238"></path><path d="M154,227.05c-.07,0-.16-.22-.12-.6a2,2,0,0,1,.69-1.28,2,2,0,0,1,1.38-.48c.38,0,.58.15.57.21s-.89,0-1.61.66S154.18,227.05,154,227.05Z" style="fill:#263238"></path><path d="M154.5,223.44c-.05-.14.28-.38.76-.39s.83.2.78.34-.38.16-.77.18S154.55,223.57,154.5,223.44Z" style="fill:#263238"></path><path d="M154.5,213.74c-.07-.13.58-.46,1.36-.16s1,1,.89,1-.49-.33-1.08-.55S154.54,213.88,154.5,213.74Z" style="fill:#263238"></path><path d="M191,471.6s2.1-6.84,1.68-9.73-4.31-5.52-4.31-5.52l4.22-109.66s.54-48-24.84-62.87L152.6,280l-37.37-2.21c-1.21.41-45.13,16.92-51.17,23.37L83,397.86S80.69,426.43,78.4,447c-.47,4.19-3.62,24.93-3.62,24.93Z" style="fill:#263238"></path><g style="opacity:0.30000000000000004"><path d="M79.09,440.51c.36,2.67,1.37,5.92,3.93,6.74a16.6,16.6,0,0,0,8,.12c9.36-1.67,18-6.07,26.45-10.42,15.81-8.12,31.77-16.34,45.43-27.73,1.92-1.6,4-4.1,2.79-6.31-1.33-2.5-5.08-1.66-7.65-.47-26.82,12.36-52.12,25.71-78.94,38.07"></path></g><path d="M173.42,286.81s16.73,5.58,22.14,21.08c6,17.12,9.94,50.36,9.94,50.36L189,360.33Z" style="fill:#263238"></path><path d="M64.06,301.16s-9,11.8-13.34,26.14-6.86,55.9-6.86,55.9l45-.63L91.25,346S95.79,285,64.06,301.16Z" style="fill:#263238"></path><path d="M199.6,322.83a5.21,5.21,0,0,0-1.25-1.18,6.16,6.16,0,0,0-4.73-.9c-2.18.32-4.3,2-7.09,3.09a7.93,7.93,0,0,1-4.63.58c-1.65-.36-3.08-1.54-4.58-2.68a12.16,12.16,0,0,0-2.5-1.57,4,4,0,0,0-3.11-.14,5.28,5.28,0,0,0-2.42,2.16c-.62.9-1.12,1.89-1.77,2.77a4.9,4.9,0,0,1-2.54,2,5.93,5.93,0,0,1-3.34,0,12.79,12.79,0,0,1-3.26-1.4c-1-.61-2-1.36-3.11-2a14.77,14.77,0,0,0-3.48-1.69,6.47,6.47,0,0,0-4,0,10.53,10.53,0,0,0-3.46,2.11c-1,.88-2,1.83-3.05,2.66a7.74,7.74,0,0,1-3.56,1.75,7.41,7.41,0,0,1-4-.42c-2.6-1-4.9-2.74-7.46-4.15a14.09,14.09,0,0,0-4.07-1.62,7.88,7.88,0,0,0-4.33.34c-2.73,1.06-4.75,3.12-7.17,4.27a8.64,8.64,0,0,1-1.86.67,7.45,7.45,0,0,1-1.94.12,10.65,10.65,0,0,1-3.73-1.07c-2.37-1.07-4.51-2.57-7-3.37a7.6,7.6,0,0,0-3.78-.34,7.18,7.18,0,0,0-3.29,1.68c-1.83,1.54-3.27,3.48-5.37,4.14a6.35,6.35,0,0,1-3.15.08,21.77,21.77,0,0,1-3-.9c-1.93-.67-4-1.37-5.91-.93a6.08,6.08,0,0,0-2.54,1.26c-.73.56-1.37,1.17-2,1.73a10.61,10.61,0,0,1-2,1.45,6.8,6.8,0,0,1-2.17.7,9,9,0,0,1-4.09-.42,12.26,12.26,0,0,1-3.11-1.59,28,28,0,0,1-3.68-3.18l-.9-.9a2.12,2.12,0,0,0-.32-.3,3.12,3.12,0,0,0,.28.33l.86.94a25.58,25.58,0,0,0,3.65,3.28,12.37,12.37,0,0,0,3.14,1.66,9.33,9.33,0,0,0,4.21.47,6.9,6.9,0,0,0,2.27-.72,10.59,10.59,0,0,0,2-1.47c1.29-1.1,2.57-2.5,4.41-2.88s3.76.26,5.69,1a22.67,22.67,0,0,0,3.06.93,6.65,6.65,0,0,0,3.37-.08,8.15,8.15,0,0,0,3-1.82c.88-.77,1.68-1.63,2.59-2.38a6.66,6.66,0,0,1,3.08-1.57,7.16,7.16,0,0,1,3.54.33c2.35.78,4.49,2.27,6.91,3.38a11.34,11.34,0,0,0,3.89,1.11,7.65,7.65,0,0,0,2.08-.13,8.64,8.64,0,0,0,2-.7c2.52-1.21,4.54-3.25,7.13-4.25a7.44,7.44,0,0,1,4-.31,13.2,13.2,0,0,1,3.92,1.57c2.52,1.38,4.82,3.16,7.53,4.18a7.85,7.85,0,0,0,4.26.43,8.19,8.19,0,0,0,3.78-1.85c2.17-1.69,3.91-3.89,6.36-4.7a6,6,0,0,1,3.69,0,14.27,14.27,0,0,1,3.36,1.62c1.07.66,2.06,1.39,3.14,2a13.36,13.36,0,0,0,3.37,1.45,6.39,6.39,0,0,0,3.6,0,5.34,5.34,0,0,0,2.75-2.13c.67-.92,1.17-1.91,1.76-2.79a5,5,0,0,1,2.22-2,3.63,3.63,0,0,1,2.82.11A12.66,12.66,0,0,1,177.1,322c1.5,1.13,3,2.34,4.72,2.71a8.23,8.23,0,0,0,4.82-.63c2.83-1.11,4.91-2.83,7-3.17a6.13,6.13,0,0,1,4.64.8A12.31,12.31,0,0,1,199.6,322.83Z" style="fill:#fafafa"></path><path d="M204.9,349.86a2.43,2.43,0,0,0-.44,0l-1.3.13a11.11,11.11,0,0,1-4.91-.12c-1.06-.24-2.26-.45-3.56-.67s-2.69-.55-4.23-.73a11.74,11.74,0,0,0-5,.36c-1.7.5-3.35,1.37-5.17,2a9.94,9.94,0,0,1-5.88.17c-2-.48-4-1.42-6.21-2.17a11.58,11.58,0,0,0-7-.68c-2.43.68-4.38,2.46-6.8,3.06a6,6,0,0,1-1.84.13,9.38,9.38,0,0,1-1.85-.44c-1.22-.43-2.4-1.05-3.69-1.5a5.89,5.89,0,0,0-4.14-.14,15,15,0,0,0-3.5,2.33,8.39,8.39,0,0,1-1.74,1,5.06,5.06,0,0,1-2,.37,10.62,10.62,0,0,1-4-1.19,23.65,23.65,0,0,0-4.08-1.64,6.65,6.65,0,0,0-2.27-.16,6.35,6.35,0,0,0-2.18.71,40,40,0,0,0-3.66,2.52,9.34,9.34,0,0,1-1.86,1,3.81,3.81,0,0,1-1,.28l-.51.09-.52,0a11.16,11.16,0,0,1-4.08-.85c-1.32-.48-2.62-1-4-1.45a8,8,0,0,0-4.22-.3,7.68,7.68,0,0,0-3.55,2.13,27.42,27.42,0,0,1-2.92,2.64,5.47,5.47,0,0,1-3.52,1,9.57,9.57,0,0,1-3.52-1.06c-1.11-.54-2.16-1.18-3.23-1.77-2.1-1.16-4.41-2.24-6.8-2a12.89,12.89,0,0,0-6,2.81,33.56,33.56,0,0,1-5,3.36,14.68,14.68,0,0,1-5.24,1.43,18.63,18.63,0,0,1-4.86-.38,17.38,17.38,0,0,1-7-3.41,15.63,15.63,0,0,1-3.26-3.72c-.28-.49-.47-.88-.61-1.14a2.09,2.09,0,0,0-.22-.38,2.63,2.63,0,0,0,.17.4c.13.27.3.67.57,1.17A15.09,15.09,0,0,0,51.59,357a17.44,17.44,0,0,0,7,3.53,18.69,18.69,0,0,0,4.94.43A15,15,0,0,0,69,359.54a33.69,33.69,0,0,0,5.09-3.37,12.66,12.66,0,0,1,5.81-2.7c2.24-.26,4.45.77,6.54,1.93,1,.59,2.11,1.23,3.25,1.79a10,10,0,0,0,3.69,1.12,6,6,0,0,0,3.82-1.07,27.41,27.41,0,0,0,3-2.69,7.22,7.22,0,0,1,3.33-2,7.55,7.55,0,0,1,4,.3c1.32.39,2.61.95,3.95,1.44a11.71,11.71,0,0,0,4.26.89l.57,0,.55-.1a5,5,0,0,0,1.09-.3,9.58,9.58,0,0,0,2-1.08,39.94,39.94,0,0,1,3.61-2.48,5.8,5.8,0,0,1,2-.65,6.16,6.16,0,0,1,2.09.15,22.22,22.22,0,0,1,4,1.6,11.23,11.23,0,0,0,4.19,1.23,5.37,5.37,0,0,0,2.17-.41,8.53,8.53,0,0,0,1.84-1.12,15,15,0,0,1,3.37-2.25,5.39,5.39,0,0,1,3.81.13c1.24.43,2.43,1.05,3.69,1.49a9.32,9.32,0,0,0,2,.46,6.11,6.11,0,0,0,2-.15c2.59-.66,4.52-2.45,6.81-3.08a11.29,11.29,0,0,1,6.78.65c2.15.73,4.16,1.67,6.26,2.15a10.32,10.32,0,0,0,6.09-.21c1.86-.64,3.49-1.51,5.15-2a11.42,11.42,0,0,1,4.81-.39c1.53.17,2.93.47,4.23.68s2.49.41,3.55.62c.54.11,1,.23,1.52.29a5.17,5.17,0,0,0,1.36,0c.83-.09,1.53-.19,2.1-.26l1.28-.19A2.28,2.28,0,0,0,204.9,349.86Z" style="fill:#fafafa"></path><path d="M188.25,373.45a1,1,0,0,0-.3,0l-.87.08c-.76.09-1.88.23-3.32.45-2.89.4-7,1.26-12.21,1.68a42.6,42.6,0,0,1-8.47-.15,20.13,20.13,0,0,0-4.79,0,8.57,8.57,0,0,0-2.43.72,11.18,11.18,0,0,0-2.18,1.42c-1.36,1.05-2.65,2.32-4.32,2.82a4.43,4.43,0,0,1-2.55,0,17.56,17.56,0,0,1-2.54-1,9.6,9.6,0,0,0-2.75-.93,4.3,4.3,0,0,0-2.92.63c-1.73,1.05-2.86,2.8-4.62,3.55s-3.77.29-5.58-.25a21.67,21.67,0,0,0-5.62-1.3,6.44,6.44,0,0,0-2.81.58,10.44,10.44,0,0,0-2.31,1.57,19.75,19.75,0,0,1-4.12,3.17,6.23,6.23,0,0,1-4.74,0c-1.54-.48-3-1.22-4.49-1.57a6.52,6.52,0,0,0-4.47.33,3.63,3.63,0,0,0-1.53,1.55,14.2,14.2,0,0,0-.7,1.9,4.25,4.25,0,0,1-.86,1.6,3.49,3.49,0,0,1-1.43.92,5.27,5.27,0,0,1-3.17,0,5.48,5.48,0,0,1-2.37-1.46,9.32,9.32,0,0,1-1.45-1.9,21,21,0,0,1-1.4-3c-.14-.33-.24-.6-.32-.81a1.53,1.53,0,0,0-.13-.27,1.33,1.33,0,0,0,.08.29l.27.83a19.61,19.61,0,0,0,1.33,3.09,9.12,9.12,0,0,0,1.44,2,5.8,5.8,0,0,0,2.46,1.57,5.64,5.64,0,0,0,3.36.06,3.92,3.92,0,0,0,1.59-1,4.57,4.57,0,0,0,.95-1.71,13.94,13.94,0,0,1,.69-1.84,3.28,3.28,0,0,1,1.38-1.38,6.19,6.19,0,0,1,4.18-.26c1.46.33,2.88,1.09,4.45,1.59a9.25,9.25,0,0,0,2.49.5,5.72,5.72,0,0,0,2.59-.51,19.82,19.82,0,0,0,4.24-3.23,9.8,9.8,0,0,1,2.2-1.49,5.87,5.87,0,0,1,2.59-.53,21.25,21.25,0,0,1,5.48,1.29,15.25,15.25,0,0,0,2.9.63,6,6,0,0,0,3-.4c1.95-.85,3.09-2.63,4.69-3.58a3.83,3.83,0,0,1,2.59-.57,9.4,9.4,0,0,1,2.6.88,18.52,18.52,0,0,0,2.61,1.06,5,5,0,0,0,2.83,0c1.84-.57,3.14-1.89,4.48-2.93a11.85,11.85,0,0,1,2.08-1.37,8.14,8.14,0,0,1,2.3-.69,20.33,20.33,0,0,1,4.68,0,43.05,43.05,0,0,0,8.54.09c5.21-.48,9.34-1.39,12.21-1.85l3.31-.54.86-.14Z" style="fill:#fafafa"></path><path d="M189.65,440.14l-.3-.12-.87-.31c-.77-.27-1.91-.68-3.38-1.16a25.94,25.94,0,0,0-5.52-1.28,8,8,0,0,0-3.52.58,16.6,16.6,0,0,1-3.75,1.07,8.23,8.23,0,0,1-4.1-.93,24,24,0,0,0-4.41-1.77,11,11,0,0,0-5.1.3c-1.69.45-3.36,1.12-5.1,1.63a11.11,11.11,0,0,1-5.43.47,34.79,34.79,0,0,1-5.42-2.11,9,9,0,0,0-3-.71,5.43,5.43,0,0,0-3.06.8c-1.83,1.09-3.14,2.86-5.05,3.57a5.06,5.06,0,0,1-3,.07,17.1,17.1,0,0,1-2.86-1.08,22.45,22.45,0,0,0-2.88-1.15,5.52,5.52,0,0,0-3.12-.06,6,6,0,0,0-2.54,1.69c-.7.7-1.32,1.44-2,2.05a5.58,5.58,0,0,1-5.08,1.06c-1.77-.35-3.44-1-5.13-1.48a10,10,0,0,0-2.59-.39,4.78,4.78,0,0,0-2.49.6,5,5,0,0,0-1.81,1.69c-.46.66-.82,1.35-1.19,2A5.62,5.62,0,0,1,94,448.08a5,5,0,0,1-3.7-.38,8.66,8.66,0,0,1-2.73-2.09,25.71,25.71,0,0,1-2.89-4.8,19.77,19.77,0,0,0-1.88-3,7.58,7.58,0,0,0-.85-.92s.28.33.76,1a22.71,22.71,0,0,1,1.79,3.07,24.92,24.92,0,0,0,2.85,4.9,8.94,8.94,0,0,0,2.81,2.2,5.31,5.31,0,0,0,4,.43,6,6,0,0,0,3.14-3.06c.76-1.29,1.45-2.79,2.86-3.51s3.12-.58,4.75-.15,3.32,1.14,5.15,1.51a7.56,7.56,0,0,0,2.85.11,5.56,5.56,0,0,0,1.42-.44,6.5,6.5,0,0,0,1.24-.82c.75-.64,1.38-1.4,2.06-2.08a5.59,5.59,0,0,1,2.34-1.55,5,5,0,0,1,2.83.07,21.35,21.35,0,0,1,2.81,1.12,17.63,17.63,0,0,0,3,1.12,5.55,5.55,0,0,0,3.25-.09c2.12-.81,3.42-2.61,5.14-3.61a4.93,4.93,0,0,1,2.78-.74,8.54,8.54,0,0,1,2.84.67,35.06,35.06,0,0,0,5.51,2.13,11.57,11.57,0,0,0,5.66-.5c1.78-.53,3.43-1.2,5.09-1.65a10.37,10.37,0,0,1,4.89-.31,23.19,23.19,0,0,1,4.34,1.71,8.46,8.46,0,0,0,4.3.92,16.27,16.27,0,0,0,3.82-1.12,7.72,7.72,0,0,1,3.39-.6,26.07,26.07,0,0,1,5.48,1.19l3.4,1.06.9.26Z" style="fill:#fafafa"></path><path d="M133.47,415.37a3.75,3.75,0,0,0,.57.36,12.94,12.94,0,0,0,1.76.81,14.63,14.63,0,0,0,7.06.72,15,15,0,0,0,2.31-.54c.79-.25,1.58-.61,2.38-.94a4.46,4.46,0,0,1,5.06.56c.79.56,1.56,1.23,2.47,1.78a6,6,0,0,0,1.5.66,3.88,3.88,0,0,0,.83.13,4,4,0,0,0,.85,0c2.29-.29,4.1-1.8,6.09-2.81a5.56,5.56,0,0,1,3.09-.79l.38,0,.36.12a3,3,0,0,1,.7.32,6.31,6.31,0,0,1,1.17,1,21.87,21.87,0,0,0,2.2,2.33,3.25,3.25,0,0,0,1.49.69,2.81,2.81,0,0,0,1.6-.24,5.93,5.93,0,0,0,2.12-2.1,22.56,22.56,0,0,1,1.59-2.17,5.54,5.54,0,0,1,4.25-1.7,6.48,6.48,0,0,1,3.6,1.45,8.58,8.58,0,0,1,2.07,2.15,4.55,4.55,0,0,1,.81,2.4,2,2,0,0,0,0-.68,4.48,4.48,0,0,0-.66-1.83,8.56,8.56,0,0,0-2.08-2.27,6.58,6.58,0,0,0-3.75-1.58,5.91,5.91,0,0,0-4.59,1.76,21.52,21.52,0,0,0-1.65,2.21,5.52,5.52,0,0,1-1.94,1.93,2.42,2.42,0,0,1-2.59-.41,22.64,22.64,0,0,1-2.13-2.29,6.49,6.49,0,0,0-1.27-1.11,2.91,2.91,0,0,0-.8-.37,3,3,0,0,0-.42-.14l-.44-.06a5.91,5.91,0,0,0-3.37.84c-2.05,1.05-3.85,2.5-5.92,2.76a4.36,4.36,0,0,1-2.86-.68c-.86-.52-1.64-1.18-2.46-1.76a4.88,4.88,0,0,0-5.49-.56c-.82.35-1.58.71-2.34,1a15.4,15.4,0,0,1-2.25.56,14.75,14.75,0,0,1-6.93-.55C134.29,415.82,133.5,415.31,133.47,415.37Z" style="fill:#fafafa"></path><path d="M188.67,466.85a1.13,1.13,0,0,0-.3.09l-.37.11-.52.08a6.27,6.27,0,0,1-3.34-.81,25.41,25.41,0,0,0-5.13-2.26,5.52,5.52,0,0,0-1.73-.08,5.39,5.39,0,0,0-1.75.58,26.07,26.07,0,0,0-3.22,2.25,5.65,5.65,0,0,1-3.84,1.36,13.76,13.76,0,0,1-4.29-1.55,10.24,10.24,0,0,0-2.38-.79,7.11,7.11,0,0,0-2.6.06c-1.73.32-3.37,1.06-5.09,1.53a10.57,10.57,0,0,1-5.39.08,38.46,38.46,0,0,1-5.47-1.81,24.73,24.73,0,0,0-5.82-1.67,11.08,11.08,0,0,0-6.17,1c-1.94.84-3.71,1.93-5.58,2.68a8.7,8.7,0,0,1-5.71.53c-3.73-1.07-6.46-4.1-10-5.27a8.31,8.31,0,0,0-5.35,0,18.71,18.71,0,0,0-4.47,2.32c-1.35.88-2.62,1.79-3.91,2.52A13.68,13.68,0,0,1,85.07,469a15,15,0,0,1-4.9-2.51A15.1,15.1,0,0,1,77,463a1.78,1.78,0,0,0,.15.27l.49.78a13.28,13.28,0,0,0,2.44,2.57,14.31,14.31,0,0,0,16.38,1.44c1.32-.74,2.59-1.64,3.94-2.51a18.1,18.1,0,0,1,4.38-2.24,7.77,7.77,0,0,1,5.06.05,21.79,21.79,0,0,1,4.81,2.62,19.22,19.22,0,0,0,5.22,2.68,9.2,9.2,0,0,0,6-.54c1.92-.78,3.69-1.86,5.59-2.68a10.53,10.53,0,0,1,5.9-.94,24.34,24.34,0,0,1,5.7,1.64,37.88,37.88,0,0,0,5.55,1.82,11,11,0,0,0,5.62-.11c1.77-.49,3.39-1.23,5-1.54a6.93,6.93,0,0,1,2.44-.07A10,10,0,0,1,164,467a14.08,14.08,0,0,0,4.44,1.55,6,6,0,0,0,4.09-1.46,26.66,26.66,0,0,1,3.15-2.26,5.43,5.43,0,0,1,1.64-.57,5.52,5.52,0,0,1,1.63.07,25.63,25.63,0,0,1,5.1,2.15,6.2,6.2,0,0,0,3.44.73,4.6,4.6,0,0,0,.53-.1l.36-.14A1.11,1.11,0,0,0,188.67,466.85Z" style="fill:#fafafa"></path><path d="M186.2,294.91s-.3.36-1,.9a8.17,8.17,0,0,1-3.44,1.51,20.11,20.11,0,0,1-6,.11c-1.17-.09-2.43-.21-3.78-.19a11.73,11.73,0,0,0-4.2.75,39.18,39.18,0,0,0-4.14,2.17,13.51,13.51,0,0,1-2.23,1,9.19,9.19,0,0,1-2.47.41,24.73,24.73,0,0,1-5.31-.61,19.26,19.26,0,0,0-5.77-.43,14.07,14.07,0,0,0-5.61,2.32,15.34,15.34,0,0,1-5.6,2.49,8.56,8.56,0,0,1-3.1-.21,19.49,19.49,0,0,1-3-1.13,38.26,38.26,0,0,0-6.2-2.64,8.73,8.73,0,0,0-3.45-.21,9.9,9.9,0,0,0-3.19,1.19c-1.94,1.1-3.61,2.53-5.52,3.41a10.24,10.24,0,0,1-6,.74,37.81,37.81,0,0,1-5.79-1.5,33.44,33.44,0,0,0-5.61-1.36,15.38,15.38,0,0,0-5.44.34,68.34,68.34,0,0,0-9.12,3.37,15.23,15.23,0,0,1-7.74,1.23,18.38,18.38,0,0,1-5.8-1.45,11.26,11.26,0,0,1-4.1-3,6.08,6.08,0,0,0,.86,1,10.74,10.74,0,0,0,3.16,2.16,18.14,18.14,0,0,0,5.85,1.56,16.71,16.71,0,0,0,3.8,0,16.13,16.13,0,0,0,4.11-1.14,69.23,69.23,0,0,1,9.08-3.3,15,15,0,0,1,5.29-.3,32,32,0,0,1,5.52,1.36,38.26,38.26,0,0,0,5.85,1.53,10.79,10.79,0,0,0,6.29-.77c2-.92,3.66-2.35,5.56-3.42a9.11,9.11,0,0,1,3-1.12,8.22,8.22,0,0,1,3.23.19,37.8,37.8,0,0,1,6.11,2.61,19.16,19.16,0,0,0,3.12,1.16,9.18,9.18,0,0,0,3.3.22,15.6,15.6,0,0,0,5.79-2.58A13.8,13.8,0,0,1,148,301c3.85-.42,7.47,1.18,11,1a10.1,10.1,0,0,0,2.58-.44,14,14,0,0,0,2.29-1,40.08,40.08,0,0,1,4.08-2.19c2.74-1.09,5.51-.74,7.83-.61a19.88,19.88,0,0,0,6.05-.2,8.07,8.07,0,0,0,3.46-1.62A4.57,4.57,0,0,0,186.2,294.91Z" style="fill:#fafafa"></path><path d="M185.52,458.34a3,3,0,0,0-.54.07l-1.52.27-5.58,1.07c-4.71.88-11.23,2-18.48,3s-13.83,1.7-18.6,2.13l-5.66.51-1.54.15a.27.27,0,1,0,0,.1l1.55-.05c1.34-.05,3.27-.17,5.67-.34,4.78-.34,11.39-1,18.64-2s13.78-2.21,18.48-3.18c2.35-.49,4.25-.91,5.55-1.23l1.5-.37A2,2,0,0,0,185.52,458.34Z" style="fill:#263238"></path><path d="M163.54,455.74a4.69,4.69,0,0,0-.83.17c-.54.12-1.32.38-2.36.58a50.42,50.42,0,0,1-21.94-.08,47.31,47.31,0,0,1-26.89-16.78,49.83,49.83,0,0,1-6.85-11.25,49,49,0,0,1-2.85-8.44c-.28-1-.39-1.83-.53-2.37a4.49,4.49,0,0,0-.2-.82,5.27,5.27,0,0,0,.1.84c.1.55.18,1.37.43,2.4a46,46,0,0,0,2.71,8.53A48.45,48.45,0,0,0,151.54,458a45.36,45.36,0,0,0,8.86-1.31c1-.22,1.81-.51,2.34-.66A6.59,6.59,0,0,0,163.54,455.74Z" style="fill:#263238"></path><path d="M154.68,280a4,4,0,0,0,0,.72c0,.52,0,1.21,0,2.06a29.79,29.79,0,0,1-.76,7.49,12.83,12.83,0,0,1-6.63,8.46,23.1,23.1,0,0,1-6.18,2.21,29.41,29.41,0,0,1-7,.68,25.72,25.72,0,0,1-13-3.68,20.46,20.46,0,0,1-7.46-8.09,18.22,18.22,0,0,1-1.94-7.21c-.07-1.79.12-2.77,0-2.78a5.15,5.15,0,0,0-.13.71,13.38,13.38,0,0,0-.12,2.07A17.54,17.54,0,0,0,113.3,290a20.56,20.56,0,0,0,7.54,8.33,25.91,25.91,0,0,0,13.23,3.79,29.89,29.89,0,0,0,7.14-.7,23.36,23.36,0,0,0,6.3-2.29,13.18,13.18,0,0,0,6.76-8.78,28.55,28.55,0,0,0,.61-7.59c0-.9-.08-1.59-.12-2.06A3.08,3.08,0,0,0,154.68,280Z" style="fill:#263238"></path><path d="M134.87,299.9h0a20.06,20.06,0,0,0,18.44-21c-.38-7.6-.78-14.45-.78-14.45s16.3-2.53,16.5-18.82S166.4,192,166.4,192h0a56.61,56.61,0,0,0-56.88,7.15L107.11,201l6.17,80.48A20.06,20.06,0,0,0,134.87,299.9Z" style="fill:#ffbe9d"></path><path d="M152.56,264.23a37.92,37.92,0,0,1-21.23-6s5,11.72,21.27,10.26Z" style="fill:#eb996e"></path><path d="M154.36,217.66c.28-.32,2.1.9,4.6.76s4.27-1.48,4.56-1.19c.14.13-.13.69-.9,1.32a6.33,6.33,0,0,1-3.62,1.32,6.12,6.12,0,0,1-3.68-1C154.52,218.34,154.23,217.8,154.36,217.66Z" style="fill:#263238"></path><path d="M129.69,218.21c.29-.31,2.05,1,4.55,1s4.35-1.22,4.62-.91c.13.13-.17.68-1,1.25a6.33,6.33,0,0,1-3.7,1.11,6.15,6.15,0,0,1-3.61-1.2C129.81,218.89,129.55,218.34,129.69,218.21Z" style="fill:#263238"></path><path d="M147.8,233.89c0-.14,1.55-.41,4.07-.73.64-.07,1.24-.19,1.35-.63a3.25,3.25,0,0,0-.43-1.89l-1.89-4.87c-2.62-6.93-4.52-12.63-4.24-12.73s2.63,5.43,5.26,12.36l1.81,4.89a3.69,3.69,0,0,1,.33,2.51,1.6,1.6,0,0,1-1.05.94,4.64,4.64,0,0,1-1.09.15C149.39,234,147.81,234,147.8,233.89Z" style="fill:#263238"></path><path d="M140.44,235.62c.4,0,.41,2.7,2.73,4.63s5.22,1.63,5.24,2c0,.17-.64.52-1.87.56a6.78,6.78,0,0,1-4.37-1.53,5.87,5.87,0,0,1-2.12-3.87C140,236.28,140.25,235.61,140.44,235.62Z" style="fill:#263238"></path><path d="M139.36,205.52c-.24.68-2.74.36-5.68.71s-5.31,1.16-5.7.55c-.17-.3.24-.94,1.2-1.59a10,10,0,0,1,8.67-1C138.93,204.66,139.47,205.2,139.36,205.52Z" style="fill:#263238"></path><path d="M162.4,207.62c-.44.57-2.16,0-4.24-.05s-3.83.38-4.23-.21c-.18-.29.1-.86.87-1.4a6.14,6.14,0,0,1,6.82.21C162.36,206.76,162.6,207.34,162.4,207.62Z" style="fill:#263238"></path><path d="M109.12,217.83c-.28-.12-11.2-3.31-10.84,7.82s11.46,8.49,11.47,8.17S109.12,217.83,109.12,217.83Z" style="fill:#ffbe9d"></path><path d="M106.21,229.71s-.19.14-.51.3a1.92,1.92,0,0,1-1.45.07c-1.19-.39-2.24-2.23-2.36-4.23a6.5,6.5,0,0,1,.46-2.8,2.22,2.22,0,0,1,1.41-1.53,1,1,0,0,1,1.16.49c.16.31.1.54.16.55s.23-.19.13-.65a1.29,1.29,0,0,0-.46-.68,1.48,1.48,0,0,0-1.09-.25,2.73,2.73,0,0,0-2,1.79,6.6,6.6,0,0,0-.57,3.12c.14,2.25,1.36,4.31,3,4.72a2.07,2.07,0,0,0,1.77-.35C106.2,230,106.25,229.73,106.21,229.71Z" style="fill:#eb996e"></path><path d="M172.64,177.88a17.22,17.22,0,0,0-26.75-5.15,17.17,17.17,0,0,0-12.9-9.15c-.34-.05-.68-.08-1-.1a14.69,14.69,0,0,0-15.07,11.86l-.8,3.87s-13.77,4.68-17,7.24a12.29,12.29,0,0,0,4.39,21.43c-3.5,6.3-.22,15.34,6.5,17.94l1.62-.68A23.18,23.18,0,0,0,115,199.57c.2,0,.39,0,.59,0a13,13,0,0,0,16.94-3.88,14.44,14.44,0,0,0,15.52.65,6.11,6.11,0,0,1,2.34-1.06,5.55,5.55,0,0,1,2.92.87,13.7,13.7,0,0,0,7.88,1.6,7.62,7.62,0,0,0,5.92-4.24l.19,0a8.78,8.78,0,0,0,6.52-6.32A13,13,0,0,0,172.64,177.88Z" style="fill:#263238"></path><path d="M101.22,216.23s-7.19-31.85,11.83-37h3s-14.71,7.73-10.1,34.27" style="fill:#FF7F11"></path><ellipse cx="103.67" cy="223.52" rx="10.96" ry="11.74" style="fill:#FF7F11"></ellipse><path d="M104.53,211.78s.13,0,.35.07a8.61,8.61,0,0,1,1,.36,9.22,9.22,0,0,1,3.07,2.14,11.17,11.17,0,0,1,2.57,4.91A12.83,12.83,0,0,1,108,231.88a10.16,10.16,0,0,1-4.85,2.68,7,7,0,0,1-3.73-.1,4.36,4.36,0,0,1-.94-.41c-.2-.11-.3-.18-.29-.2s.45.2,1.28.42a7.31,7.31,0,0,0,3.6-.06,10.19,10.19,0,0,0,4.6-2.67A12.65,12.65,0,0,0,111,225.9a12.43,12.43,0,0,0,0-6.52,10.91,10.91,0,0,0-2.38-4.78,9.65,9.65,0,0,0-2.88-2.21C105,212,104.52,211.82,104.53,211.78Z" style="fill:#263238"></path><path d="M113.18,229.6c-.14,0-.19-.87-.91-1.48s-1.59-.52-1.61-.66.19-.2.57-.22A2,2,0,0,1,113.3,229C113.34,229.38,113.24,229.61,113.18,229.6Z" style="fill:#263238"></path><path d="M112.72,226c0,.14-.39.14-.78.13s-.72,0-.77-.18.31-.35.79-.34S112.77,225.86,112.72,226Z" style="fill:#263238"></path><path d="M112.72,216.29c0,.14-.59.09-1.17.33s-1,.63-1.08.55.11-.74.89-1S112.79,216.17,112.72,216.29Z" style="fill:#263238"></path><path d="M128,167c0,.08-1.34.05-3.49.16a18.29,18.29,0,0,0-3.69.57,9.45,9.45,0,0,0-3.93,2.13,6.19,6.19,0,0,0-2,3.87,7.66,7.66,0,0,0,.57,3.6,33.87,33.87,0,0,0,1.6,3.07,3.07,3.07,0,0,1-.63-.7,12.13,12.13,0,0,1-1.31-2.23,7.7,7.7,0,0,1-.7-3.79,6.46,6.46,0,0,1,2.15-4.2,9.63,9.63,0,0,1,4.17-2.21,16.43,16.43,0,0,1,3.8-.48c1.09,0,2,0,2.56.08A3.16,3.16,0,0,1,128,167Z" style="fill:#263238"></path><path d="M114.37,166.37c.07,0-.43.74-.9,2a9.49,9.49,0,0,0,1.75,9.72c.88,1,1.59,1.47,1.54,1.55a4.84,4.84,0,0,1-1.81-1.3,9.17,9.17,0,0,1-2.48-4.77,9,9,0,0,1,.66-5.34A4.68,4.68,0,0,1,114.37,166.37Z" style="fill:#263238"></path><path d="M162.58,180.15a1.2,1.2,0,0,1-.06.38,7,7,0,0,1-.36,1.07,9.74,9.74,0,0,1-2.41,3.39,9.49,9.49,0,0,1-5.67,2.51,10.1,10.1,0,0,1-7.32-2.29l.38-.05a11.74,11.74,0,0,1-9.61,5A11.18,11.18,0,0,1,130.9,188a11.39,11.39,0,0,1-3.17-3.51,8.75,8.75,0,0,1-.56-1.17,1.33,1.33,0,0,1-.13-.43s.27.56.86,1.49a12,12,0,0,0,3.21,3.32,11,11,0,0,0,6.42,2,11.52,11.52,0,0,0,7.6-3,11.08,11.08,0,0,0,1.58-1.81l.17-.23.21.18a9.77,9.77,0,0,0,7,2.22,9.33,9.33,0,0,0,5.47-2.31,10.22,10.22,0,0,0,2.46-3.21C162.4,180.65,162.54,180.14,162.58,180.15Z" style="fill:#455a64"></path><path d="M163.68,191.6s-.39.64-1.37,1.31a8.2,8.2,0,0,1-8.83.24,3.92,3.92,0,0,1-1.44-1.24c.06-.07.6.4,1.62.92a9.06,9.06,0,0,0,4.26,1,8.89,8.89,0,0,0,4.19-1.2C163.1,192,163.62,191.53,163.68,191.6Z" style="fill:#455a64"></path><path d="M164.27,258.19a2.13,2.13,0,0,1,.11.41c.06.28.13.69.2,1.23.15,1.09.3,2.7.46,4.77.29,4.15.62,10.16.61,17.6a52,52,0,0,1-1.09,12.13,19,19,0,0,1-2.68,6.26,16.65,16.65,0,0,1-5.36,4.84,36.43,36.43,0,0,1-14.75,4.45,40.22,40.22,0,0,1-16.49-1.29,23.92,23.92,0,0,1-7.51-3.87,21.58,21.58,0,0,1-5.41-6.16c-2.75-4.69-3.87-9.87-4.62-14.72s-1.17-9.52-1.7-13.86-1-8.38-1.39-12.07c-.83-7.37-1.51-13.34-2-17.5-.22-2-.39-3.64-.51-4.76l-.12-1.24c0-.27,0-.42,0-.42a2,2,0,0,1,.08.42c0,.3.1.71.17,1.23.15,1.11.35,2.71.61,4.75.51,4.15,1.24,10.11,2.15,17.47.44,3.7.93,7.74,1.45,12.07s1,9,1.74,13.84,1.89,9.94,4.59,14.53a21,21,0,0,0,5.29,6,23.09,23.09,0,0,0,7.35,3.78,39.79,39.79,0,0,0,16.27,1.28c5.28-.58,10.37-1.85,14.56-4.35a16.12,16.12,0,0,0,5.23-4.69,18.72,18.72,0,0,0,2.65-6.1,52.64,52.64,0,0,0,1.13-12c.06-7.43-.22-13.44-.45-17.59-.12-2.07-.24-3.68-.35-4.77,0-.54-.11-.95-.15-1.23A2.16,2.16,0,0,1,164.27,258.19Z" style="fill:#FF7F11"></path><path d="M183.92,404.56s0,.2-.08.58-.15,1-.26,1.72c-.24,1.53-.6,3.75-1.06,6.6-1,5.74-2.32,14-4,24.24-.43,2.55-.89,5.24-1.6,8a34.57,34.57,0,0,1-3.17,8.27,21.21,21.21,0,0,1-6.3,7.08,13.68,13.68,0,0,1-9.63,2.48,11.11,11.11,0,0,1-8.68-5.63,14.62,14.62,0,0,1-1.4-5.32c-.17-1.84-.2-3.69-.29-5.55-.31-7.46-.64-15.18-1-23.08-1.29-31.63-2.45-60.26-3.3-81-.39-10.35-.72-18.73-.94-24.55-.1-2.88-.17-5.13-.23-6.67,0-.75,0-1.33,0-1.74s0-.59,0-.59,0,.2.05.59,0,1,.1,1.73c.07,1.55.18,3.79.32,6.67.27,5.82.64,14.2,1.11,24.54.88,20.75,2.1,49.37,3.45,81,.33,7.9.65,15.62,1,23.08.09,1.86.12,3.71.29,5.52a14.15,14.15,0,0,0,1.33,5.14,10.67,10.67,0,0,0,8.3,5.39,13.26,13.26,0,0,0,9.32-2.39,20.76,20.76,0,0,0,6.17-6.92c3-5.31,3.88-11,4.78-16.11,1.76-10.2,3.18-18.47,4.17-24.21l1.16-6.58c.13-.73.24-1.3.31-1.71S183.92,404.56,183.92,404.56Z" style="fill:#FF7F11"></path><polygon points="180.59 371.45 192.12 350.17 227.22 350.17 228.34 352.28 198.62 401.68 164.99 403.3 180.59 371.45" style="fill:#FF7F11"></polygon><polygon points="180.59 371.45 192.12 350.17 227.22 350.17 228.34 352.28 198.62 401.68 164.99 403.3 180.59 371.45" style="opacity:0.4"></polygon><polygon points="181.7 373.57 193.24 352.28 228.34 352.28 199.74 403.79 166.1 405.42 181.7 373.57" style="fill:#FF7F11"></polygon><path d="M210.52,361.22a1.77,1.77,0,1,1,.27-2.48A1.77,1.77,0,0,1,210.52,361.22Z" style="fill:#ebebeb"></path><path d="M46.74,383.2v37.2a22.62,22.62,0,0,0,8.32,17.52h0a22.6,22.6,0,0,0,22.83,3.42L159.81,405l-8-27.33-65.9,21.73L86,382.5Z" style="fill:#ffbe9d"></path><path d="M148.56,380.64l5.56-6.89a19.25,19.25,0,0,1,15-7.17H174l3.31,3.72s23.74,1,24.61,4l0,.95,0,.55-20.31,1.36s17.28-.05,18.31,0,4.82-.29,4.74,1.74c-.06,1.66-2,3-5,3.41-1.22.18-16.18,1.48-16.18,1.48l16.46-.15c1.85,0,1.62,3,.52,3.32-.87.29-22,6.45-22,6.45s3.55,2.38,6.44,2.17,7.86-3.93,8.89-2.17.83,2.79.21,3.21a74.06,74.06,0,0,1-9.72,4.54c-2.27.63-20.85,3.57-20.85,3.57l-6.7,1.07Z" style="fill:#ffbe9d"></path><path d="M223.43,360.58s3.67,1.28,1.81,6a40.4,40.4,0,0,1-7.45,11.79,4.33,4.33,0,0,1-1.47,4.23s2.6.65,1,5a4.94,4.94,0,0,1-3.09,6.5s1.3,3.74-3.41,5.53-9.26-1.3-9.26-1.3Z" style="fill:#ffbe9d"></path><path d="M216,378c-3.34.9-7,1.62-10.09,2.79-1,.39-2,.41-2.7,1.26a2.33,2.33,0,0,0-.06,3,3.22,3.22,0,0,0,2.72.55,48,48,0,0,0,10.34-2.86" style="fill:#ffbe9d"></path><path d="M214.65,383.58c-3.33.9-7,1.62-10.08,2.79-1,.38-2,.4-2.7,1.26a2.31,2.31,0,0,0-.06,3,3.25,3.25,0,0,0,2.72.55,47.42,47.42,0,0,0,10.34-2.87" style="fill:#ffbe9d"></path><path d="M212.76,389.31c-3.34.9-7,1.62-10.09,2.79-1,.38-2,.4-2.69,1.26a2.3,2.3,0,0,0-.06,3,3.22,3.22,0,0,0,2.71.55A47.42,47.42,0,0,0,213,394" style="fill:#ffbe9d"></path><path d="M216,382.83c-.05-.14-2.41.69-5.36,1.51s-5.4,1.34-5.37,1.49a20.26,20.26,0,0,0,5.51-1A20,20,0,0,0,216,382.83Z" style="fill:#eb996e"></path><path d="M216.62,387.74c-.05-.14-2.75.76-6.1,1.74a62.81,62.81,0,0,0-6.08,1.84,28.83,28.83,0,0,0,6.22-1.34A28,28,0,0,0,216.62,387.74Z" style="fill:#eb996e"></path><path d="M214.43,394.06a32.56,32.56,0,0,0-5.73,1.17,33,33,0,0,0-5.61,1.67,33.7,33.7,0,0,0,5.74-1.17A32.33,32.33,0,0,0,214.43,394.06Z" style="fill:#eb996e"></path><path d="M218.76,377.33c0-.14-3,.86-6.73,1.81s-6.78,1.53-6.76,1.68a7.16,7.16,0,0,0,2-.17c1.25-.19,3-.52,4.85-1s3.53-1,4.72-1.47A7.44,7.44,0,0,0,218.76,377.33Z" style="fill:#eb996e"></path><path d="M185.35,370.59a66.08,66.08,0,0,0-8.33-.31,65.93,65.93,0,0,0-8.33.22,67.35,67.35,0,0,0,8.33.3A67.19,67.19,0,0,0,185.35,370.59Z" style="fill:#eb996e"></path><path d="M90.18,398.47a2.36,2.36,0,0,0-.81.09,17.92,17.92,0,0,0-2.15.55,24.56,24.56,0,0,0-11.87,8.23,17.84,17.84,0,0,0-1.26,1.82,2.38,2.38,0,0,0-.37.73c.08.05.71-.91,1.92-2.31A28.7,28.7,0,0,1,81,402.76a29.21,29.21,0,0,1,6.37-3.31C89.08,398.82,90.2,398.56,90.18,398.47Z" style="fill:#eb996e"></path></g><g id="freepik--Plant--inject-6"><path d="M389.29,381.31c-3.55,3.63-8.92,1.36-11.1-1.58s-2.69-6.75-3.11-10.38c-1-8.29-1.92-17,1.1-24.77a13.68,13.68,0,0,1,4.18-6.09,7.13,7.13,0,0,1,7.05-1.13c2.7,1.2,4,4.25,4.84,7.09a58.73,58.73,0,0,1,1.64,25.79c-.64,4-1.8,8.13-4.6,11.07" style="fill:#FF7F11"></path><g style="opacity:0.2"><path d="M389.29,381.31c-3.55,3.63-8.92,1.36-11.1-1.58s-2.69-6.75-3.11-10.38c-1-8.29-1.92-17,1.1-24.77a13.68,13.68,0,0,1,4.18-6.09,7.13,7.13,0,0,1,7.05-1.13c2.7,1.2,4,4.25,4.84,7.09a58.73,58.73,0,0,1,1.64,25.79c-.64,4-1.8,8.13-4.6,11.07"></path></g><path d="M375.09,400.35c-4.3-3.2-9.79-4.42-15.16-4.42-2.88,0-5.94.37-8.2,2.16s-3.23,5.45-1.33,7.62a7.44,7.44,0,0,0,4.62,2c4.1.62,8.75.65,11.61,3.65,1.64,1.71,2.5,4.24,4.61,5.3a5.34,5.34,0,0,0,6.22-1.63,9.15,9.15,0,0,0,1.75-6.54A10.29,10.29,0,0,0,375.09,400.35Z" style="fill:#FF7F11"></path><path d="M396.22,388.5c-2.51-4.22-2.22-9.73-.07-14.14s5.94-7.86,10.09-10.49a44.54,44.54,0,0,1,16-6.22,16,16,0,0,1,6.75,0,7,7,0,0,1,5,4.24c1.05,3.18-1,6.49-3.07,9.13a112,112,0,0,1-12,13c-3.48,3.23-7.37,6.34-12,7.3s-9.17,0-11-3.4" style="fill:#FF7F11"></path><path d="M379.32,443.33a8.19,8.19,0,0,1,0-1.91c.09-1.38.21-3.11.34-5.17a73.12,73.12,0,0,0,.08-7.67,58,58,0,0,0-1.27-9.27,33,33,0,0,0-3.19-8.72,17.12,17.12,0,0,0-4.92-5.67,16.36,16.36,0,0,0-4.56-2.28,9.6,9.6,0,0,1-1.81-.57,8.55,8.55,0,0,1,1.9.28,14.67,14.67,0,0,1,4.78,2.12,17,17,0,0,1,5.23,5.76,32.13,32.13,0,0,1,3.33,8.91,54.07,54.07,0,0,1,1.23,9.41,63.36,63.36,0,0,1-.25,7.73c-.19,2.19-.42,4-.59,5.17A9.28,9.28,0,0,1,379.32,443.33Z" style="fill:#263238"></path><path d="M379.61,439.35a3.18,3.18,0,0,1,.09-.87c.11-.65.25-1.47.41-2.48.36-2.15.87-5.26,1.39-9.12,1.07-7.72,2.14-18.44,2.78-30.31s.64-22.64.32-30.43c-.06-1.94-.15-3.7-.26-5.25s-.16-2.87-.26-4-.14-1.84-.19-2.5a4.51,4.51,0,0,1,0-.88,3.2,3.2,0,0,1,.17.86q.13,1,.33,2.49c.15,1.08.27,2.42.4,4s.28,3.31.37,5.26a284.76,284.76,0,0,1-.09,30.49c-.64,11.9-1.8,22.63-3,30.35-.58,3.86-1.18,7-1.63,9.1-.22,1-.41,1.81-.56,2.45A3.79,3.79,0,0,1,379.61,439.35Z" style="fill:#263238"></path><path d="M382.92,418.82a17.17,17.17,0,0,1,.45-2.58,69.8,69.8,0,0,1,1.94-6.88,93.87,93.87,0,0,1,3.95-9.85,92.76,92.76,0,0,1,6.26-11.39,65.25,65.25,0,0,1,15.75-17.48,33.78,33.78,0,0,1,3.4-2.26c.52-.31,1-.62,1.44-.86l1.27-.6a16.78,16.78,0,0,1,2.41-1c.1.19-3.42,1.56-8.19,5.2a69,69,0,0,0-15.42,17.47,95.84,95.84,0,0,0-6.26,11.27,104.2,104.2,0,0,0-4.09,9.72c-1,2.82-1.71,5.15-2.17,6.77A14.86,14.86,0,0,1,382.92,418.82Z" style="fill:#263238"></path><path d="M372.07,428.82h18.5a12.29,12.29,0,0,1,12.29,12.29v30.79a0,0,0,0,1,0,0H359.78a0,0,0,0,1,0,0V441.11A12.29,12.29,0,0,1,372.07,428.82Z" transform="translate(762.65 900.71) rotate(180)" style="fill:#FF7F11"></path><path d="M373.76,428.93a4.28,4.28,0,0,0,.49,1.28,22.86,22.86,0,0,0,1.91,3.19,25.8,25.8,0,0,0,21.18,10.81,21.4,21.4,0,0,0,3.71-.33,4.35,4.35,0,0,0,1.32-.34c0-.14-1.93.24-5,.14a27.14,27.14,0,0,1-20.76-10.6C374.7,430.64,373.88,428.87,373.76,428.93Z" style="fill:#fafafa"></path><path d="M360.19,457.93a4.39,4.39,0,0,0,1.4-.3,16,16,0,0,0,3.54-1.59,18.29,18.29,0,0,0,7.78-22.49,16.5,16.5,0,0,0-1.8-3.44c-.53-.75-.88-1.12-.92-1.09a36.54,36.54,0,0,1,2.22,4.72,18.5,18.5,0,0,1-7.56,21.84A37.82,37.82,0,0,1,360.19,457.93Z" style="fill:#fafafa"></path><path d="M371.23,470.7a25.75,25.75,0,0,1,.9-6.36,19.7,19.7,0,0,1,3.21-6.12,22.13,22.13,0,0,1,6.38-5.54,24.37,24.37,0,0,1,14.94-2.88,50.87,50.87,0,0,1,6.31,1.39,6.61,6.61,0,0,0-1.59-.73,23.39,23.39,0,0,0-4.65-1.19A23.92,23.92,0,0,0,381.34,452a21.91,21.91,0,0,0-6.55,5.78,19.28,19.28,0,0,0-3.17,6.39A16.06,16.06,0,0,0,371,469,6,6,0,0,0,371.23,470.7Z" style="fill:#fafafa"></path></g><g id="freepik--musical-notes--inject-6"><path d="M350.85,119.83a6.49,6.49,0,1,1-1.37-9.08A6.5,6.5,0,0,1,350.85,119.83Z" style="fill:#FF7F11"></path><path d="M351.38,117.53c-.63,0-1-6.87.24-15.17s2.51-14.83,3.09-14.79.4,6.89-.86,15.11S352,117.52,351.38,117.53Z" style="fill:#FF7F11"></path><path d="M374.55,94.57c.15.51-5,2.2-11.36.57a15.18,15.18,0,0,1-7.24-4c-1.52-1.59-1.78-3-1.52-3.12s1,.86,2.57,1.93a20.69,20.69,0,0,0,6.76,3C369.46,94.45,374.47,93.87,374.55,94.57Z" style="fill:#FF7F11"></path><path d="M370.69,126.83a6.5,6.5,0,1,1-1.38-9.08A6.49,6.49,0,0,1,370.69,126.83Z" style="fill:#FF7F11"></path><path d="M371.21,124.53c-.63,0-1-6.87.24-15.16s2.52-14.83,3.1-14.8.4,6.9-.87,15.11S371.83,124.53,371.21,124.53Z" style="fill:#FF7F11"></path><path d="M374.1,99c.23.54-4.59,2.48-10.61,1.16s-9.62-5-9.19-5.4,4.24,2.08,9.67,3.2S373.94,98.34,374.1,99Z" style="fill:#FF7F11"></path><path d="M391.77,181.19a4,4,0,1,0-.68-5.56A4,4,0,0,0,391.77,181.19Z" style="fill:#FF7F11"></path><path d="M391.09,179.93c.37-.1-.53-4.21-2.62-8.87s-3.91-8.3-4.24-8.18.89,4.11,3,8.73S390.72,180,391.09,179.93Z" style="fill:#FF7F11"></path><path d="M373.73,170.24c0,.32,3.29.47,6.76-1.53a9.3,9.3,0,0,0,3.6-3.53c.63-1.18.55-2.06.38-2.08s-.45.67-1.2,1.56a12.72,12.72,0,0,1-3.47,2.86C376.69,169.33,373.66,169.81,373.73,170.24Z" style="fill:#FF7F11"></path><path d="M381.27,188.55a4,4,0,1,0-.68-5.56A4,4,0,0,0,381.27,188.55Z" style="fill:#FF7F11"></path><path d="M380.59,187.28c.37-.09-.53-4.2-2.62-8.86s-3.91-8.3-4.24-8.18.89,4.11,3,8.73S380.22,187.38,380.59,187.28Z" style="fill:#FF7F11"></path><path d="M374.71,172.75c0,.36,3.1.71,6.42-1.05s4.83-4.52,4.51-4.68-2.15,1.92-5.15,3.46S374.7,172.35,374.71,172.75Z" style="fill:#FF7F11"></path><path d="M390.33,140.48a4.68,4.68,0,1,1,1.3-6.49A4.67,4.67,0,0,1,390.33,140.48Z" style="fill:#FF7F11"></path><path d="M391.25,139.05c-.27-.09,1.27-4.78,4.15-10.09s5.24-9.51,5.48-9.41-1.69,4.63-4.56,9.9S391.52,139.15,391.25,139.05Z" style="fill:#FF7F11"></path><path d="M410,123.87c.07.26-2.52.79-5.38-.47s-4.26-3.48-4-3.6,1.83,1.55,4.43,2.66S410,123.57,410,123.87Z" style="fill:#FF7F11"></path><path d="M407.42,128c.11.25-2.45.89-5.16-.54s-3.67-3.85-3.4-3.92,1.48,1.79,3.88,3S407.4,127.71,407.42,128Z" style="fill:#FF7F11"></path><path d="M217.53,268.79a4.52,4.52,0,1,1-5.42-3.38A4.52,4.52,0,0,1,217.53,268.79Z" style="fill:#FF7F11"></path><path d="M216.55,267.47c-.17.22-3.89-2.76-7.7-7.17s-6.82-8-6.65-8.13,3.61,3.09,7.39,7.47S216.73,267.27,216.55,267.47Z" style="fill:#FF7F11"></path><path d="M209.19,245.43c.26,0-.14,2.54-2.25,4.69s-4.59,2.67-4.62,2.41,2-1.12,3.9-3.1S208.91,245.34,209.19,245.43Z" style="fill:#FF7F11"></path><path d="M212.07,249.13c.26,0,0,2.52-2.24,4.48s-4.72,2-4.69,1.74,2.12-.72,4-2.48S211.79,249.05,212.07,249.13Z" style="fill:#FF7F11"></path><circle cx="184.27" cy="266.94" r="2.58" style="fill:#FF7F11"></circle><path d="M186.63,267.07c-.24.06-.95-2.59-1.14-5.92s-.23-6,0-6,.71,2.65.89,5.94S186.87,267,186.63,267.07Z" style="fill:#FF7F11"></path><path d="M193.77,256.25c.1.19-1.76,1.26-4.37,1.15a6,6,0,0,1-3.14-1c-.72-.49-.94-1-.85-1.09s.46.25,1.16.54a8.34,8.34,0,0,0,2.87.62C191.78,256.62,193.68,256,193.77,256.25Z" style="fill:#FF7F11"></path><circle cx="192.56" cy="268.04" r="2.58" style="fill:#FF7F11"></circle><path d="M194.92,268.17c-.24.06-1-2.58-1.15-5.91s-.23-6,0-6,.72,2.65.9,5.95S195.16,268.12,194.92,268.17Z" style="fill:#FF7F11"></path><path d="M194,258c.14.19-1.58,1.34-4,1.32s-4.16-1.16-4-1.35,1.82.46,4,.46S193.84,257.77,194,258Z" style="fill:#FF7F11"></path></g></svg>